<svg xmlns="http://www.w3.org/2000/svg" width="478" height="478" viewBox="0 0 478 478" fill="none"><g clip-path="url(#clip0_637_514)">
<rect y="-3" width="478" height="481" rx="100" fill="black"></rect>
<g clip-path="url(#clip1_637_514)">
<path d="M8.00977 301.422V324.444H42.5645V382H65.6005C65.6007 362.815 65.6009 343.629 65.6012 324.444H88.6448L111.684 301.419C77.1261 301.42 42.568 301.421 8.00977 301.422Z" fill="#E8E8E8"></path>
<path d="M146.237 301.419H134.718C122.585 301.419 112.391 306.09 104.134 315.427C98.4291 321.878 95.0265 330.092 94.4968 338.686C93.7299 351.127 97.6341 361.632 106.209 370.201C114.08 378.067 123.583 382 134.718 382H146.237C157.371 382 166.874 378.067 174.746 370.201C182.616 362.335 186.552 352.838 186.552 341.71C186.552 330.582 182.616 321.085 174.746 313.219C166.874 305.353 157.371 301.419 146.237 301.419ZM158.446 353.912C155.068 357.289 150.997 358.977 146.237 358.977H134.718C129.956 358.977 125.887 357.289 122.508 353.912C119.129 350.536 117.44 346.469 117.44 341.71C117.44 336.953 119.129 332.885 122.508 329.508C125.887 326.131 129.956 324.443 134.718 324.443H146.237C150.997 324.443 155.068 326.131 158.446 329.508C161.824 332.885 163.515 336.953 163.515 341.71C163.515 346.469 161.824 350.536 158.446 353.912Z" fill="#E8E8E8"></path>
<path d="M241.266 301.419H229.747C217.615 301.419 207.42 306.09 199.163 315.427C193.458 321.878 190.056 330.092 189.526 338.686C188.759 351.127 192.663 361.632 201.239 370.201C209.109 378.067 218.612 382 229.747 382H241.266C252.4 382 261.903 378.067 269.775 370.201C277.646 362.335 281.581 352.838 281.581 341.71C281.581 330.582 277.646 321.085 269.775 313.219C261.903 305.353 252.4 301.419 241.266 301.419ZM253.476 353.912C250.097 357.289 246.026 358.977 241.266 358.977H229.747C224.986 358.977 220.916 357.289 217.537 353.912C214.158 350.536 212.469 346.469 212.469 341.71C212.469 336.953 214.158 332.885 217.537 329.508C220.916 326.131 224.986 324.443 229.747 324.443H241.266C246.026 324.443 250.097 326.131 253.476 329.508C256.854 332.885 258.544 336.953 258.544 341.71C258.544 346.469 256.854 350.536 253.476 353.912Z" fill="#E8E8E8"></path>
<path d="M310.377 358.977V301.419H287.34V382C306.471 381.997 325.602 381.995 344.733 381.992C352.41 374.32 360.087 366.649 367.763 358.977H310.377Z" fill="#E8E8E8"></path>
<path d="M433.564 330.198H393.248C392.442 330.198 391.76 329.92 391.204 329.364C390.647 328.808 390.369 328.126 390.369 327.32C390.369 326.515 390.647 325.834 391.204 325.277C391.76 324.721 392.442 324.443 393.248 324.443H447.963L471 301.419H393.248C386.107 301.419 380.002 303.952 374.934 309.017C369.866 314.082 367.331 320.183 367.331 327.32C367.331 334.457 369.866 340.558 374.934 345.623C380.002 350.689 386.107 353.221 393.248 353.221H433.564C434.37 353.221 435.052 353.5 435.608 354.056C436.164 354.612 436.444 355.293 436.444 356.099C436.444 356.905 436.164 357.587 435.608 358.143C435.052 358.699 434.37 358.977 433.564 358.977H378.85L355.812 382H433.564C440.705 382 446.81 379.468 451.878 374.402C456.947 369.337 459.481 363.236 459.481 356.099C459.481 348.962 456.947 342.861 451.878 337.796C446.81 332.731 440.705 330.198 433.564 330.198Z" fill="#E8E8E8"></path>
<path d="M176.929 159.528H89.3366C87.5841 159.528 86.1021 158.923 84.894 157.714C83.6842 156.507 83.0794 155.026 83.0794 153.274C83.0794 151.525 83.6842 150.045 84.894 148.834C86.1021 147.627 87.5841 147.023 89.3366 147.023H208.213L258.266 97H89.3366C73.8204 97 60.5564 102.503 49.5446 113.507C38.533 124.512 33.027 137.768 33.027 153.274C33.027 168.781 38.533 182.037 49.5446 193.041C60.5564 204.046 73.8204 209.549 89.3366 209.549H176.929C178.681 209.549 180.162 210.155 181.371 211.362C182.579 212.571 183.186 214.05 183.186 215.802C183.186 217.553 182.579 219.034 181.371 220.242C180.162 221.451 178.681 222.055 176.929 222.055H58.0541L8 272.076H176.929C192.445 272.076 205.709 266.574 216.721 255.569C227.733 244.564 233.238 231.308 233.238 215.802C233.238 200.295 227.733 187.04 216.721 176.035C205.709 165.03 192.445 159.528 176.929 159.528Z" fill="#E8E8E8"></path>
<path d="M387.909 166.476H445.964C445.963 201.675 445.961 236.873 445.96 272.071H333.338C309.153 272.071 288.503 263.527 271.404 246.439C254.306 229.351 245.756 208.714 245.756 184.545C245.756 158.072 256.003 135.848 276.512 117.857C292.038 104.255 312.143 97.0029 332.808 97.0029H470.986L420.935 147.023H333.338C322.997 147.023 314.152 150.695 306.817 158.026C299.482 165.371 295.807 174.196 295.807 184.545C295.807 194.879 299.482 203.719 306.817 211.049C314.152 218.379 322.997 222.052 333.338 222.052H389.664C389.773 222.052 389.882 222.052 389.991 222.036H395.909V203.791H350.571C363.017 191.353 375.463 178.915 387.909 166.476Z" fill="#E8E8E8"></path>
</g>
</g><defs>
<clipPath id="clip0_637_514">
<rect width="478" height="478" fill="white"></rect>
</clipPath>
<clipPath id="clip1_637_514">
<rect width="463" height="285" fill="white" transform="translate(8 97)"></rect>
</clipPath>
</defs></svg>