<svg width="3116" height="466" viewBox="0 0 3116 466" fill="none" xmlns="http://www.w3.org/2000/svg">
<g clip-path="url(#clip0_26_40)">
<path d="M2852.45 379.013C2845.72 379.013 2840.02 375.389 2836.4 369.176L2779.44 267.691C2773.75 258.371 2763.91 252.675 2753.04 252.675C2736.99 252.675 2723.52 266.138 2723.52 282.189V358.302C2723.52 368.658 2715.76 376.942 2705.4 376.942C2695.05 376.942 2687.28 368.14 2687.28 357.784V53.3311C2687.28 42.9755 2695.56 36.2444 2705.92 36.2444H2773.23C2790.83 36.2444 2806.89 38.8333 2821.9 45.0466C2835.88 51.2599 2848.31 59.0266 2858.15 69.8999C2867.47 80.2555 2874.71 92.1644 2879.89 105.109C2884.55 118.053 2887.14 131.515 2887.14 144.978C2887.14 158.44 2884.55 171.902 2879.89 184.329C2874.71 197.791 2867.47 209.7 2858.66 219.02C2852.45 225.751 2844.68 231.964 2835.36 237.66C2827.08 242.838 2822.42 251.64 2822.42 260.96C2822.42 265.62 2823.45 269.762 2826.04 273.904L2869.54 351.571C2871.09 354.16 2872.13 357.784 2872.13 360.891C2872.13 367.622 2868.5 373.836 2862.81 376.942C2858.66 377.978 2855.56 379.013 2852.45 379.013ZM2754.59 72.4888C2738.02 72.4888 2723.52 85.4333 2723.52 102.002V185.882C2723.52 202.451 2738.02 212.289 2754.59 212.289H2773.23C2826.04 212.289 2849.34 178.633 2849.34 142.907C2849.34 107.698 2825.53 72.4888 2773.23 72.4888H2754.59Z" fill="#810612"/>
<path d="M2997.43 376.942C2973.61 376.942 2953.42 371.247 2937.37 359.856C2925.97 352.089 2917.17 342.251 2910.44 329.307C2909.41 327.236 2908.37 324.129 2908.37 321.022C2908.37 314.291 2911.99 307.56 2918.21 304.453C2921.31 302.9 2923.9 302.382 2927.01 302.382C2933.74 302.382 2939.95 306.007 2943.58 312.22C2952.9 330.342 2971.54 339.662 2997.95 339.662C3024.35 339.662 3046.1 332.413 3060.6 319.469C3072.51 308.596 3079.24 293.58 3079.24 277.529C3079.24 248.533 3056.97 217.467 3008.82 217.467C2971.54 217.467 2949.27 202.969 2937.37 190.542C2921.83 175.009 2913.03 153.262 2913.03 129.962C2913.03 118.571 2915.1 106.662 2919.24 95.2712C2923.39 83.8801 2929.6 74.0423 2937.88 65.2401C2946.17 55.9201 2956.52 48.6712 2968.43 42.9756C2980.86 37.7978 2994.32 34.6912 3008.82 34.6912C3029.53 34.6912 3048.17 39.3512 3063.19 48.1534C3075.61 55.4023 3081.83 63.1689 3082.34 63.6867C3084.42 66.7934 3085.97 70.9356 3085.97 75.0778C3085.97 80.7734 3083.38 86.4689 3079.24 89.5756C3076.13 92.1645 3071.99 93.2001 3067.85 93.2001C3062.15 93.2001 3056.97 90.6112 3053.35 86.4689C3049.21 81.8089 3035.74 70.9356 3008.3 70.9356C2969.99 70.9356 2949.79 100.967 2949.79 128.927C2949.79 142.907 2954.45 155.333 2963.25 163.618C2977.23 177.598 2997.43 179.151 3008.3 179.151C3024.87 179.151 3040.4 181.74 3053.35 186.918C3066.81 192.096 3078.2 198.827 3087.52 208.664C3096.84 217.984 3104.09 228.34 3108.75 240.249C3113.41 251.64 3116 264.067 3116 276.493C3116 289.438 3113.41 301.865 3108.75 313.256C3103.57 325.164 3095.81 336.038 3085.97 345.358C3070.44 360.373 3042.99 376.942 2997.43 376.942Z" fill="#810612"/>
<path d="M2539.19 33.6555C2539.19 34.1733 2539.19 34.1733 2539.19 33.6555C2539.19 34.1733 2539.71 33.6555 2539.19 33.6555C2539.71 33.6555 2539.71 33.6555 2539.19 33.6555Z" fill="#810612"/>
<path d="M2656.21 353.642L2560.42 47.1178C2557.32 41.4222 2554.73 38.3156 2552.66 36.2445C2552.14 35.7267 2551.1 35.7267 2550.58 35.2089C2550.58 35.2089 2550.58 35.2089 2550.07 35.2089C2548.51 34.6911 2546.44 34.1733 2544.89 34.1733C2543.85 34.1733 2542.82 34.1733 2541.78 34.1733C2541.26 34.1733 2540.75 34.1733 2540.23 34.1733C2540.23 34.1733 2539.19 34.1733 2538.68 34.1733C2537.64 34.1733 2536.6 34.6911 2535.57 34.6911C2535.05 34.6911 2535.05 35.2089 2534.53 35.2089C2532.46 36.2445 2530.39 37.7978 2528.84 39.3511C2527.8 40.3867 2527.28 40.9045 2526.77 41.94C2526.25 42.9756 2525.21 44.0111 2525.21 45.0467C2524.7 46.0822 2524.7 47.1178 2524.18 48.1533L2425.28 354.16C2424.76 356.231 2424.25 357.784 2424.25 359.856C2424.25 367.622 2429.42 374.871 2437.19 377.46C2439.26 377.978 2440.81 378.496 2442.89 378.496C2450.65 378.496 2457.9 373.836 2460.49 366.069L2479.65 306.524C2484.31 293.062 2496.74 284.778 2510.72 284.778H2571.3C2585.79 284.778 2598.22 293.062 2602.36 306.524L2621 363.998C2623.59 371.764 2630.84 377.46 2638.61 377.46C2640.16 377.46 2642.23 377.46 2644.3 376.424C2652.07 374.353 2657.25 367.104 2657.25 359.338C2657.25 357.267 2657.25 355.713 2656.21 353.642ZM2560.42 238.178H2523.14C2511.23 238.178 2504.5 229.376 2508.13 217.984L2540.75 116.5L2574.92 216.431C2575.96 220.056 2575.96 220.056 2575.96 222.127C2576.47 231.447 2569.74 238.178 2560.42 238.178Z" fill="#810612"/>
<path d="M109.769 466C109.769 466 109.252 465.482 108.734 465.482V445.289L98.3782 434.933H49.7069C22.7823 434.933 0 413.187 0 387.298V93.2H41.4224V359.338C41.4224 378.496 57.4736 393.511 77.667 393.511H727.481C747.157 393.511 761.137 379.013 761.137 359.338V75.0778C761.137 55.4022 747.157 41.4222 727.481 41.4222H109.769C108.734 41.4222 108.216 40.3867 107.698 39.8689C107.698 39.3511 106.663 37.7978 107.698 36.7622L135.141 3.10667C137.729 0.517778 140.836 0 142.907 0H755.441C781.848 0 803.077 20.7111 803.077 47.1178V387.298C803.077 414.222 782.366 434.933 755.441 434.933H709.359L699.003 445.289V463.929C697.45 464.964 694.861 466 693.825 466H672.596C671.561 466 669.49 464.964 667.936 463.929V445.289L657.581 434.933H144.978L134.623 445.289V464.447C133.587 464.964 132.034 466 130.998 466H109.769Z" fill="#98999D"/>
<path d="M129.963 357.267C117.536 357.267 108.734 348.982 108.734 337.591V111.84C108.734 98.8955 119.089 93.2 129.963 93.2H340.182C351.055 93.2 362.446 99.4133 362.446 111.84V140.836C362.446 143.424 359.339 144.978 356.751 144.978H341.735C339.146 144.978 336.557 142.389 336.557 139.8V139.282C336.557 125.302 325.166 113.911 311.186 113.911H165.69C148.603 113.911 134.623 128.927 134.623 147.567V301.864C134.623 318.433 143.425 336.556 165.69 336.556H304.455C321.541 336.556 336.557 320.504 336.557 301.864V263.031C336.557 258.889 340.182 254.229 341.735 253.711H356.751C358.822 254.229 362.446 259.407 362.446 263.031V337.591C362.446 350.536 351.055 357.267 340.182 357.267H129.963Z" fill="#80020C"/>
<path d="M464.967 357.267C453.058 357.267 445.291 349.5 445.291 337.591V210.736C445.291 198.309 454.093 188.989 466.002 188.989L649.814 188.471C660.688 188.471 668.454 180.187 668.454 167.76V135.658C668.454 114.947 655.51 113.393 651.367 113.393H447.88C445.809 113.393 445.291 113.393 445.291 110.287V95.2711C445.291 94.2355 445.291 93.2 445.809 93.2C445.809 93.2 446.844 93.2 448.398 93.2H675.185C687.094 93.2 699.003 100.449 699.003 111.84V337.591C699.003 349.5 686.576 357.267 675.185 357.267H464.967ZM487.231 213.324C475.322 213.324 466.002 223.68 466.002 235.589V312.738C466.002 324.647 477.911 336.556 489.302 336.556H650.332C654.474 336.556 667.936 335.002 667.936 312.738V235.589C667.936 223.162 659.652 212.289 648.261 212.289L487.231 213.324Z" fill="#80020C"/>
<path d="M1009.15 383.673C981.711 383.673 958.411 372.8 940.289 353.124C926.309 338.109 911.293 311.184 911.293 264.584V153.262C911.293 108.215 927.862 81.2911 942.878 66.2755C952.715 56.4377 963.589 48.671 976.533 43.4933C988.96 38.8333 1001.39 36.2444 1014.85 36.2444C1027.79 36.2444 1040.22 38.3155 1052.13 42.9755C1064.56 47.6355 1075.43 54.8844 1084.75 63.6866C1094.59 73.0066 1102.35 84.3977 1108.05 97.8599C1113.74 111.84 1116.85 127.891 1116.85 143.942C1116.85 155.851 1107.53 166.207 1095.62 166.207H1094.59C1083.71 166.207 1074.39 155.333 1074.39 143.424C1074.39 99.9311 1044.88 79.7377 1015.37 79.7377C998.798 79.7377 984.3 85.9511 972.909 96.8244C959.446 110.287 953.233 129.444 953.233 153.262V265.102C953.233 290.473 958.929 311.184 971.355 324.647C981.193 335.52 994.656 341.216 1009.67 341.216C1041.77 341.216 1074.39 316.88 1074.39 268.727C1074.39 256.818 1083.71 248.533 1095.62 248.533H1096.66C1107.53 248.533 1116.85 257.853 1116.85 269.244C1116.85 285.813 1113.74 301.864 1108.05 316.362C1102.35 329.824 1094.07 342.251 1083.71 353.124C1073.36 363.48 1061.97 370.729 1049.54 375.907C1035.56 381.084 1022.62 383.673 1009.15 383.673Z" fill="#98999D"/>
<path d="M1244.74 380.049C1217.82 380.049 1192.45 369.176 1174.32 349.5C1160.34 334.485 1143.78 307.042 1143.78 260.96V149.12C1143.78 104.591 1161.9 77.149 1176.91 62.1334C1186.75 52.2957 1198.14 45.0468 1211.09 39.869C1223.51 35.209 1236.46 32.6201 1249.92 32.6201C1263.38 32.6201 1275.81 34.6912 1287.2 39.3512C1300.15 44.0112 1311.02 51.2601 1319.82 60.0623C1329.66 69.9001 1337.43 81.2912 1342.6 94.2357C1348.3 108.216 1350.89 123.231 1350.89 139.282V264.067C1350.89 281.153 1348.3 297.205 1342.09 312.738C1336.39 326.718 1328.11 339.145 1318.27 349.5C1308.43 359.338 1297.04 367.105 1284.09 372.282C1271.67 377.46 1258.21 380.049 1244.74 380.049ZM1250.44 75.0779C1233.87 75.0779 1217.82 81.2912 1206.43 92.6823C1193.48 105.627 1185.72 125.302 1185.72 149.12V261.478C1185.72 286.849 1192.97 307.042 1205.39 321.022C1215.75 331.896 1229.73 337.591 1244.74 337.591C1276.85 337.591 1309.98 312.22 1309.98 264.067V139.282C1309.98 94.7534 1279.95 75.0779 1250.44 75.0779Z" fill="#98999D"/>
<path d="M1413.02 377.978C1401.11 377.978 1392.83 366.587 1392.83 354.678V57.9911C1392.83 46.0822 1401.11 36.2444 1412.5 36.2444H1413.02C1424.41 36.2444 1433.73 46.5999 1433.73 58.5088V306.524C1433.73 321.54 1445.64 331.378 1460.66 331.378H1544.02C1555.93 331.378 1563.18 342.769 1568.36 354.678V355.195C1568.36 367.104 1556.45 378.495 1544.54 378.495H1413.02V377.978Z" fill="#98999D"/>
<path d="M1625.31 377.978C1613.4 377.978 1605.12 366.587 1605.12 354.678V57.9911C1605.12 46.0822 1613.4 36.2444 1625.31 36.2444H1625.83C1637.22 36.2444 1646.54 46.5999 1646.54 58.5088V306.524C1646.54 321.54 1658.97 331.378 1673.47 331.378H1756.83C1768.74 331.378 1775.99 342.769 1781.16 354.678V355.195C1781.16 367.104 1769.25 378.495 1757.35 378.495H1625.31V377.978Z" fill="#98999D"/>
<path d="M1843.3 375.907C1831.39 375.907 1822.59 366.069 1822.59 354.16V57.4733C1822.59 45.5644 1831.39 36.2444 1843.3 36.2444C1855.21 36.2444 1864.01 45.5644 1864.01 57.4733V354.16C1864.01 366.069 1855.21 375.907 1843.3 375.907Z" fill="#98999D"/>
<path d="M2016.75 383.673C1989.31 383.673 1964.46 372.8 1946.33 353.124C1932.35 338.109 1916.3 310.667 1916.3 264.584V153.262C1916.3 108.733 1934.43 81.2911 1949.44 66.2755C1959.28 56.4377 1970.67 48.671 1983.62 43.4933C1996.04 38.8333 2008.99 36.2444 2022.45 36.2444C2035.39 36.2444 2047.82 38.3155 2059.73 42.9755C2071.64 47.6355 2083.03 54.8844 2092.35 63.6866C2102.19 73.0066 2109.95 84.3977 2115.65 97.3422C2121.34 110.804 2123.93 126.855 2123.93 143.424C2123.93 155.333 2114.61 165.689 2102.7 165.689H2101.67C2090.8 165.689 2081.48 154.815 2081.48 142.907C2080.96 99.4133 2051.44 79.2199 2022.45 79.2199C2005.88 79.2199 1989.83 85.4333 1978.96 96.3066C1965.49 109.769 1957.73 128.927 1957.73 152.744V264.584C1957.73 290.991 1964.97 310.667 1977.4 324.129C1990.35 338.627 2007.95 340.698 2016.75 340.698C2047.82 340.698 2072.67 318.951 2079.4 285.813C2079.92 283.742 2079.92 281.153 2079.92 280.118C2079.92 265.62 2068.53 253.711 2054.03 253.711H2035.91C2024 253.711 2014.68 245.427 2014.68 233.518V231.964C2014.68 221.091 2024.52 212.289 2036.43 212.289H2102.19C2114.1 212.289 2122.9 221.609 2122.9 233.518V267.691C2122.9 285.296 2120.31 301.347 2114.1 315.844C2108.4 329.824 2100.63 342.251 2089.76 352.607C2079.4 362.962 2068.01 370.729 2055.59 375.389C2043.16 381.084 2029.7 383.673 2016.75 383.673Z" fill="#98999D"/>
<path d="M2270.98 380.049C2244.06 380.049 2218.69 369.176 2200.57 349.5C2186.59 334.485 2170.02 307.042 2170.02 260.96V149.12C2170.02 104.591 2188.14 77.149 2203.15 62.1334C2212.99 52.2957 2224.9 45.0468 2237.33 39.869C2249.75 35.209 2262.7 32.6201 2276.16 32.6201C2289.62 32.6201 2302.05 34.6912 2313.44 39.3512C2326.39 44.0112 2337.26 51.2601 2346.06 60.0623C2355.9 69.9001 2363.15 81.2912 2368.84 94.2357C2374.54 108.216 2376.61 123.231 2376.61 139.282V264.067C2376.61 281.153 2374.02 297.205 2368.33 312.738C2362.63 326.718 2354.86 339.145 2344.51 349.5C2334.67 359.338 2323.28 367.105 2310.33 372.282C2297.39 377.46 2283.93 380.049 2270.98 380.049ZM2276.16 75.0779C2259.59 75.0779 2243.02 81.2912 2232.15 92.6823C2219.21 105.627 2210.92 125.302 2210.92 149.12V261.478C2210.92 286.849 2218.17 307.042 2230.6 321.022C2240.95 331.896 2254.41 337.591 2269.95 337.591C2302.05 337.591 2335.19 312.22 2335.19 264.067V139.282C2335.19 94.7534 2305.67 75.0779 2276.16 75.0779Z" fill="#98999D"/>
</g>
<defs>
<clipPath id="clip0_26_40">
<rect width="3116" height="466" fill="white"/>
</clipPath>
</defs>
</svg>
