<svg width="1512" height="577" viewBox="0 0 1512 577" fill="none" xmlns="http://www.w3.org/2000/svg">
<g clip-path="url(#clip0_22_916)">
<path d="M585.45 382.164C573.291 382.164 562.684 382.164 551.301 382.164C551.301 319.031 551.301 256.415 551.301 193.023C551.301 193.023 575.878 193.023 578.207 193.023C581.57 193.023 583.122 193.023 583.898 196.904C584.416 200.526 583.381 204.407 583.898 208.03C584.416 212.428 587.261 210.359 589.331 208.289C596.833 200.268 606.923 194.834 617.53 191.988C628.137 189.142 639.52 188.883 650.385 190.435C664.356 192.505 678.326 197.68 689.191 206.995C704.714 220.45 712.216 240.632 712.992 260.813C714.027 296.003 713.51 331.45 713.251 366.64C713.251 370.521 713.251 374.402 713.251 378.542C713.251 380.87 713.768 381.129 711.699 382.164C710.146 382.94 707.818 382.682 706.007 382.682C701.092 383.199 681.689 385.787 679.619 380.094C679.102 379.059 679.102 377.766 679.102 376.731C679.102 358.36 679.102 339.73 679.36 321.359C679.36 312.045 679.619 302.73 679.36 293.415C679.102 284.1 677.808 274.786 677.808 265.471C675.221 242.443 660.734 222.519 636.415 221.743C620.893 221.226 604.595 227.177 595.799 240.373C590.107 248.911 587.779 259.52 587.003 269.611C584.416 301.695 585.968 334.297 585.709 366.381C585.45 371.297 585.45 375.954 585.45 382.164Z" fill="#98999D"/>
<path d="M724.375 224.072C724.375 213.205 724.375 203.631 724.375 192.764C732.395 192.764 740.415 192.764 749.729 192.764C749.729 172.323 749.729 152.659 749.729 132.477C761.888 129.631 772.753 131.442 784.913 131.183C784.913 151.882 784.913 171.547 784.913 191.988C793.967 191.988 801.987 191.988 810.783 191.988C812.335 203.114 812.077 212.946 811.042 224.072C802.505 224.072 794.485 224.072 785.43 224.072C785.43 277.114 785.43 328.863 785.43 381.388C773.788 383.717 763.181 382.423 751.022 382.423C751.022 329.898 751.022 277.632 751.022 224.331C741.191 224.072 733.171 224.072 724.375 224.072Z" fill="#98999D"/>
<path d="M1111.4 449.696C1110.62 437.794 1109.85 427.185 1111.66 415.542C1120.45 415.024 1128.99 415.024 1137.53 414.248C1161.85 412.178 1171.42 402.605 1171.42 378.024C1171.68 320.842 1171.68 263.401 1171.68 206.218C1171.68 202.078 1171.68 197.68 1171.68 192.764C1183.32 192.764 1193.93 192.764 1205.05 192.764C1208.15 195.61 1206.6 199.75 1206.6 203.372C1206.6 259.261 1206.86 315.408 1206.6 371.297C1206.6 380.611 1205.83 390.185 1203.76 399.5C1197.29 430.031 1177.37 446.85 1144.77 449.178C1134.42 450.472 1123.56 449.696 1111.4 449.696Z" fill="#98999D"/>
<path d="M1054.74 193.282C1054.74 193.282 1054.74 211.652 1054.74 212.946C1057.33 210.617 1059.14 207.254 1061.73 204.666C1071.3 195.351 1084.75 189.142 1098.2 189.4C1098.2 201.044 1098.2 212.429 1098.2 224.331C1098.2 225.624 1082.68 228.988 1081.13 229.764C1074.4 232.352 1067.94 236.492 1063.8 242.702C1058.36 250.464 1057.07 259.779 1057.07 269.093C1056.81 279.443 1057.07 289.793 1057.07 300.143C1057.07 317.996 1057.07 335.849 1057.07 353.702C1057.07 358.101 1057.07 362.241 1057.07 366.64C1057.07 371.556 1057.33 376.731 1057.07 381.906C1046.72 381.906 1034.82 381.906 1023.18 381.906C1023.18 319.29 1023.18 256.674 1023.18 193.023C1032.75 193.282 1042.84 193.282 1054.74 193.282Z" fill="#98999D"/>
<path d="M1511.87 189.659C1511.87 201.82 1511.87 212.946 1511.87 224.33C1507.22 225.624 1502.82 226.659 1498.16 227.953C1482.38 232.093 1473.33 242.184 1471 258.226C1466.34 292.639 1469.96 327.052 1468.67 361.464C1468.41 367.933 1468.67 374.402 1468.67 381.646C1457.81 383.975 1447.2 382.423 1435.82 382.681C1435.82 319.548 1435.82 256.932 1435.82 193.281C1445.13 190.952 1455.22 193.022 1466.08 191.987C1466.6 198.456 1467.12 204.148 1467.64 211.652C1479.8 198.197 1492.99 189.141 1511.87 189.659Z" fill="#98999D"/>
<path d="M1143.22 382.164C1132.1 382.164 1121.49 382.164 1110.36 382.164C1110.36 319.031 1110.36 256.415 1110.36 193.022C1121.23 193.022 1131.84 193.022 1143.22 193.022C1143.22 255.897 1143.22 318.772 1143.22 382.164Z" fill="#98999D"/>
<path d="M684.276 453.06C680.137 455.13 676.774 454.353 672.634 453.577C672.634 439.346 672.634 424.857 672.634 409.849C676.256 409.849 679.878 409.849 683.759 409.849C688.674 416.059 693.848 422.269 699.281 429.255C703.679 423.304 699.54 416.318 702.644 410.367C706.007 408.556 709.629 409.849 713.768 409.849C713.768 424.598 713.768 438.57 713.768 453.836C696.435 457.458 695.918 439.346 685.052 433.136C685.052 439.605 684.793 446.074 684.276 453.06Z" fill="#98999D"/>
<path d="M1109.85 170.512C1109.85 156.798 1109.85 144.896 1109.85 132.218C1120.97 129.63 1131.84 131.442 1143.48 131.183C1143.48 144.638 1143.48 156.798 1143.48 170.253C1132.61 171.806 1121.75 171.029 1109.85 170.512Z" fill="#98999D"/>
<path d="M1206.6 131.7C1206.6 144.896 1206.6 157.057 1206.6 169.736C1195.74 172.582 1184.61 170.253 1172.71 171.288C1172.71 158.092 1172.71 145.672 1172.71 132.218C1183.58 129.889 1194.44 131.183 1206.6 131.7Z" fill="#98999D"/>
<path d="M791.639 454.353C785.171 454.353 781.032 454.353 777.151 454.353C773.012 449.179 769.39 444.262 765.51 439.605C759.301 443.486 763.181 449.437 760.594 453.318C757.49 454.871 754.127 454.871 749.729 454.353C749.729 440.123 749.729 425.633 749.729 410.885C752.833 408.556 756.455 409.591 761.112 410.367C761.629 414.766 762.146 419.164 762.923 425.115C768.097 419.423 771.977 415.024 776.375 410.108C779.997 410.108 784.136 410.108 790.604 410.108C784.913 416.836 779.997 422.787 775.082 429.255C779.997 437.018 785.171 444.78 791.639 454.353Z" fill="#98999D"/>
<path d="M920.733 453.578C916.335 455.389 912.972 455.13 908.574 453.836C903.141 440.123 897.19 425.633 891.24 410.885C895.897 408.039 900.036 409.074 904.693 410.109C907.539 417.871 910.643 425.633 913.748 434.172C920.215 427.186 919.957 417.353 924.872 409.85C929.011 408.815 933.151 408.556 938.066 410.367C932.116 425.374 926.424 439.864 920.733 453.578Z" fill="#98999D"/>
<path d="M1057.07 445.039C1045.69 457.2 1031.98 458.752 1021.89 449.179C1012.57 440.381 1012.57 424.598 1021.63 415.542C1031.46 405.71 1045.43 406.745 1057.07 418.129C1054.48 420.199 1051.9 422.528 1049.31 424.857C1047.24 423.822 1045.17 422.787 1043.1 422.01C1039.74 420.458 1035.86 420.458 1032.75 422.528C1030.94 423.563 1029.65 425.374 1029.13 427.703C1027.84 432.36 1027.84 437.276 1031.98 440.899C1037.67 445.815 1043.1 444.004 1048.02 439.605C1050.6 440.899 1053.45 442.451 1057.07 445.039Z" fill="#98999D"/>
<path d="M531.898 448.661C535.52 436.241 544.058 445.556 550.525 441.416C550.525 431.584 550.525 420.976 550.525 409.85C555.182 409.85 558.804 409.85 563.202 409.85C563.202 418.129 563.202 426.409 563.202 434.43C563.46 442.451 562.684 449.696 553.63 453.577C545.092 457.2 538.366 454.612 531.898 448.661Z" fill="#98999D"/>
<path d="M969.887 409.85C974.026 409.85 977.389 409.85 981.528 409.85C981.528 424.598 981.528 438.829 981.528 453.319C977.648 454.871 974.026 455.13 969.887 453.577C969.887 439.346 969.887 425.374 969.887 409.85Z" fill="#98999D"/>
<path d="M1033.27 405.71C1035.6 402.087 1037.41 399.5 1039.22 397.171C1043.88 395.877 1047.24 396.912 1050.09 400.017C1045.69 404.157 1041.81 408.297 1033.27 405.71Z" fill="#1C1C1C"/>
<path d="M426.605 435.724C380.814 389.926 334.247 343.352 288.974 297.813C242.407 344.387 195.581 390.961 149.273 437.017C195.323 483.074 241.631 529.648 288.198 576.48M287.422 526.025C258.447 497.046 227.661 466.514 197.133 436.241C227.143 406.227 257.929 375.695 288.456 345.164C318.466 375.178 348.735 405.709 378.745 435.724C348.217 465.997 317.432 496.27 287.422 526.025Z" fill="#98999D"/>
<path d="M247.84 378.541C242.666 382.164 240.079 383.199 238.526 379.576C241.113 374.402 243.442 378.541 247.84 378.541Z" fill="#98999D"/>
<path d="M217.83 401.052C219.641 395.877 222.228 398.465 224.815 399.241C223.004 403.381 220.676 404.157 217.83 401.052Z" fill="#98999D"/>
<path d="M288.974 0C276.297 11.9022 234.387 52.0074 234.387 52.0074C232.576 53.5599 213.691 72.7069 213.691 72.7069C211.88 74.2594 155.482 129.63 149.014 137.393C196.099 184.484 242.407 230.799 287.68 275.82C333.989 229.764 380.814 182.932 426.346 137.652C380.556 91.8539 333.989 45.2801 288.974 0ZM287.163 227.435C258.705 198.715 228.178 168.183 197.91 137.652C227.402 108.672 258.188 78.1405 289.491 47.35C319.242 77.1055 349.511 107.12 379.262 136.875C348.476 167.148 317.69 197.421 287.163 227.435Z" fill="#98999D"/>
<path d="M0 285.911C47.3431 333.261 93.6514 379.835 138.925 425.115C184.716 379.318 231.283 332.744 276.556 287.464C230.765 241.925 184.457 195.351 137.373 148.26M49.6715 286.688C78.6465 257.967 109.174 227.694 138.925 197.939C168.417 227.435 198.686 257.708 229.73 288.757C199.721 318.254 169.711 348.268 139.701 377.765C109.95 347.751 79.6813 316.961 49.6715 286.688Z" fill="#98999D"/>
<path d="M1332.59 187.33C1278.78 180.862 1230.92 220.191 1223.94 277.114C1217.73 326.275 1257.31 378.542 1303.88 385.786C1361.83 394.843 1403.74 357.583 1411.24 321.359C1399.08 321.359 1387.18 321.359 1375.28 321.359C1357.43 347.234 1332.59 357.842 1306.72 351.115C1281.63 344.646 1264.03 326.534 1261.45 300.66C1313.45 300.66 1365.45 300.66 1418.22 300.66C1425.21 243.736 1386.66 193.799 1332.59 187.33ZM1367.78 269.611C1332.59 269.611 1297.41 269.611 1261.97 269.611C1269.21 238.561 1292.49 220.449 1321.98 220.449C1350.96 220.449 1373.21 238.561 1380.45 269.611C1376.05 269.611 1371.92 269.611 1367.78 269.611Z" fill="#98999D"/>
<path d="M531.381 260.555C525.689 238.561 513.013 218.379 494.386 205.184C481.192 195.61 465.411 189.659 449.371 187.589C399.182 181.12 349.252 218.638 341.232 269.352C332.695 322.912 367.62 376.213 417.55 385.786C430.486 388.115 443.938 388.115 456.874 385.786C469.292 383.458 481.192 378.8 491.54 371.814C501.63 365.346 510.684 356.807 517.411 346.716C519.739 343.094 522.068 339.213 523.878 335.073C524.913 333.003 525.689 330.933 526.207 328.863C526.724 327.052 529.57 323.429 526.724 322.394C525.948 322.136 524.913 322.136 524.137 322.136C518.187 322.394 512.495 322.653 506.545 322.136C503.182 321.877 499.819 321.359 496.456 321.877C493.869 322.136 491.023 323.429 489.212 325.499C487.142 327.828 485.59 330.674 483.52 333.003C477.311 340.248 469.033 345.422 460.237 349.045C449.113 353.444 436.695 354.737 424.794 352.15C412.376 349.562 401.511 344.387 392.973 334.814C385.471 326.275 380.556 315.667 377.451 304.8C376.416 301.695 379.003 300.919 381.849 300.919C388.834 300.919 395.819 300.919 402.546 300.919C443.938 300.919 485.331 301.177 526.983 301.177C528.794 301.177 531.64 301.695 533.192 301.177C534.744 300.66 534.485 300.401 534.744 298.331C535.52 285.394 534.485 272.716 531.381 260.555ZM378.745 269.611C384.436 238.561 411.6 218.897 442.645 220.708C470.068 222.261 493.61 243.736 495.938 269.611C457.132 269.611 418.327 269.611 378.745 269.611Z" fill="#98999D"/>
<path d="M1005.59 300.66C1011.54 243.737 977.907 197.68 923.838 188.107C874.166 179.051 824.753 214.24 812.853 267.8C804.316 306.353 822.684 347.751 854.763 370.262C889.171 394.325 937.031 391.22 969.887 365.863C976.872 360.43 983.081 353.703 987.738 346.199C990.066 342.318 992.136 338.178 993.688 334.038C994.464 331.968 995.499 329.639 996.275 327.569C996.792 325.758 998.345 323.171 998.345 321.36C992.653 320.842 986.703 321.618 981.011 321.618C975.32 321.618 969.37 321.618 963.678 321.618C960.832 321.618 957.469 329.122 955.917 331.451C932.375 361.982 882.445 358.877 859.679 329.122C856.315 324.723 853.987 319.548 851.659 314.374C851.141 313.08 847.261 300.919 848.037 300.919C900.813 300.66 953.33 300.66 1005.59 300.66ZM911.678 220.708C936.514 221.226 963.161 238.562 967.559 269.611C928.494 269.611 889.43 269.611 849.589 269.611C856.057 238.562 881.41 220.191 911.678 220.708Z" fill="#98999D"/>
<path d="M840.276 409.073C826.305 409.073 816.733 418.388 816.733 432.101C816.733 445.039 827.858 455.647 840.534 455.388C853.47 455.13 864.335 444.262 864.335 431.584C864.594 418.647 854.246 409.073 840.276 409.073ZM850.624 435.465C849.33 440.64 845.708 443.227 840.534 443.227C834.584 443.227 830.703 440.122 829.927 434.43C828.634 426.409 832.514 421.493 840.793 419.682C849.589 422.269 852.435 427.703 850.624 435.465Z" fill="#98999D"/>
<path d="M622.963 409.332C618.824 409.332 614.943 409.332 610.286 409.332C604.077 424.857 598.127 438.57 592.436 452.542C602.266 456.682 606.406 453.318 609.51 445.556C614.684 445.556 619.082 445.556 624.256 445.556C626.843 455.906 632.794 455.647 641.072 452.025C634.863 437.276 628.913 424.857 622.963 409.332ZM613.391 436.241C611.062 432.101 614.943 429.514 616.236 424.598C618.306 429.514 619.6 432.101 620.376 434.171C618.565 437.794 616.236 436.759 613.391 436.241Z" fill="#98999D"/>
</g>
<defs>
<clipPath id="clip0_22_916">
<rect width="1511.88" height="576.739" fill="white"/>
</clipPath>
</defs>
</svg>
