<svg width="1538" height="461" viewBox="0 0 1538 461" fill="none" xmlns="http://www.w3.org/2000/svg">
<path d="M1537.59 241.991C1535.25 238.478 1534.47 241.796 1534.08 242.967C1520.61 283.559 1475.34 296.049 1435.15 284.144C1422.85 280.632 1411.54 275.167 1401 267.751C1397.68 265.41 1396.12 263.068 1397.49 258.774C1401 248.041 1404.32 237.307 1407.83 226.574C1412.12 226.769 1413.68 230.087 1416.02 232.038C1430.66 244.333 1446.85 252.529 1466.56 251.554C1480.22 250.968 1491.54 245.894 1497 232.624C1502.27 219.744 1497.39 208.62 1488.22 198.862C1481.59 191.641 1473.2 186.567 1465 181.103C1450.76 171.931 1435.93 163.93 1422.85 153.196C1399.05 134.071 1390.85 109.286 1399.83 80.4037C1408.41 52.4967 1430.27 39.2262 1457.98 35.5183C1481.2 32.591 1503.25 37.4698 1523.34 49.7645C1527.83 52.4967 1529.98 54.8385 1527.25 60.498C1522.95 69.4751 1519.44 78.8425 1515.15 88.7953C1500.12 77.8667 1484.32 71.0363 1465.78 72.0121C1460.9 72.2072 1456.03 73.183 1451.54 74.9394C1433.59 81.7698 1428.71 98.9433 1440.61 114.165C1446.66 121.971 1454.85 127.241 1463.05 132.51C1469.88 136.803 1476.9 141.097 1483.93 145C1505.98 157.685 1525.69 172.712 1534.08 198.277C1534.27 199.057 1535.44 199.643 1536.03 200.228C1536.42 199.838 1536.81 199.252 1537.2 198.862C1537.59 213.304 1537.59 227.745 1537.59 241.991Z" fill="#01B7C3"/>
<path d="M195.125 0C213.467 18.9299 231.614 37.8599 250.151 56.3995C255.614 61.8638 256.59 64.7911 250.346 70.6457C212.687 107.335 175.223 144.219 137.759 181.493C132.88 186.372 130.344 186.177 125.661 181.298C108.88 163.734 91.7089 146.365 74.3428 129.192C69.4646 124.313 69.6598 121.581 74.5379 116.897C113.173 79.2325 151.612 41.3726 190.052 3.70793C191.223 2.537 192.198 1.17092 193.174 0C193.759 0 194.54 0 195.125 0Z" fill="#F17720"/>
<path d="M0 191.251C19.5125 172.126 39.0251 153.196 58.3425 133.876C62.8304 129.192 65.367 129.582 69.6598 134.071C107.124 172.321 144.978 210.376 182.832 248.236C187.32 252.725 186.735 254.871 182.637 258.969C164.881 276.143 147.125 293.317 129.953 310.88C125.075 315.954 122.539 315.369 118.051 310.685C81.1721 273.216 44.2935 236.332 7.21964 199.252C5.07326 196.911 3.51226 193.788 0 193.203C0 192.617 0 191.837 0 191.251Z" fill="#F27820"/>
<path d="M1473.2 460.564C1476.32 458.027 1473 457.636 1471.83 456.856C1457.78 447.098 1457.39 434.413 1471.24 424.265C1474.17 422.118 1477.29 420.557 1480.42 418.606C1471.05 409.043 1470.85 408.653 1480.03 398.505C1482.76 395.577 1481 395.187 1479.25 393.431C1468.12 381.917 1466.56 371.964 1473.98 360.45C1481.39 348.936 1495.83 344.642 1509.1 349.716C1521.59 354.4 1522.37 354.205 1529.2 343.667C1532.32 344.642 1533.1 347.765 1534.66 350.107C1536.03 352.058 1537.2 351.473 1537.39 349.131C1537.39 350.497 1537.39 351.668 1537.39 353.034C1537 352.253 1537.2 350.302 1536.42 351.082C1532.32 355.181 1528.22 358.693 1521.78 358.108C1518.86 357.913 1520.22 360.84 1520.61 362.596C1523.73 383.673 1513.59 396.748 1493.1 397.919C1488.61 398.114 1483.93 398.505 1483.34 403.774C1482.95 408.653 1488.03 409.433 1491.54 410.604C1499.54 412.946 1507.93 414.312 1515.93 417.044C1529.78 421.728 1533.1 433.437 1524.32 445.342C1520.61 450.416 1515.34 453.733 1509.88 456.661C1508.71 457.246 1504.61 457.636 1508.32 460.564C1496.61 460.564 1484.9 460.564 1473.2 460.564ZM1494.07 455.49C1503.05 455.099 1511.44 451.977 1516.32 442.61C1518.27 438.706 1519.05 434.608 1516.32 430.705C1511.64 424.07 1488.03 419.386 1481.2 423.875C1474.37 428.363 1470.66 434.413 1472.61 442.805C1474.37 450.611 1482.37 455.49 1494.07 455.49ZM1510.66 372.94C1510.47 371.769 1510.47 369.232 1509.88 366.695C1507.73 357.718 1501.1 352.058 1493.49 353.229C1484.32 354.595 1481.78 361.425 1481 369.232C1480.81 371.769 1480.81 374.501 1481.39 377.038C1483.15 386.991 1490.17 393.236 1498.37 392.65C1505.78 391.87 1510.47 385.039 1510.66 372.94Z" fill="#E5711E"/>
<path d="M899.528 460.563C901.674 456.075 896.406 456.465 895.235 454.123C893.479 450.806 893.284 448.073 896.015 445.341C898.942 442.609 900.698 444.17 903.235 446.512C913.772 455.88 923.918 453.343 928.601 439.877C933.48 426.216 933.48 411.775 934.26 397.528C934.845 383.868 934.65 370.207 934.65 356.741C934.65 351.862 935.626 348.35 941.48 348.545C947.724 348.74 946.358 353.229 946.358 356.936C946.358 375.866 945.382 394.601 942.65 413.141C940.114 430.705 937.382 448.073 919.821 458.026C919.626 458.221 919.431 458.612 919.431 458.807C918.845 460.368 920.211 460.173 920.796 460.563C913.772 460.563 906.747 460.563 899.528 460.563Z" fill="#E8731E"/>
<path d="M1319.05 202.57C1319.05 199.447 1319.05 196.325 1319.05 193.202C1319.05 144.999 1319.24 96.9916 1318.85 48.7886C1318.85 40.9824 1320.8 38.2502 1328.61 39.226C1337.19 40.3969 1348.32 35.7132 1353.98 41.3727C1359.63 47.0322 1355.73 58.156 1355.73 66.7427C1356.12 136.608 1356.12 206.473 1356.71 276.533C1356.71 284.535 1354.56 286.291 1346.56 287.072C1333.1 288.242 1325.1 283.559 1317.29 272.435C1284.12 225.013 1249.78 178.371 1215.83 131.534C1214.07 128.997 1212.9 125.679 1209.39 124.313C1207.05 126.85 1208.22 129.973 1208.22 132.51C1208.02 180.908 1207.83 229.501 1208.02 277.899C1208.02 284.73 1206.85 288.047 1199.05 287.267C1190.46 286.291 1179.34 290.779 1173.68 285.51C1168.41 280.631 1172.12 269.508 1172.12 261.116C1171.92 190.47 1171.92 120.02 1171.53 49.374C1171.53 40.7872 1173.87 39.0309 1182.26 38.2502C1194.95 37.0793 1201.97 41.763 1209 51.911C1244.51 102.456 1280.8 152.415 1316.9 202.57C1317.68 202.765 1318.46 202.765 1319.05 202.57Z" fill="#01B8C4"/>
<path d="M542.448 217.206C542.448 232.428 542.448 247.845 542.448 263.067C542.448 266.775 542.253 269.703 537.961 271.654C500.301 288.437 461.471 295.073 421.276 283.559C375.616 270.483 342.64 229.306 337.957 179.737C333.859 136.412 343.811 97.7719 376.592 66.9376C413.666 32.0051 473.569 25.9553 518.643 52.8865C536.009 63.4248 536.009 63.4249 524.887 79.4275C514.545 94.064 514.545 94.064 499.131 85.4772C471.618 70.0601 443.325 67.5231 415.812 84.5015C385.568 103.236 373.86 132.509 375.616 167.052C377.763 210.571 401.958 241.405 439.032 250.773C460.105 256.042 480.203 252.139 500.301 245.699C503.423 244.723 504.984 242.967 504.984 239.259C504.789 227.94 504.594 216.426 504.789 205.107C504.789 200.423 502.838 198.862 498.35 199.057C488.594 199.252 478.838 198.862 469.081 198.862C464.984 198.862 462.252 198.276 462.447 193.202C462.837 184.811 462.642 176.224 462.447 167.832C462.447 163.734 463.618 161.978 467.911 161.978C490.74 162.368 513.375 162.758 536.204 162.953C542.058 162.953 542.058 166.271 542.058 170.564C541.863 186.177 542.058 201.789 542.058 217.401C542.058 217.206 542.253 217.206 542.448 217.206Z" fill="#01B7C2"/>
<path d="M987.529 161.392C987.529 122.752 987.724 83.9161 987.334 45.2756C987.334 38.4452 989.09 36.6888 995.92 36.6888C1039.43 36.884 1083.14 36.884 1126.65 36.4937C1133.48 36.4937 1136.8 37.6646 1136.02 45.4707C1135.24 53.472 1135.43 61.6685 1135.82 69.865C1136.21 75.9147 1134.07 77.476 1128.21 77.476C1097.58 77.2808 1067.14 77.8663 1036.51 77.6711C1029.29 77.6711 1026.16 79.0372 1026.55 87.2337C1027.33 100.894 1027.14 114.555 1026.55 128.216C1026.36 135.437 1028.31 137.779 1035.73 137.779C1056.21 137.388 1076.7 137.974 1097.19 137.779C1103.63 137.583 1105.78 139.73 1105.39 146.17C1104.8 155.928 1108.9 168.223 1103.43 174.467C1098.17 180.517 1085.68 176.224 1076.51 176.614C1062.46 177.005 1048.6 177.2 1034.55 177.005C1028.51 177.005 1025.97 178.175 1026.16 185.006C1026.55 203.545 1026.55 222.085 1026.16 240.625C1025.97 247.26 1028.31 248.626 1034.55 248.626C1065.38 248.236 1096.41 248.431 1127.24 247.845C1133.87 247.65 1136.61 249.211 1136.02 256.237C1135.43 264.238 1135.63 272.435 1136.02 280.631C1136.21 285.9 1134.26 287.071 1129.39 287.071C1084.9 287.071 1040.21 287.071 995.725 287.462C988.31 287.462 988.115 283.754 988.115 278.485C988.115 239.454 988.115 200.423 988.115 161.392C987.724 161.392 987.529 161.392 987.529 161.392Z" fill="#01B7C3"/>
<path d="M755.525 284.535C735.818 283.949 741.671 288.047 733.866 269.508C726.842 252.334 720.208 235.161 713.768 217.792C712.012 213.108 709.866 210.571 704.207 210.571C677.28 210.962 650.353 210.766 623.23 210.571C617.767 210.571 615.23 212.523 613.474 217.402C606.254 236.917 598.449 256.042 591.425 275.558C589.083 281.802 586.352 285.51 579.132 284.339C571.717 282.973 561.18 287.852 557.473 281.998C554.936 278.095 561.376 268.532 563.912 261.702C591.23 190.275 618.938 118.849 645.865 47.2274C649.962 36.2988 657.182 38.4455 664.792 37.6648C673.182 36.6891 677.28 39.4212 680.597 47.6177C709.281 122.362 738.354 196.91 767.428 271.654C772.501 284.535 772.501 284.535 758.257 284.535C757.477 284.535 756.501 284.535 755.525 284.535ZM661.28 91.7225C649.962 121.971 640.011 149.293 629.669 176.419C627.718 181.688 629.279 182.664 634.157 182.664C653.084 182.469 671.817 182.469 690.744 182.469C694.841 182.469 696.793 181.688 694.841 177.005C683.914 149.683 673.182 122.167 661.28 91.7225Z" fill="#01B6C2"/>
<path d="M129.953 444.951C128.783 443.78 127.417 442.61 126.051 441.243C108.294 423.289 90.538 405.14 72.5865 387.381C68.684 383.478 68.8791 381.331 72.7816 377.428C111.612 339.568 150.246 301.513 188.686 263.263C192.393 259.555 194.54 259.945 198.052 263.458C216.004 281.803 233.955 300.147 252.102 318.296C255.614 321.809 255.809 323.761 252.102 327.469C213.272 365.329 174.637 403.384 136.002 441.439C134.246 442.61 133.075 444.951 129.953 444.951Z" fill="#F17720"/>
<path d="M261.663 316.345C258.541 316.15 257.37 314.003 255.809 312.442C218.15 274.387 180.491 236.137 142.637 198.277C138.149 193.593 138.149 191.056 142.832 186.763C160.588 169.784 178.345 152.415 195.711 134.852C199.808 130.753 201.955 129.973 206.443 134.656C244.297 173.102 282.346 211.352 320.396 249.602C324.493 253.7 323.908 255.847 320.201 259.555C302.054 277.119 283.907 295.073 265.956 312.832C264.2 314.003 262.834 315.369 261.663 316.345Z" fill="#F27820"/>
<path d="M796.306 162.563C796.306 124.118 796.502 85.8675 796.111 47.4222C796.111 40.787 797.672 37.8597 804.697 38.6403C814.843 39.8112 828.112 34.1517 834.551 40.787C840.6 47.0319 836.307 60.1072 836.307 70.0601C836.502 126.069 836.892 181.883 836.697 237.892C836.697 245.503 838.649 247.65 846.454 247.65C876.698 247.26 906.942 247.65 937.187 247.26C944.016 247.26 947.529 248.236 946.553 256.237C945.382 266.19 950.651 279.46 944.407 285.12C938.748 289.999 925.87 286.681 916.113 286.876C879.43 287.071 842.746 286.876 805.868 287.266C799.233 287.266 796.892 285.9 797.087 278.875C797.477 240.234 797.282 201.594 797.282 162.758C796.892 162.563 796.697 162.563 796.306 162.563Z" fill="#01B6C2"/>
<path d="M503.814 406.896C498.35 412.555 492.106 414.507 485.472 415.483C480.594 416.263 478.447 413.141 477.667 408.847C476.301 402.407 476.886 395.967 477.276 389.332C477.667 382.111 478.252 375.086 478.447 367.865C478.642 364.157 478.057 360.449 473.764 359.083C469.862 357.717 466.74 359.473 464.203 362.206C454.837 371.963 450.544 384.063 447.227 396.748C446.252 400.846 445.276 404.944 445.081 409.238C444.886 414.312 441.373 413.921 438.446 414.117C433.373 414.702 434.544 410.994 434.739 408.262C435.325 396.162 435.91 384.258 436.3 372.158C437.081 355.961 437.081 355.961 421.861 354.204C428.3 349.716 434.739 348.35 441.373 347.959C445.861 347.764 446.642 351.277 447.032 355.375C447.813 362.791 443.715 370.012 445.276 377.428C449.959 377.818 449.569 373.915 450.739 371.573C454.642 363.962 458.349 356.351 465.374 351.082C476.106 342.885 487.423 346.984 488.594 360.449C489.374 370.012 488.008 379.965 487.423 389.527C486.642 408.262 486.642 408.262 503.814 406.896Z" fill="#E5711E"/>
<path d="M1325.88 355.18C1332.51 350.497 1338.17 349.716 1343.83 348.545C1349.68 347.374 1352.02 350.301 1352.22 355.961C1352.61 362.596 1348.32 369.231 1351.05 376.062C1355.34 376.842 1355.15 372.939 1356.51 370.597C1360.41 363.182 1364.32 355.571 1371.73 350.692C1382.07 343.666 1392.22 347.96 1393.78 360.449C1395.15 371.183 1393 381.721 1392.41 392.455C1391.63 407.482 1393.19 408.848 1407.83 406.506C1404.12 411.775 1393.98 416.459 1388.71 415.678C1383.63 414.897 1383.05 410.604 1382.46 406.896C1381.29 398.895 1382.07 390.698 1383.05 382.697C1383.63 378.208 1383.63 373.72 1383.83 369.036C1384.02 364.938 1383.63 360.84 1379.15 359.278C1374.85 357.717 1371.54 360.059 1368.8 363.182C1358.07 375.281 1353.58 390.113 1350.66 405.53C1350.27 407.091 1350.46 408.848 1350.27 410.409C1349.68 415.288 1345.58 414.312 1342.85 414.507C1338.75 414.897 1339.73 411.385 1339.93 409.043C1340.51 396.163 1341.1 383.087 1341.68 370.207C1341.88 355.571 1341.68 355.571 1325.88 355.18Z" fill="#E4711E"/>
<path d="M788.306 354.009C795.136 350.496 803.331 345.227 809.77 350.106C815.429 354.399 811.136 363.572 811.331 370.402C811.331 372.939 808.209 375.476 811.136 378.208C815.429 377.623 815.234 373.524 816.6 370.987C819.917 364.547 823.234 358.302 828.502 353.424C833.38 348.935 839.039 345.422 846.064 348.545C852.698 351.472 854.259 357.522 854.454 363.767C854.649 368.255 853.869 372.744 853.673 377.428C853.283 381.916 852.893 386.405 852.698 391.088C852.112 408.067 852.112 408.067 869.088 406.896C863.625 412.555 857.381 414.702 850.551 415.483C844.502 416.263 842.941 411.579 842.551 406.701C841.771 395.577 842.746 384.648 843.527 373.72C843.917 368.255 845.478 361.815 838.844 359.278C832.405 356.936 828.892 362.401 825.575 366.889C816.795 378.989 812.502 392.845 810.356 407.481C809.77 412.165 808.404 414.507 803.526 414.507C797.087 414.312 800.014 409.433 800.014 406.701C800.404 393.43 800.99 380.16 801.77 366.889C802.16 358.888 801.185 352.838 790.843 355.961C790.258 356.156 789.282 355.375 788.502 354.985C788.502 354.79 788.502 354.204 788.306 354.009Z" fill="#E8731E"/>
<path d="M578.547 402.993C582.84 403.383 586.937 403.383 591.23 403.969C607.035 406.115 607.035 406.115 615.035 394.406C618.938 409.238 611.328 418.02 596.889 415.288C590.84 414.117 584.791 412.75 578.742 411.58C572.498 410.213 566.839 413.336 558.059 414.897C571.912 394.991 586.937 378.989 601.181 362.401C580.108 356.351 573.473 357.717 566.449 370.012C561.376 357.327 566.839 348.935 579.913 349.13C590.449 349.325 600.986 352.058 611.913 349.716C617.962 348.35 614.84 353.619 613.279 355.766C604.498 369.036 593.962 380.94 583.425 392.845C581.083 395.577 578.742 398.114 576.4 400.846C576.01 401.627 575.62 402.212 575.23 402.993C576.4 402.993 577.376 402.993 578.547 402.993Z" fill="#E4711E"/>
<path d="M325.469 314.784C334.445 309.514 342.055 308.734 349.47 309.514C353.958 309.905 354.933 313.808 354.933 317.516C354.153 347.96 353.177 378.404 352.592 408.848C352.397 414.898 347.909 414.312 344.396 414.507C338.738 414.898 340.884 410.214 340.884 407.482C341.47 382.502 342.25 357.522 342.835 332.738C343.031 317.125 342.835 317.125 325.469 314.784Z" fill="#E5711E"/>
<path d="M728.403 402.017C724.11 409.823 717.281 414.507 708.305 415.873C698.939 417.434 690.939 414.312 685.28 406.506C670.841 386.795 684.305 352.643 708.305 348.155C712.988 347.374 717.476 347.764 721.573 349.716C731.72 354.205 732.891 365.523 723.72 372.354C715.915 378.208 706.549 379.965 696.988 380.746C690.939 381.136 690.158 384.063 690.939 388.942C693.28 406.116 708.11 413.141 722.159 403.383C723.72 402.408 725.281 401.237 726.842 400.066C727.232 400.651 727.818 401.237 728.403 402.017ZM696.597 376.647C702.061 375.671 708.11 374.891 713.183 370.988C717.671 367.67 719.232 363.377 716.11 358.303C713.183 353.424 708.695 352.253 703.427 354.4C695.232 357.912 692.89 365.328 690.939 372.939C690.158 377.233 693.28 376.647 696.597 376.647Z" fill="#E4711E"/>
<path d="M1065.58 400.456C1057.19 418.605 1033.58 421.533 1022.46 406.311C1008.41 386.795 1021.29 353.424 1044.9 348.155C1049.19 347.179 1053.29 347.569 1057.38 348.935C1062.46 350.497 1065.97 353.619 1067.14 358.888C1068.31 364.743 1065.58 369.036 1061.09 372.354C1053.48 377.818 1044.51 379.965 1035.34 380.355C1027.92 380.746 1027.53 384.453 1028.7 389.918C1031.82 406.701 1046.07 412.556 1059.92 403.188C1061.29 402.017 1062.46 400.261 1065.58 400.456ZM1032.99 376.647C1037.87 376.647 1047.43 373.72 1050.75 371.183C1055.04 367.865 1056.99 363.572 1054.07 358.498C1051.14 353.424 1046.85 352.448 1041.58 354.4C1035.53 356.546 1028.51 367.865 1028.7 373.915C1028.7 377.623 1031.24 376.452 1032.99 376.647Z" fill="#E4711E"/>
<path d="M1124.31 355.375C1130.75 350.106 1136.6 349.521 1142.07 348.545C1147.53 347.569 1149.87 350.301 1149.68 355.57C1149.48 359.473 1148.9 363.377 1149.29 367.28C1149.68 370.988 1145.19 374.305 1149.48 379.184C1152.21 373.329 1154.36 367.865 1157.09 362.596C1160.41 356.156 1164.51 350.106 1171.92 347.959C1178.75 346.008 1184.61 350.496 1183.24 356.741C1182.46 359.669 1181.29 362.596 1177.19 360.84C1168.22 356.741 1163.73 362.401 1160.02 368.841C1154.17 378.794 1151.63 389.917 1149.29 401.041C1148.7 403.969 1147.92 406.701 1147.73 409.628C1147.53 415.287 1143.04 414.507 1139.92 414.507C1135.63 414.507 1137.39 410.799 1137.39 408.652C1137.78 395.382 1138.75 382.111 1139.14 368.646C1139.73 355.18 1139.53 355.18 1124.31 355.375Z" fill="#E8731E"/>
<path d="M1274.56 406.506C1269.29 412.165 1263.83 413.726 1258.75 415.288C1252.51 417.239 1248.41 414.897 1247.83 408.262C1246.07 390.113 1246.85 371.963 1248.02 353.814C1248.41 349.521 1251.14 348.545 1254.85 348.74C1259.73 348.935 1259.34 352.058 1258.95 355.57C1257.78 368.255 1256.41 380.745 1256.8 393.43C1257.39 407.872 1258.36 409.043 1274.56 406.506Z" fill="#E8731E"/>
<path d="M612.889 309.514C607.425 319.857 602.157 330.591 596.303 340.739C594.352 344.056 589.474 345.618 587.522 341.715C582.059 331.176 577.766 320.248 572.107 307.172C583.034 313.612 586.352 323.175 592.4 331.176C598.644 323.37 602.937 314.003 612.889 309.514Z" fill="#E4711E"/>
<path d="M942.065 313.222C946.163 313.417 948.699 315.564 948.895 319.857C949.09 324.541 947.334 328.444 942.455 329.225C937.772 329.81 935.431 326.493 935.041 322.199C934.65 317.32 937.187 314.198 942.065 313.222Z" fill="#E4711E"/>
<path d="M1263.05 320.638C1262.85 325.517 1260.51 329.03 1255.63 329.03C1251.14 329.03 1248.8 325.517 1249 321.028C1249.19 316.54 1251.53 313.612 1256.02 313.222C1260.7 313.222 1262.85 316.149 1263.05 320.638Z" fill="#E4711E"/>
<path d="M578.547 402.993C577.376 402.993 576.4 402.993 575.229 402.993C575.62 402.212 576.01 401.627 576.4 400.846C577.181 401.627 577.766 402.407 578.547 402.993Z" fill="#010101"/>
</svg>
