<svg width="1439" height="531" viewBox="0 0 1439 531" fill="none" xmlns="http://www.w3.org/2000/svg">
<path d="M128.108 209.464C130.011 208.196 131.913 207.561 133.816 206.927C135.718 206.293 136.353 206.293 136.987 205.658C137.621 205.658 137.621 205.658 137.621 205.658C138.255 205.658 138.255 205.658 139.524 205.024L143.963 203.121C145.866 202.487 147.768 201.853 149.671 201.218L152.208 200.584L154.11 199.95C154.744 199.95 156.013 199.315 156.647 199.315L157.915 198.681C158.549 198.681 157.915 198.681 159.184 198.047C160.452 197.413 162.355 196.778 163.623 196.144C166.794 194.875 169.965 192.973 173.136 190.435L175.039 189.167L176.941 187.898C178.844 186.63 180.746 184.727 183.917 182.824L186.454 181.555L188.357 180.921C189.625 180.287 190.894 179.652 192.162 179.018C194.699 177.75 197.236 176.481 200.407 175.212C197.236 175.212 195.967 177.115 193.43 177.75C189.625 179.652 187.723 179.652 182.649 182.824C178.844 185.361 176.307 187.264 175.039 187.898C173.136 189.167 171.233 189.801 169.331 191.07C167.428 192.338 164.891 192.973 162.989 194.241C161.72 194.875 160.452 195.51 158.55 196.144C161.72 193.607 166.16 191.704 169.965 189.167C171.233 188.532 172.502 187.264 173.136 187.264L175.673 185.361C176.941 184.727 178.21 183.458 180.112 182.19C180.746 181.555 182.015 180.921 183.283 180.287L185.186 179.018C185.82 178.384 185.82 178.384 186.454 178.384C186.454 178.384 186.454 179.018 185.82 177.75L185.186 178.384L183.917 179.018L181.381 180.287C180.112 180.921 178.844 182.19 177.575 182.824L173.136 185.995L171.868 186.63L169.331 187.898L164.891 190.435C162.989 191.704 161.086 192.973 159.184 193.607L156.647 194.875C156.647 194.875 156.647 194.875 156.013 194.875C154.11 195.51 152.842 195.51 150.939 196.144C147.134 196.778 143.329 198.047 140.158 199.95C137.621 201.218 136.353 201.853 136.353 201.853C136.987 201.853 134.45 202.487 130.645 204.39C128.742 205.024 126.84 206.293 126.205 206.927L125.571 207.561H124.937L128.108 205.658C128.108 205.658 128.108 205.658 127.474 206.293C127.474 206.293 127.474 206.293 128.108 206.293L126.205 210.733H126.84C127.474 210.098 128.108 210.098 128.108 209.464Z" fill="#C9DF91"/>
<path d="M130.645 213.27C133.816 211.368 136.987 210.733 138.255 210.099C138.889 210.099 139.524 209.465 139.524 209.465H140.158C140.792 209.465 141.426 209.465 142.695 208.83C143.963 208.196 146.5 207.562 148.402 206.928C149.671 206.293 150.305 206.293 151.573 205.659C152.842 205.659 153.476 205.025 154.744 205.025C156.013 204.39 157.281 204.39 158.549 203.756C159.184 203.756 159.818 203.756 159.818 203.756C160.452 203.756 159.818 203.756 161.086 203.122C162.355 202.488 164.257 201.853 165.526 201.219C166.16 201.219 166.16 201.219 166.794 201.219C167.428 201.219 167.428 201.219 168.062 200.585H168.697C170.599 199.95 172.502 198.048 175.039 196.779C175.673 196.145 176.941 196.145 177.575 195.51C178.21 194.876 178.844 194.876 179.478 194.242L182.015 192.339C183.917 191.07 186.454 189.167 188.991 187.899L190.259 187.265L191.528 186.63L193.43 185.996C194.065 185.362 194.699 185.362 195.967 184.727L203.578 181.556C208.651 179.653 211.822 178.384 215.627 176.482C219.433 174.579 223.238 172.676 227.677 169.504C225.14 170.773 222.603 172.042 220.701 173.31C218.164 174.579 215.627 175.847 213.725 175.847C214.359 175.213 215.627 175.213 216.262 174.579C216.896 173.944 218.164 173.31 218.798 173.31C215.627 174.579 211.822 176.482 208.651 177.75C206.114 179.019 202.943 180.287 200.407 180.922C197.236 182.19 194.699 183.459 192.162 184.093C193.43 183.459 194.699 182.825 195.967 182.19C197.87 180.922 200.407 180.287 202.309 179.019L203.578 178.384C206.749 177.116 208.651 175.847 210.554 174.579C209.285 174.579 207.383 175.847 206.114 175.847L195.333 180.287L190.259 182.824C188.991 183.459 185.82 185.362 183.917 186.63C179.478 189.167 177.575 191.705 176.307 192.339C173.77 194.242 171.233 195.51 168.697 196.779C166.16 198.048 163.623 199.316 161.086 200.585C159.184 201.219 159.818 201.219 159.184 201.219C158.549 201.219 157.281 201.853 155.378 201.853C154.11 201.853 150.305 203.122 147.768 204.39C146.5 205.025 144.597 205.659 143.329 206.293L140.792 207.562L139.524 208.196L138.255 208.83C136.987 209.465 132.547 210.733 129.376 212.636L128.742 213.27C130.011 212.636 125.571 214.539 131.913 212.002H131.279C130.645 212.002 130.645 212.002 130.645 212.636C130.011 212.636 129.376 213.27 129.376 213.27C128.742 213.905 128.742 213.905 128.742 213.905C129.376 213.905 129.376 213.905 130.011 213.905C130.011 213.905 130.645 213.905 131.279 213.27C130.011 213.27 130.645 213.27 130.645 213.27H131.279C131.913 213.27 126.205 215.808 128.742 214.539H129.376C129.376 213.905 130.011 213.27 130.645 213.27Z" fill="#C9DF91"/>
<path d="M234.653 126.373C216.896 126.373 201.041 126.373 187.088 127.641C202.943 127.641 219.432 128.91 234.653 126.373Z" fill="#C9DF91"/>
<path d="M122.4 136.52C125.571 137.154 133.816 136.52 131.913 137.154C127.474 138.423 134.45 137.788 135.084 137.788C143.329 137.154 152.208 137.154 160.452 136.52C147.134 134.617 135.084 135.885 122.4 136.52Z" fill="#C9DF91"/>
<path d="M258.118 283.042C255.582 283.677 250.508 283.677 251.776 284.945C251.776 284.945 252.411 284.945 253.045 284.945H253.679C254.947 284.945 256.216 284.945 257.484 284.945C261.289 284.945 265.729 284.945 268.266 284.945C273.973 283.677 274.608 284.945 278.413 285.58C279.047 284.945 280.95 284.311 284.755 284.311C277.779 284.311 271.437 284.311 266.363 283.677C263.192 282.408 259.387 283.042 258.118 283.042Z" fill="#C9DF91"/>
<path d="M254.313 381.991C247.971 381.991 244.166 381.991 240.995 381.356C239.727 381.356 237.824 381.356 235.922 381.356C234.019 381.991 233.385 381.991 235.922 381.991C237.824 381.991 239.727 381.991 239.093 382.625C239.093 383.259 235.288 383.894 237.19 383.894C240.361 383.894 242.898 383.259 245.435 382.625C247.971 381.991 250.508 382.625 253.045 382.625C255.582 382.625 258.119 382.625 257.484 381.991C258.119 381.991 258.753 381.991 254.313 381.991Z" fill="#C9DF91"/>
<path d="M277.145 269.722C279.047 269.088 280.316 269.088 280.316 268.453C280.316 268.453 280.316 268.453 279.681 267.819H279.047L280.316 267.185L286.023 266.55L288.56 265.916C289.194 265.916 289.194 265.916 289.829 265.282L291.097 264.648C292.365 264.013 294.902 262.745 294.902 262.745C294.902 262.745 292.365 263.379 291.097 264.013C289.829 264.648 289.194 264.648 288.56 265.282C279.681 267.819 276.51 267.185 273.974 266.55C272.705 267.819 275.242 268.453 273.974 269.722C273.974 270.356 275.242 269.722 277.145 269.722Z" fill="#C9DF91"/>
<path d="M339.93 359.157C339.296 359.157 338.662 359.157 337.394 359.157C338.028 358.523 338.662 359.157 339.93 359.157Z" fill="#C9DF91"/>
<path d="M383.056 372.476C378.616 366.767 372.274 362.961 367.835 361.059C363.396 359.79 360.859 359.156 358.956 359.156C358.322 359.156 357.688 359.156 357.054 359.156H355.785C354.517 359.156 353.883 359.156 352.614 359.156C348.175 359.156 345.004 359.156 339.93 358.521C344.37 359.156 348.809 360.424 353.883 361.059C354.517 360.424 348.809 359.79 351.346 359.79C352.614 359.79 353.883 359.79 355.151 359.79C356.419 359.79 357.688 360.424 358.956 360.424C360.859 360.424 363.396 361.059 367.201 362.327C371.006 363.596 377.348 366.767 381.153 371.842C376.714 366.133 371.64 363.596 369.737 362.962C367.835 361.693 367.201 361.693 367.835 361.693C368.469 361.693 370.372 362.327 373.543 364.23C376.714 366.133 380.519 369.304 383.056 372.476Z" fill="#C9DF91"/>
<path d="M324.075 132.714C324.075 132.08 320.904 132.08 319.002 132.08C310.123 131.446 301.878 131.446 293 132.714L319.002 133.349C320.904 133.349 324.075 133.349 324.075 132.714Z" fill="#C9DF91"/>
<path d="M256.85 279.235C252.411 279.235 246.703 279.235 242.264 279.235C240.361 279.235 240.996 279.87 240.996 279.87C240.996 279.87 241.63 279.87 243.532 279.87C250.508 279.87 258.119 279.87 265.095 279.87C262.558 279.87 265.095 279.235 256.85 279.235Z" fill="#C9DF91"/>
<path d="M254.313 281.773C256.85 281.139 259.387 279.871 261.924 279.236C271.437 276.065 272.071 275.43 263.826 276.065C267.631 276.699 261.924 278.602 255.582 280.505C246.069 283.042 247.971 283.676 247.971 284.311C249.874 283.042 251.776 282.408 254.313 281.773Z" fill="#C9DF91"/>
<path d="M98.3005 343.299C99.5689 342.665 100.837 342.031 100.203 341.396C100.203 340.128 98.3005 340.762 97.0322 341.396C94.4954 342.031 91.3244 343.299 88.7876 343.934C87.5192 345.837 91.3244 345.837 98.3005 343.299Z" fill="#C9DF91"/>
<path d="M284.755 264.647C289.194 263.378 289.194 264.647 291.731 262.744C293.634 261.476 289.828 262.11 292.999 260.207C291.097 260.841 289.828 260.841 288.56 261.476C287.926 261.476 287.926 261.476 287.926 262.11L287.292 262.744C287.292 262.744 287.292 263.378 287.926 263.378C288.56 263.378 288.56 264.013 288.56 264.013C288.56 264.013 288.56 264.013 287.926 264.647C287.292 264.013 286.023 264.647 284.755 264.647Z" fill="#C9DF91"/>
<path d="M299.976 263.378C303.781 262.11 308.22 259.572 307.586 259.572C304.415 259.572 307.586 257.67 313.928 253.864C309.489 255.767 305.683 257.035 303.147 258.304C296.805 261.475 311.391 257.035 299.976 263.378Z" fill="#C9DF91"/>
<path d="M260.021 158.086L256.216 159.355C248.606 161.892 240.995 165.063 234.019 168.869C232.117 170.138 229.58 171.406 227.677 172.675L222.604 175.846C219.433 177.749 216.262 179.652 213.091 180.921C209.92 182.189 208.017 183.458 206.114 184.092C204.212 185.361 203.578 185.995 203.578 186.629C208.651 184.092 212.456 182.189 216.262 180.286C220.067 178.383 223.872 175.846 227.677 173.309C237.19 166.966 247.337 162.526 258.119 158.72C261.924 157.452 266.997 156.183 271.437 155.549C275.876 154.915 279.681 154.28 282.852 153.646C289.829 153.012 296.805 151.109 303.781 149.84C296.805 150.475 289.829 151.743 283.487 152.378C280.316 153.012 276.51 153.012 272.705 153.646C270.803 153.646 268.266 154.28 266.363 154.915C264.461 156.818 261.924 157.452 260.021 158.086Z" fill="#C9DF91"/>
<path d="M246.069 118.761C241.629 118.761 241.629 118.761 242.898 119.395C242.898 120.029 247.971 120.664 252.411 120.664C256.85 120.664 256.85 120.029 258.118 120.029C253.045 120.029 251.776 118.761 246.069 118.761Z" fill="#C9DF91"/>
<path d="M201.675 120.029C206.748 120.029 211.188 120.029 215.627 120.029C219.432 120.029 220.067 119.395 220.701 119.395C221.335 118.761 218.798 118.761 215.627 118.761C211.822 118.761 208.017 118.127 204.212 118.761C206.748 118.761 209.285 119.395 212.456 119.395C208.017 120.029 204.212 119.395 201.675 120.029Z" fill="#C9DF91"/>
<path d="M410.326 135.252C415.4 133.983 420.473 133.983 424.279 132.715C426.181 132.081 428.084 132.081 428.718 131.446C429.352 131.446 429.352 130.812 429.352 130.812C430.621 132.715 432.523 134.618 433.157 135.252C432.523 135.252 431.889 134.618 431.255 133.349C430.621 132.715 430.621 132.081 429.986 132.081L429.352 131.446C429.352 131.446 428.718 131.446 428.084 132.081H427.45H426.181L423.644 132.715C419.839 133.349 414.766 133.983 410.326 135.252Z" fill="#C9DF91"/>
<path d="M131.913 321.1C131.913 321.1 133.181 321.1 134.45 319.831C135.718 318.562 135.718 318.562 134.45 318.562C133.181 319.197 133.181 318.562 132.547 318.562C131.913 318.562 131.279 318.562 129.376 319.831C126.839 321.1 127.474 321.734 123.034 324.271C124.937 323.637 126.839 322.368 128.742 321.734C130.645 321.1 131.279 321.1 131.913 321.1Z" fill="#C9DF91"/>
<path d="M308.22 373.111L299.341 372.477L296.171 371.842C302.512 372.477 303.147 371.208 307.586 371.208C305.049 371.208 303.147 370.574 301.244 370.574C296.805 369.939 296.805 369.939 299.341 368.671C301.878 368.671 303.781 369.305 306.318 369.939C307.586 369.939 309.489 369.939 310.757 369.939C314.562 369.305 312.66 368.671 308.22 367.402C306.952 367.402 306.318 366.768 306.318 366.768L305.683 366.134C305.683 366.134 305.049 365.499 303.781 365.499V364.865L301.878 362.962H305.049C308.854 363.597 312.66 363.597 316.465 363.597C313.928 362.962 308.22 362.328 315.831 362.328C325.344 362.328 316.465 360.425 320.27 359.157C320.27 359.157 318.367 358.522 317.733 358.522C315.196 358.522 313.294 357.888 312.025 357.888C311.391 357.888 311.391 357.888 310.757 357.888H310.123H309.489C308.854 357.254 308.22 357.254 306.952 356.619V355.985C306.952 355.985 306.318 355.351 305.683 355.351L306.318 354.716L310.757 355.351C312.66 355.351 314.562 355.985 314.562 355.351L313.928 354.716C313.294 354.716 312.025 354.082 309.489 354.082C309.489 354.082 308.854 354.082 308.854 353.448H309.489C309.489 353.448 309.489 353.448 308.22 352.814H307.586C304.415 352.179 301.878 351.545 298.707 351.545C293.634 350.911 287.926 350.911 282.852 350.911H278.413C274.608 349.642 268.9 349.642 263.192 349.008C258.753 349.008 253.679 349.008 249.24 349.008C239.727 349.008 229.58 349.642 220.067 350.276C212.456 350.911 206.114 352.814 201.675 354.082C196.601 355.351 195.333 355.985 192.162 356.619C188.357 357.254 183.283 357.254 177.575 357.254H159.818H148.402C144.597 357.254 141.426 356.619 137.621 355.985L130.011 355.351L121.766 354.716C116.692 354.082 112.887 354.082 111.619 353.448H110.985C108.448 352.814 106.545 352.814 104.008 352.179L98.9349 351.545L96.3981 350.911H94.4955C92.5929 350.911 90.6903 350.276 88.7877 350.276H86.2509H84.9825H84.3484L78.0064 349.642C77.3722 349.642 77.3722 349.642 76.738 349.642C76.738 349.642 76.738 349.642 76.738 349.008C76.738 349.008 77.3722 349.008 78.0064 349.008H78.6406C79.2748 349.008 79.909 349.008 80.5432 349.008L85.6167 349.642C88.1535 349.642 90.6903 349.642 93.8613 350.276C91.3245 349.642 88.1535 349.642 85.6167 349.642C83.7141 349.642 82.4458 349.008 81.1774 349.008C79.2748 349.008 77.3722 348.374 76.1038 349.008C73.567 349.008 72.9328 349.008 72.9328 349.642H71.0302H70.396C69.7618 350.911 69.7618 353.448 69.1276 354.716C67.225 361.059 65.9566 364.865 64.6882 367.402L67.225 399.117L71.0302 397.848L74.2012 396.58C74.2012 396.58 74.2012 396.58 74.8354 396.58H75.4696L78.6406 395.945H79.2748L81.8116 395.311L83.08 394.677C91.3245 392.774 101.472 390.871 111.619 387.7C112.887 387.065 114.156 386.431 116.692 385.797C118.595 385.162 120.498 383.894 121.766 383.26C124.937 381.357 126.84 380.088 128.742 379.454C129.376 379.454 130.011 378.82 130.011 378.82C131.279 378.185 131.913 378.185 133.182 377.551L146.5 371.842L152.842 369.305C154.11 368.671 155.379 368.037 156.647 367.402L160.452 365.499C170.599 359.791 176.941 355.351 182.015 353.448C183.917 352.814 186.454 352.179 191.528 350.911C194.065 350.276 196.601 349.642 199.772 348.374C202.943 347.105 206.114 346.471 208.651 345.202C213.725 343.299 217.53 341.396 219.433 340.762L226.409 338.859C228.946 338.225 232.117 336.956 234.653 336.322C242.898 333.151 249.874 330.613 255.582 328.711C262.558 326.173 269.534 323.636 275.876 321.099C278.413 319.831 281.584 318.562 284.121 317.293C287.292 316.025 291.097 314.756 294.902 314.122C296.805 313.488 298.707 312.853 300.61 312.853L302.512 312.219L305.049 311.585C306.952 310.95 308.22 310.316 309.489 309.682L311.391 309.048L313.928 308.413C315.196 307.779 316.465 307.779 317.733 307.145C318.367 307.145 319.636 306.51 320.27 306.51C321.538 305.876 322.807 305.876 324.075 305.242C327.246 303.973 331.051 302.07 334.857 300.802C338.662 299.533 341.199 298.265 343.101 298.265C343.735 298.265 345.638 297.63 346.906 296.362C348.809 295.093 350.077 294.459 351.346 293.825C351.98 293.19 352.614 292.556 351.98 292.556C351.98 292.556 351.346 292.556 350.077 293.19C348.175 293.825 346.906 294.459 348.175 293.19C349.443 292.556 350.077 291.287 351.346 291.287C351.98 291.287 352.614 290.653 352.614 290.653C352.614 290.653 351.98 290.653 353.883 290.019C355.151 289.385 358.956 288.75 364.664 283.676C367.835 281.139 371.006 277.333 372.908 272.893C374.811 268.453 375.445 264.647 375.445 262.744L377.348 248.156L348.175 233.567C347.541 232.298 347.541 232.298 340.564 232.933C334.857 232.933 328.515 233.567 324.075 234.836C325.344 234.836 333.588 234.201 331.051 235.47C329.149 236.104 324.075 236.104 320.27 236.738C315.196 237.373 310.757 237.373 306.952 238.007L303.147 238.641C300.61 239.276 298.073 239.276 294.902 239.91H292.365C290.463 239.91 292.365 238.641 289.194 238.641H288.56C287.926 238.641 287.926 238.641 287.292 238.641C287.292 238.641 287.292 238.641 286.658 238.641C286.658 238.641 286.658 238.641 286.023 238.641C287.926 237.373 292.365 237.373 299.976 237.373C296.805 237.373 295.536 237.373 294.268 237.373C287.926 237.373 277.779 236.738 268.9 236.738C260.021 236.738 250.508 236.738 241.629 236.738C234.653 236.738 223.872 236.738 220.067 237.373C214.359 238.641 208.651 238.007 203.578 238.007C200.407 238.007 197.87 237.373 195.967 237.373C195.333 237.373 194.065 237.373 193.43 237.373C190.259 237.373 187.088 237.373 182.649 238.007C176.307 238.007 170.599 237.373 164.257 237.373H163.623H162.989H162.355H157.915C156.647 237.373 155.379 237.373 154.11 236.738H152.208C150.939 236.738 149.671 236.738 148.402 236.738C146.5 236.738 144.597 236.738 142.695 236.738H141.426H140.158C139.524 236.104 136.353 236.104 133.182 235.47H131.913C130.645 235.47 128.742 235.47 128.108 234.836C127.474 234.836 126.84 234.835 126.205 234.201C123.669 233.567 121.132 234.201 118.595 233.567C111.619 232.298 104.008 231.03 95.1297 229.761L93.2271 229.127C91.3245 228.493 88.7877 227.858 86.8851 227.858C81.1774 226.59 74.8354 225.955 68.4934 225.321C66.5908 225.321 64.6882 225.321 63.4198 225.321H62.1514V227.858V231.03C62.1514 232.933 62.1514 234.201 61.5172 235.47C61.5172 238.007 60.883 239.91 60.2488 241.178C59.6146 244.35 58.9804 245.618 58.3462 246.253V254.499C58.9804 255.133 59.6146 256.401 60.883 258.939C61.5172 262.11 62.7856 266.55 64.054 277.333H65.9566C67.8592 277.333 69.7618 276.699 71.6644 276.699C73.567 276.064 75.4696 276.064 78.6406 276.064H89.4219C93.2271 276.064 98.9349 276.064 105.911 275.43L108.448 274.796L110.35 274.162L113.521 273.527L119.863 272.259L133.182 269.087L143.329 266.55H144.597H145.231L149.037 265.281L150.939 264.647L152.842 264.013L154.11 258.939L153.476 257.67L152.842 255.767L152.208 254.499L153.476 257.036L155.379 261.476L156.013 262.11L157.915 261.476C158.55 261.476 160.452 260.207 161.721 260.207L164.892 258.939L166.794 257.67L173.136 255.767C175.039 255.133 177.575 254.498 180.112 253.23C184.552 251.327 187.088 250.058 190.894 248.156C195.333 245.618 199.772 243.081 203.578 241.178L207.383 238.641L210.554 236.104C212.456 234.835 213.725 233.567 214.359 233.567L235.287 224.053L239.727 222.15L242.264 220.881C244.8 219.612 247.337 217.71 249.874 216.441L256.216 212.635C259.387 210.732 263.192 208.83 266.363 207.561L267.632 206.927L268.9 206.292C269.534 206.292 270.168 205.658 270.803 205.658C272.705 205.024 275.876 203.755 277.779 203.755C278.413 203.755 279.681 203.755 280.316 203.121L282.852 202.487C286.023 202.487 289.194 201.852 293.634 201.218C294.902 201.218 296.171 200.584 297.439 200.584L305.049 199.315C309.489 198.681 313.928 198.047 318.367 196.778L324.709 195.509H326.612L328.515 194.875C331.051 194.241 333.588 193.607 336.125 193.607L339.93 192.972C341.199 192.972 341.833 192.338 343.101 192.338L345.004 191.704C347.541 191.069 350.077 190.435 352.614 189.801L357.688 188.532C359.59 187.898 360.859 187.898 362.761 187.264C364.03 187.264 364.664 186.629 365.932 186.629C367.201 186.629 367.835 185.995 369.103 185.995C371.006 185.361 372.274 185.361 373.543 184.726L375.445 184.092C376.714 183.458 377.982 183.458 379.25 182.824L381.153 182.189C382.421 182.189 383.056 181.555 384.324 181.555C386.227 180.921 387.495 180.286 389.398 179.652C390.666 179.018 391.934 179.018 393.203 178.384C394.471 178.384 395.105 177.749 396.374 177.749C398.276 177.749 399.545 177.115 400.813 176.481C401.447 176.481 402.082 176.481 402.716 176.481C403.984 176.481 405.887 175.846 407.155 175.212L416.668 173.309L421.108 172.675L424.913 172.041C428.084 171.406 431.889 171.406 436.328 170.138L438.231 169.503L440.768 168.869C442.67 168.235 444.573 167.601 446.475 166.966C448.378 166.332 450.281 165.063 453.452 163.161C455.988 161.258 459.794 158.086 462.965 152.378L477.551 123.835L445.841 116.857C440.133 115.589 436.328 115.589 433.792 115.589L424.913 111.783H424.279C423.644 111.783 422.376 111.783 420.473 111.149C418.571 111.149 415.4 109.88 412.863 109.88L404.618 109.246L401.447 108.612L392.569 107.343C391.3 107.343 390.666 106.709 389.398 106.709C388.129 106.709 386.227 106.074 384.958 106.074H380.519C379.885 106.074 379.25 106.074 377.982 106.074C377.348 106.074 376.079 106.074 375.445 106.074C374.177 106.074 372.908 106.074 371.64 106.074H366.566H365.932H365.298C358.322 106.074 351.346 105.44 344.37 105.44C336.759 105.44 329.783 104.806 322.173 105.44C317.099 105.44 312.66 106.074 307.586 106.074C312.025 106.074 314.562 107.343 315.831 106.709C324.075 105.44 333.588 106.709 343.101 107.343C346.272 107.977 343.735 109.246 351.98 109.88C358.956 110.514 365.298 111.149 372.908 111.783C376.714 112.417 379.885 112.417 383.69 113.052C387.495 113.686 390.666 114.32 393.837 114.954C395.105 114.954 396.374 115.589 397.642 115.589C398.911 115.589 399.545 116.223 400.813 116.223C401.447 116.223 401.447 116.223 402.082 116.223C402.716 116.223 403.35 116.223 403.35 116.857C403.984 116.857 403.984 116.857 404.618 116.857H405.253C406.521 117.492 406.521 117.492 405.887 118.126H403.35C401.447 118.126 400.179 117.492 398.911 117.492C398.276 117.492 397.008 117.492 396.374 117.492C395.74 117.492 395.74 117.492 395.105 117.492C394.471 117.492 394.471 117.492 393.837 117.492H393.203L383.69 115.589C376.714 114.32 369.737 114.32 364.664 113.686C353.248 111.783 355.785 113.686 355.151 114.32C354.517 114.954 355.785 114.954 356.419 115.589C353.248 115.589 350.077 115.589 348.809 114.954C348.175 114.954 348.175 114.32 347.541 114.32C346.906 114.32 346.906 114.32 346.272 114.32C343.735 113.686 340.564 113.686 337.393 114.32C334.222 114.32 331.686 113.686 329.149 114.32C328.515 114.32 327.88 114.32 327.246 114.32C324.075 114.954 320.27 115.589 313.928 114.32C310.757 113.686 310.123 114.32 310.123 114.954C310.123 115.589 312.025 115.589 307.586 115.589C304.415 115.589 303.147 115.589 301.878 114.954C299.976 114.32 295.536 114.954 291.731 114.954C289.829 114.954 287.926 114.954 288.56 115.589C289.194 116.223 293 116.223 295.536 116.223C301.878 116.223 308.854 116.857 315.831 116.223C317.099 116.223 318.367 116.223 319.002 116.223C321.538 116.223 322.807 116.857 322.173 117.492C317.099 117.492 313.294 117.492 308.854 118.126H305.049C300.61 118.76 303.147 118.76 305.049 119.394C306.952 120.029 309.489 120.029 312.025 120.029C315.831 119.394 320.27 119.394 324.709 119.394H327.246H328.515H331.051H332.32C331.686 119.394 331.051 119.394 330.417 119.394C329.783 119.394 328.515 119.394 327.88 119.394C326.612 119.394 325.978 119.394 324.709 119.394C323.441 119.394 322.807 119.394 322.173 119.394H315.831C315.196 119.394 315.196 119.394 314.562 119.394H313.928C313.294 119.394 313.294 119.394 313.294 119.394H307.586C306.952 119.394 306.952 119.394 306.318 119.394C305.049 119.394 304.415 119.394 304.415 120.029H303.781C298.707 120.029 293 120.663 287.926 120.663H279.047C278.413 120.663 277.145 120.663 276.51 120.663C260.655 121.297 246.069 122.566 229.58 122.566C227.043 122.566 227.043 123.2 227.043 123.2C227.043 123.835 229.58 123.2 230.848 123.835H237.824L238.458 124.469H237.824H236.556C233.385 124.469 231.482 124.469 228.945 125.103C230.214 125.103 230.848 125.103 231.482 125.103C234.653 125.103 237.19 125.103 240.361 125.103H244.166C246.069 125.103 247.337 125.103 249.24 125.103C249.874 125.103 249.874 125.103 250.508 125.103H251.142H251.777H252.411C253.045 125.103 253.045 124.469 253.045 124.469H256.216C256.85 125.103 260.655 125.103 263.826 125.103C269.534 125.103 274.608 125.103 280.316 125.103C286.023 125.103 291.097 125.103 296.805 124.469V125.103C294.902 125.737 292.365 127.006 302.512 126.372H303.781C305.049 126.372 306.318 126.372 307.586 126.372C303.781 127.006 308.22 127.006 310.757 127.006C311.391 127.006 312.025 127.006 312.66 127.006C313.294 127.006 313.928 127.006 313.928 127.006H314.562C315.196 127.006 315.831 127.006 315.831 127.006C317.733 127.006 319.636 127.006 320.27 127.64C319.002 127.64 318.367 127.64 317.099 127.64C316.465 127.64 315.831 127.64 315.196 127.64C314.562 127.64 313.928 127.64 313.928 127.64H313.294C308.22 128.275 303.147 128.275 297.439 127.64C294.902 127.64 292.365 127.64 289.829 127.64C287.292 128.275 284.121 128.275 281.584 127.64C275.242 127.006 268.9 127.006 261.924 127.006C252.411 127.006 242.264 127.64 232.751 127.006C232.117 127.006 232.117 127.006 231.482 127.006C230.848 127.006 230.214 127.006 229.58 127.006C228.946 127.006 228.946 127.006 228.311 127.006H220.701H219.433C216.262 127.006 213.091 127.006 209.92 127.006C206.749 127.006 203.578 127.64 200.407 127.64C192.162 127.006 183.917 128.275 175.673 128.275H200.407C201.675 128.275 202.943 128.275 204.846 128.275C205.48 128.275 206.749 128.275 208.017 128.275C208.651 128.275 209.285 128.275 209.92 128.275C211.188 128.275 212.456 128.275 213.725 128.275H272.071H273.974C273.974 128.909 274.608 128.909 275.242 128.909C277.145 129.543 279.681 129.543 282.852 129.543C285.389 129.543 288.56 129.543 291.731 129.543H299.341H310.123C320.904 129.543 331.686 130.177 342.467 130.812C343.735 131.446 346.272 132.08 345.638 132.08C345.004 132.08 343.735 132.08 340.564 132.08C331.686 131.446 339.296 132.715 340.564 132.715C337.393 132.715 332.32 132.715 328.515 132.715C328.515 132.715 328.515 132.715 327.88 132.715L329.783 134.617H329.149C327.246 134.617 325.978 134.617 324.075 134.617H322.807H305.049C301.878 134.617 298.707 134.617 294.268 135.252C296.805 135.252 299.341 135.252 301.244 135.252C302.512 135.252 303.781 135.252 304.415 135.252C310.123 135.252 315.196 135.252 320.27 135.252C325.344 135.252 330.417 135.886 334.857 135.252L344.37 135.886H345.638H347.541H348.809C350.077 135.886 350.712 135.886 351.98 135.886H356.419H359.59C360.859 135.886 362.127 135.886 363.396 135.886C368.469 135.886 372.908 136.52 377.982 137.155C382.421 137.789 387.495 138.423 392.569 139.058C397.642 139.692 402.082 140.326 407.155 140.96C411.595 141.595 417.302 142.863 423.01 142.863C428.718 142.863 432.523 142.229 434.426 142.863L433.157 134.617C432.523 134.617 432.523 133.983 431.889 133.349C431.255 132.715 429.986 131.446 430.621 132.08C430.621 132.08 429.986 132.08 429.986 132.715C429.352 133.349 428.084 133.349 426.815 133.349C424.279 133.983 421.108 133.983 417.937 134.617C414.766 135.252 411.595 135.252 408.424 136.52C402.082 137.789 395.74 139.058 390.032 140.326C389.398 140.326 388.763 140.326 388.763 140.326H388.129C387.495 140.326 386.861 140.96 386.227 140.96C385.592 140.96 385.592 140.96 384.958 141.595C383.056 142.229 381.153 142.229 378.616 142.863L367.835 146.669L357.688 149.206C357.054 148.572 364.664 146.669 367.201 145.4C362.761 146.669 358.322 147.938 354.517 148.572C353.883 148.572 352.614 149.206 351.98 149.206C350.712 149.84 350.077 149.84 349.443 150.475C340.564 153.012 331.051 155.549 321.538 156.818C319.002 157.452 315.831 158.086 314.562 158.086C313.928 157.452 317.733 156.818 319.636 156.183C329.783 154.281 340.564 151.743 350.077 147.938C339.93 151.109 329.783 153.646 319.636 156.183L316.465 156.818L313.928 157.452C306.952 158.721 299.976 159.989 293.634 161.258L289.829 161.892C287.926 162.526 286.658 162.526 285.389 162.526C280.95 163.161 276.51 163.795 272.071 164.429C270.803 164.429 268.9 165.063 267.632 165.698C264.461 166.332 261.924 166.966 258.753 168.235C260.655 166.966 261.924 165.698 267.632 163.795C270.803 163.161 273.974 162.526 274.608 161.892C275.242 161.258 273.974 161.258 271.437 161.892C270.168 161.892 268.266 162.526 266.997 162.526C265.095 163.161 263.826 163.161 262.558 163.795C260.655 163.795 258.753 164.429 256.216 165.063C254.948 165.698 253.679 165.698 251.777 166.332C248.606 167.601 246.069 168.869 242.898 170.138L240.995 170.772C240.995 170.138 241.629 169.504 242.898 168.235C244.166 166.966 246.069 166.332 247.971 165.698C253.045 163.795 257.484 162.526 260.655 161.258C264.461 159.989 268.266 158.721 272.705 157.452C270.168 158.086 266.997 158.086 263.826 159.355C261.29 159.989 258.119 160.623 255.582 161.892C249.874 163.795 244.8 165.698 239.727 168.235C235.922 170.138 229.58 173.309 229.58 175.212C229.58 175.212 228.946 175.846 228.311 175.846C227.043 176.481 225.775 177.115 224.506 177.749V177.115C224.506 176.481 224.506 176.481 224.506 176.481H223.872C223.872 176.481 223.238 176.481 222.604 176.481C221.335 177.115 220.067 178.384 219.433 179.018C219.433 179.018 219.433 179.018 218.798 179.018C214.359 180.921 209.92 183.458 206.114 185.361L199.138 189.167L195.333 191.069C194.065 191.704 192.162 192.972 190.894 193.607C190.259 193.607 192.162 191.704 193.43 191.069C193.43 191.069 193.43 191.069 192.162 191.069C194.065 189.801 194.699 189.167 195.967 188.532C196.601 187.898 197.236 187.898 197.87 187.264C198.504 187.264 199.138 186.629 199.138 186.629C199.772 186.629 199.772 185.995 200.407 185.995C201.041 185.361 201.675 185.361 201.041 184.726C204.212 183.458 208.017 181.555 210.554 180.286C213.091 179.018 214.993 177.749 214.993 177.115C214.993 177.115 214.993 177.115 214.993 176.481C216.896 175.846 218.798 174.578 220.067 173.944C221.335 173.309 221.969 172.675 222.604 172.675C223.238 172.675 223.238 172.675 223.872 172.041C225.14 171.406 225.775 170.772 227.677 170.138C229.58 168.869 231.482 167.601 233.385 166.966C235.287 165.698 237.824 164.429 239.727 163.795H240.361H240.995C240.995 163.795 241.629 163.795 241.629 163.161C245.435 161.258 249.874 159.355 253.679 158.086C258.119 156.818 261.924 155.549 266.997 154.281C268.9 154.281 267.632 154.28 266.363 154.915H265.729H265.095C265.095 154.915 265.095 154.915 264.461 154.915C273.974 153.012 280.95 152.378 287.926 151.743C294.902 150.475 301.878 149.84 309.489 148.572C307.586 148.572 305.049 148.572 302.512 148.572H299.341C296.171 149.206 292.365 149.206 289.194 149.84L285.389 151.109C284.121 151.109 282.852 151.109 281.584 151.743H279.681C275.242 152.378 270.168 152.378 264.461 153.646H262.558H261.924C260.021 154.281 256.216 154.915 253.045 156.183C251.777 156.818 250.508 157.452 249.24 158.086C241.629 161.258 234.653 165.063 227.677 169.503C221.335 173.309 216.262 176.481 209.92 179.018L198.504 184.092L192.796 186.629C191.528 187.264 187.723 189.167 185.82 190.435C187.723 189.167 190.259 187.898 191.528 187.264C192.796 186.629 193.43 186.629 193.43 186.629C194.065 186.629 194.065 187.264 194.699 187.264L192.796 187.898C192.162 187.898 191.528 188.532 190.894 189.167C188.991 190.435 187.723 191.069 186.454 192.338C183.917 194.241 182.015 195.509 180.746 196.144C180.746 196.144 180.112 196.144 179.478 196.144C179.478 196.144 178.21 196.778 177.575 197.412C175.673 198.681 173.77 199.315 171.868 200.584C168.062 202.487 167.428 203.121 166.794 204.39C167.428 204.39 168.062 203.755 168.697 203.121C169.331 202.487 170.599 201.852 171.233 201.218C172.502 200.584 173.77 199.949 174.404 199.949C174.404 199.949 173.77 199.949 173.77 200.584C173.136 201.218 172.502 201.218 171.868 201.852L171.233 202.487L170.599 203.121C170.599 203.121 169.965 203.121 169.965 203.755L167.428 205.024C166.794 205.658 166.16 205.658 165.526 206.292C164.257 206.927 162.989 207.561 161.721 207.561C161.086 207.561 160.452 208.195 160.452 208.195C160.452 208.83 162.355 208.195 164.257 206.927C164.891 206.292 166.16 206.292 166.794 206.292C166.794 206.292 166.794 206.927 166.16 206.927L162.989 208.195C161.721 208.83 161.721 208.83 160.452 208.83C159.818 208.83 158.55 209.464 157.281 209.464L152.208 210.732C143.963 213.27 148.402 211.367 146.5 212.001C143.963 213.27 143.329 213.27 142.695 213.27C142.06 213.27 141.426 213.27 140.792 213.27H140.158C140.158 213.27 139.524 213.27 138.889 213.904C137.621 214.538 136.353 214.538 135.084 215.172C134.45 215.172 133.816 215.807 133.182 215.807C130.645 216.441 133.182 215.172 135.084 213.904C136.353 213.27 136.987 212.635 136.353 212.635C136.353 212.635 135.718 212.635 134.45 213.27C133.182 213.904 131.279 214.538 129.376 215.807C129.376 215.172 129.376 215.172 129.376 215.172C129.376 215.172 129.376 215.172 128.742 215.172H128.108L130.645 213.904H130.011C129.376 213.904 128.742 214.538 127.474 214.538H126.84H126.205L129.376 213.27C124.937 213.27 119.229 214.538 113.521 215.172C110.985 215.807 107.814 216.441 105.277 216.441C102.74 217.075 99.5691 217.71 97.0323 218.344C95.7639 218.344 92.5929 218.344 87.5193 218.344C86.8851 218.344 85.6167 218.344 84.3484 218.344C83.7141 218.344 82.4457 218.344 81.8116 218.344C80.5432 218.344 79.2748 217.71 79.909 217.71C84.9825 217.075 78.6406 217.075 76.738 217.075C71.6644 217.075 65.3224 217.71 58.9804 218.978L57.0778 220.881C55.1752 220.881 52.6384 221.515 49.4675 222.784C46.2965 224.053 41.2229 225.955 36.1493 231.03L12.684 254.499L41.2229 271.624C50.1017 276.699 55.8094 276.699 59.6146 277.333H63.4198C64.6882 277.333 64.054 277.333 64.054 277.333C68.4934 277.967 72.9328 278.602 77.3722 279.236L84.3484 280.504C90.0561 281.773 96.3981 283.042 103.374 284.31L107.179 284.944L112.253 285.579C114.156 286.213 116.692 286.213 118.595 286.213L124.303 286.847C128.108 287.482 131.913 287.482 136.353 288.116C138.889 288.116 141.426 288.75 143.963 288.75C149.671 289.385 154.11 289.385 158.55 288.75C160.452 288.75 161.721 288.75 163.623 289.385C167.428 289.385 171.868 289.385 175.673 290.019C176.941 290.019 177.575 290.019 178.844 290.019C180.746 290.019 182.649 290.019 184.552 290.653C193.43 291.922 199.772 291.287 206.114 290.653C208.017 290.653 208.651 290.653 209.92 290.653C213.091 290.019 209.92 289.385 213.725 288.75H216.262C216.896 288.75 215.627 289.385 218.164 289.385C220.701 289.385 221.335 289.385 221.335 288.75C221.969 288.116 221.969 288.116 220.701 288.116C220.067 288.116 218.164 287.482 216.262 287.482C215.627 286.847 215.627 286.847 213.725 286.213C213.091 286.213 212.456 286.213 211.188 286.213C209.92 286.213 209.285 286.213 209.285 286.213C208.651 286.213 209.285 285.579 210.554 285.579C211.188 285.579 211.188 285.579 211.822 285.579C212.456 285.579 212.456 285.579 213.091 285.579C213.725 285.579 213.725 285.579 214.359 285.579H214.993H215.627H216.896H218.164H219.433C220.067 285.579 220.701 285.579 220.701 285.579C221.335 285.579 221.969 285.579 222.604 285.579C223.872 285.579 225.14 284.944 225.775 284.944C220.701 284.944 216.262 284.944 211.188 284.944V284.31C201.675 284.31 202.943 282.407 196.601 281.773C195.333 281.139 198.504 281.139 202.943 280.504C204.846 280.504 206.114 280.504 206.749 280.504C207.383 280.504 207.383 280.504 208.017 280.504C209.285 280.504 209.285 279.87 208.017 279.87C207.383 279.87 206.749 279.87 206.114 279.236C206.114 279.236 206.114 278.602 208.017 278.602H209.92H214.993C219.433 279.236 224.506 278.602 228.311 278.602C233.385 279.236 235.922 279.236 238.458 278.602C239.093 278.602 239.727 278.602 240.995 277.967C246.069 277.333 251.142 277.333 256.85 277.333C262.558 277.333 267.632 276.699 273.339 276.699C277.779 276.699 282.852 276.064 288.56 276.064C294.268 276.064 300.61 275.43 305.683 274.796C306.952 274.796 308.22 274.796 310.123 274.796C310.757 275.43 303.147 276.064 301.878 276.699H303.147C308.854 276.699 314.562 276.064 315.831 274.162C317.099 274.162 318.367 273.527 319.636 273.527C320.904 273.527 321.538 273.527 322.807 273.527H323.441H324.075C324.709 273.527 325.344 273.527 327.246 273.527C329.783 272.893 333.588 272.259 336.759 272.893C338.028 272.893 339.296 272.893 339.93 272.893C342.467 272.893 343.735 272.259 345.638 272.259C346.272 272.259 346.906 272.259 348.175 272.259L345.004 260.207C346.272 260.207 343.735 260.207 341.199 255.133L339.93 253.23L338.662 253.864C337.393 254.499 335.491 255.133 334.222 255.767L327.88 259.573V258.939L329.149 257.67C330.417 257.036 331.686 255.767 333.588 255.133C334.222 254.499 335.491 254.499 336.125 253.864C336.759 253.23 338.028 253.23 338.662 252.596C338.662 252.596 337.393 253.23 336.125 253.23C334.857 253.864 334.222 253.864 333.588 254.499C332.32 255.133 331.686 255.133 332.32 254.499C332.954 253.864 334.222 253.23 336.125 252.596C336.759 252.596 337.393 251.961 338.028 251.961L338.662 253.23C339.296 253.864 339.296 255.133 339.93 255.767C340.564 256.401 340.564 257.036 341.199 257.67C343.735 262.11 345.004 262.11 344.37 261.476L347.541 276.064C345.638 276.064 343.735 276.064 342.467 275.43C338.028 274.796 327.246 275.43 324.075 276.699C336.125 275.43 339.296 276.064 336.759 277.967C336.125 278.602 337.393 278.602 339.296 278.602C341.833 278.602 342.467 278.602 342.467 277.967C343.735 277.333 345.004 276.699 347.541 276.699L344.37 261.476C345.004 261.476 343.735 262.11 340.564 256.401C339.93 255.767 339.93 254.499 339.296 253.864L338.662 251.961C338.028 250.693 338.028 251.327 338.028 251.327C338.028 251.327 338.028 251.327 337.393 251.327C336.759 251.327 335.491 251.961 334.222 252.596C329.149 254.499 329.149 254.498 327.246 256.401C325.978 257.036 324.709 258.304 322.173 259.573C321.538 259.573 321.538 258.939 320.27 258.939C318.367 258.939 320.904 255.133 325.978 252.596C329.783 250.693 332.32 249.424 334.222 248.79C335.491 248.79 335.491 248.79 334.857 249.424C334.857 249.424 335.491 249.424 336.759 248.79C337.393 248.79 337.393 248.79 337.393 248.79L338.028 250.058C338.662 251.327 338.662 251.961 339.296 253.23C339.93 253.864 339.93 254.499 340.564 255.133C340.564 255.767 341.199 256.401 341.199 257.036C343.735 260.841 343.735 260.207 343.735 260.207C343.735 260.207 343.101 259.573 342.467 258.939C341.199 257.036 338.028 251.327 341.199 257.036C341.833 257.67 341.833 257.67 341.199 257.67C340.564 257.036 339.93 256.401 338.662 252.596C338.028 250.693 336.759 248.156 336.125 246.887C335.491 246.887 335.491 247.521 334.857 247.521C333.588 248.156 332.32 248.79 331.686 248.79C330.417 249.424 329.149 250.058 328.515 250.058C326.612 250.693 325.978 250.693 324.075 251.327C322.807 252.596 321.538 253.864 320.27 255.133C319.002 255.767 316.465 257.036 313.928 257.67C314.562 258.939 315.196 260.207 315.831 261.476C316.465 262.11 319.636 262.11 312.025 264.647C309.489 265.916 306.952 267.184 303.781 268.453C301.244 269.721 298.073 270.99 296.171 271.624C294.902 272.259 293 272.893 293 272.893C293 273.527 292.365 273.527 291.097 274.162C289.194 274.796 287.292 275.43 286.023 275.43C285.389 275.43 283.487 275.43 284.121 275.43C287.926 273.527 286.658 272.259 280.316 272.893C280.316 272.893 282.218 271.624 279.681 272.259C279.047 272.259 277.779 272.893 277.145 272.893C275.876 273.527 275.242 274.162 275.876 274.162C277.145 274.162 277.779 274.796 277.779 275.43V276.064V276.699C277.145 277.333 276.51 278.602 276.51 279.236C276.51 279.236 276.51 279.236 275.876 279.236L270.168 281.139C270.168 281.139 269.534 281.139 268.9 281.139C268.9 280.504 266.997 280.504 261.924 282.407L260.655 283.042L258.119 283.676C253.045 285.579 247.971 287.482 242.264 288.75C241.629 288.75 240.995 288.75 240.361 289.385H239.727C235.922 291.287 231.482 292.556 230.214 292.556C229.58 292.556 229.58 292.556 229.58 291.922C229.58 291.922 227.677 292.556 227.043 292.556C225.775 292.556 223.872 293.19 221.335 294.459C221.335 294.459 221.335 294.459 221.335 295.093L219.433 296.362C214.993 298.265 212.456 298.265 211.822 297.63L215.627 293.19C216.262 292.556 214.359 292.556 216.896 291.287C217.53 290.653 217.53 290.653 215.627 291.287C213.725 291.922 213.091 291.922 211.822 292.556C211.188 293.19 209.92 293.19 208.651 293.825C207.383 293.825 206.749 294.459 205.48 294.459C204.212 295.093 202.943 295.093 201.675 295.727C195.967 296.996 191.528 300.802 187.723 301.436H187.088H186.454C187.088 300.802 188.357 300.802 189.625 300.167C193.43 298.265 200.407 295.727 197.87 295.093C199.772 294.459 201.675 293.825 203.578 293.19L206.749 291.922L208.651 291.287H209.285C209.92 291.287 211.188 290.653 211.822 290.653C212.456 290.653 217.53 288.75 220.701 287.482C219.433 286.847 225.775 284.31 227.677 283.042C224.506 284.31 221.335 284.944 218.164 286.213C217.53 286.847 220.067 286.847 216.896 288.116C213.725 289.384 210.554 290.653 209.285 290.653C208.651 290.653 208.017 290.653 207.383 290.653C206.749 290.653 206.114 290.653 204.846 291.287C202.309 291.922 199.772 292.556 197.236 293.825C194.065 295.093 191.528 296.362 188.991 297.63C187.723 297.63 187.088 298.265 185.82 298.265H185.186C183.917 298.265 183.283 298.899 182.015 298.899C181.381 298.899 180.112 299.533 179.478 299.533C177.575 300.167 175.673 300.802 173.136 302.07C171.233 302.705 166.794 304.607 166.794 303.973C167.428 302.07 157.281 306.51 152.208 309.048C145.866 312.219 145.866 313.488 143.329 315.39C142.695 316.025 142.695 316.025 143.329 315.39C144.597 314.756 145.866 314.122 145.866 314.122C145.231 314.756 144.597 315.39 143.963 315.39C143.329 316.025 142.695 316.659 141.426 317.293C140.792 317.928 140.158 317.928 139.524 318.562C136.987 320.465 134.45 322.368 131.913 323.636C131.279 324.271 130.645 324.271 130.011 324.271C131.279 323.636 131.913 323.002 132.547 322.368C131.279 323.002 130.011 323.636 128.742 323.636L124.303 324.905C121.132 326.173 117.961 326.808 113.521 328.711C110.985 329.979 109.082 330.613 107.179 331.248C106.545 331.248 105.911 331.882 105.277 331.882C104.008 332.516 103.374 333.151 102.106 333.785C101.472 334.419 100.838 334.419 100.203 335.053L98.3007 336.322C95.1297 338.225 95.7639 337.591 91.9587 338.859L90.0561 339.494L86.2509 340.762C81.8116 342.031 77.3722 342.665 72.9328 343.934C72.2986 343.934 71.0302 344.568 70.396 344.568H69.1276H68.4934C68.4934 344.568 67.225 344.568 67.225 343.934L68.4934 343.299C69.7618 343.299 71.6644 342.665 72.9328 342.665C78.6406 341.396 83.7141 340.762 88.1535 339.494C89.4219 338.859 90.6903 338.859 92.5929 338.225L95.1297 336.956C95.7639 336.956 95.7639 336.322 96.3981 336.322C98.3007 335.053 102.106 332.516 107.179 329.345C102.74 331.248 99.5691 333.151 97.0323 334.419C94.4955 335.688 95.1297 335.688 91.9587 336.322C88.1535 337.591 83.0799 338.859 78.6406 339.494L71.0302 341.396L69.1276 342.031H68.4934L64.6882 342.665C65.9566 342.665 67.225 342.665 69.1276 342.665C69.1276 342.665 71.0302 342.665 71.6644 342.665C71.0302 342.665 70.396 343.299 69.7618 343.299C69.7618 343.299 69.7618 343.299 68.4934 343.299C67.8592 343.299 66.5908 343.299 65.3224 343.934C64.054 343.934 61.5172 344.568 59.6146 345.202C57.712 345.836 57.0778 345.836 56.4436 346.471C54.541 347.105 55.8094 347.739 53.9068 349.008C53.2726 349.008 53.2726 349.008 52.6384 349.642L6.34198 369.939L46.9307 392.14C52.0042 395.311 55.8094 395.311 58.3462 395.945C60.883 396.58 63.4198 396.58 64.6882 396.58C65.3224 396.58 65.3224 396.58 65.9566 396.58C66.5908 396.58 67.225 396.58 67.225 397.214C67.8592 397.214 67.225 397.848 65.9566 397.848C65.3224 397.848 63.4198 397.848 60.2488 397.848C57.0778 397.214 53.9068 397.214 46.2965 393.408L6.97618 373.745L52.6384 347.739C52.6384 347.739 53.2726 347.105 53.9068 347.105L52.6384 347.739L1.2684 368.671L46.2965 394.043C50.7358 396.58 53.9068 397.214 56.4436 397.848C58.9804 398.483 60.883 398.483 62.1514 399.117C65.3224 399.751 65.3224 399.117 68.4934 399.751C72.9328 399.751 76.738 399.751 78.6406 399.751C79.2748 399.751 79.909 399.751 79.909 399.751C79.2748 399.117 79.2748 399.117 79.909 399.117C80.5432 399.117 80.5432 399.117 81.1774 399.117C81.8116 399.117 82.4458 399.117 83.08 399.117C82.4458 399.117 81.1774 399.117 80.5432 398.483L77.3722 397.848C75.4696 397.214 74.2012 397.214 72.9328 396.58C70.396 395.945 69.7618 395.311 72.2986 394.677C74.2012 394.677 77.3722 394.677 80.5432 394.677C82.4457 394.677 83.7141 394.677 84.9825 394.677C86.2509 394.677 87.5193 394.677 88.7877 395.311C93.2271 396.58 96.3981 397.214 101.472 397.848C107.814 399.117 112.887 399.117 116.692 399.751C112.887 399.117 110.35 398.483 107.179 397.848C105.277 397.214 103.374 396.58 101.472 396.58C99.5691 395.945 98.3007 395.945 95.7639 395.311C96.3981 395.945 98.3007 395.945 100.203 396.58C102.106 397.214 104.008 397.848 101.472 397.848C98.3007 397.848 93.2271 396.58 90.0561 395.311C89.4219 394.677 86.8851 394.677 85.6167 394.043H84.9825C84.9825 394.677 84.3484 394.677 83.08 394.677C81.1774 394.677 77.3722 394.677 72.2986 393.408C66.5908 392.14 65.3224 392.14 61.5172 392.14C60.2488 392.14 58.9804 392.14 57.0778 391.505C56.4436 391.505 55.8094 391.505 55.1752 390.871C54.541 390.871 53.9068 390.237 52.6384 390.237H52.0042C51.37 390.237 50.1017 389.603 49.4675 388.968L17.1233 370.574L53.9068 357.254C55.1752 356.619 56.4436 356.619 57.712 355.985H58.3462C62.7856 355.351 64.6882 355.351 67.225 354.716C67.8592 354.716 67.8592 354.716 68.4934 354.716C69.1276 354.716 69.1276 354.716 69.7618 354.082C69.7618 354.082 69.7618 354.082 70.396 354.082C70.396 354.082 71.6644 353.448 72.2986 353.448C72.9328 353.448 73.567 352.814 74.2012 352.814C72.9328 352.814 71.6644 353.448 70.396 353.448C69.7618 353.448 69.1276 353.448 67.8592 354.082C66.5908 354.082 64.6882 354.716 63.4198 354.716C61.5172 355.351 59.6146 355.351 58.3462 355.985H57.712C56.4436 355.985 53.9068 355.985 57.712 354.716C57.712 354.716 57.712 354.716 58.3462 354.716C66.5908 352.179 58.9804 353.448 58.9804 352.814C58.9804 352.814 58.3462 352.814 57.712 352.814C56.4436 352.814 55.1752 353.448 53.9068 354.082L13.9524 372.477L48.8333 390.871C53.9068 393.408 56.4436 394.043 57.712 394.677C58.9804 395.311 59.6146 395.311 58.9804 395.311C58.3462 395.311 60.2488 395.945 60.883 396.58C62.1514 397.214 62.7856 397.214 59.6146 397.214C57.0778 397.214 52.6384 395.945 46.9307 392.774L0 361.694L53.2726 350.276C53.9068 350.276 53.9068 350.276 54.541 350.276C55.8094 350.276 56.4436 350.276 58.3462 350.276C60.2488 349.642 61.5172 349.642 63.4198 349.008C64.6882 349.008 66.5908 348.374 68.4934 348.374C69.7618 348.374 70.396 347.739 71.0302 347.739H71.6644C72.2986 347.739 72.9328 347.105 73.567 347.105C75.4696 346.471 77.3722 346.471 78.6406 345.836C80.5432 345.836 80.5432 345.836 79.909 346.471C79.2748 347.105 78.0064 347.739 75.4696 348.374C73.567 348.374 71.0302 349.008 70.396 349.642C71.0302 349.642 71.0302 349.642 71.6644 349.642C72.2986 349.642 72.9328 349.642 72.9328 349.642C74.2012 350.276 79.2748 349.008 79.2748 348.374C80.5432 347.105 86.2509 345.202 90.0561 343.299C86.8851 343.934 86.2509 345.202 83.7141 345.202C82.4457 345.202 80.5432 345.202 80.5432 344.568C81.1774 343.934 84.3484 343.299 86.2509 342.665C89.4219 342.031 92.5929 340.762 95.1297 340.128C97.0323 339.494 97.0323 339.493 97.6665 338.859L101.472 336.956C103.374 336.322 105.277 335.053 106.545 334.419C107.814 333.785 108.448 333.785 109.716 333.151C110.35 333.151 110.985 332.516 111.619 332.516L112.253 331.882C112.887 331.882 113.521 331.248 113.521 331.248H114.156C114.79 331.248 115.424 331.248 115.424 331.248L113.521 332.516L108.448 335.053C102.106 338.225 102.106 338.225 102.74 338.859C103.374 338.859 104.643 338.859 102.74 340.128C100.838 341.396 104.643 339.493 107.179 338.225C109.716 336.956 111.619 336.322 114.156 335.053H114.79C113.521 336.322 112.253 337.591 109.716 338.859C106.545 340.762 102.74 343.299 100.203 344.568C98.3007 345.202 95.7639 346.471 96.3981 346.471C97.6665 346.471 97.6665 346.471 98.3007 346.471C98.3007 346.471 98.3007 346.471 98.3007 347.105L97.6665 347.739C97.0323 348.374 97.0323 349.008 97.6665 349.008C97.0323 349.642 95.7639 350.276 94.4955 350.911C93.8613 351.545 92.5929 351.545 91.3245 351.545C86.2509 352.814 81.8116 353.448 78.0064 354.716C76.1038 355.351 74.2012 355.985 72.9328 356.619C72.2986 357.254 70.396 357.254 68.4934 357.888C67.8592 357.888 67.225 357.888 66.5908 358.522H65.9566C64.6882 358.522 62.7856 359.157 61.5172 359.791L56.4436 361.694L32.9783 370.574L53.2726 381.991C55.1752 383.26 57.0778 383.894 58.3462 383.894C59.6146 384.528 60.2488 384.528 61.5172 384.528L64.054 385.162C64.6882 385.162 65.9566 385.162 67.225 385.797C67.8592 385.797 67.8592 385.797 68.4934 385.797C69.1276 385.797 69.1276 385.797 69.7618 385.797C70.396 385.797 70.396 385.797 70.396 386.431C69.1276 386.431 68.4934 386.431 67.225 386.431H64.054C61.5172 385.797 58.3462 386.431 53.9068 383.894L31.7099 373.111L57.0778 361.059C58.3462 360.425 59.6146 359.791 62.1514 359.157C64.054 358.522 66.5908 357.888 69.1276 357.888C69.7618 357.888 71.0302 357.254 70.396 357.254C65.9566 357.254 73.567 356.619 73.567 355.985C75.4696 355.351 79.909 354.716 81.8116 354.082C80.5432 354.082 79.2748 354.082 77.3722 354.716L74.8354 355.351L72.9328 355.985C71.6644 355.985 69.7618 356.619 68.4934 356.619C65.9566 357.254 64.054 357.254 61.5172 358.522C60.2488 359.157 60.2488 359.157 58.9804 359.157C58.3462 359.157 57.0778 359.791 56.4436 359.791L24.7337 370.574L52.6384 386.431C55.8094 388.334 58.3462 388.968 59.6146 388.968C60.883 388.968 62.1514 388.968 62.1514 388.968C62.7856 388.334 66.5908 388.968 69.7618 389.602C72.9328 390.237 74.8354 390.237 76.738 390.871C78.6406 390.871 79.2748 390.871 80.5432 390.237H82.4458C84.9825 390.237 85.6167 390.237 86.2509 390.237H86.8851C86.8851 390.237 86.2509 389.602 84.9825 389.602C86.8851 388.968 88.7877 388.968 90.6903 388.968C92.5929 388.968 94.4955 389.603 96.3981 390.237C97.0323 390.871 98.3007 391.505 99.5691 391.505C100.837 391.505 102.106 391.505 103.374 391.505C105.277 391.505 106.545 392.14 108.448 392.14C111.619 392.14 114.156 392.774 117.327 392.774C122.4 393.408 129.376 394.677 135.718 395.311C140.158 395.945 144.597 397.214 149.671 396.58H163.623H176.941C181.381 396.58 186.454 396.58 190.894 395.945C193.43 395.945 195.967 395.311 196.601 394.677C199.138 393.408 201.675 392.774 205.48 392.14C209.285 390.871 212.456 390.237 216.262 389.602C214.993 389.602 211.822 390.237 208.651 390.871C206.114 391.505 201.675 392.14 202.309 391.505C202.943 390.871 204.846 390.237 208.651 388.968C212.456 387.7 216.262 386.431 219.433 385.162H220.067C220.701 385.162 221.335 385.162 221.335 384.528C221.969 384.528 222.604 384.528 222.604 384.528H223.238C223.872 384.528 223.872 384.528 223.872 384.528L226.409 383.894H227.677H228.311C228.946 383.894 230.848 383.894 231.482 383.26C232.751 383.26 233.385 383.26 233.385 383.26C232.117 381.991 241.629 381.357 244.8 380.088C245.435 380.088 246.069 380.088 246.069 380.088C251.142 380.088 256.216 380.088 261.29 379.454H266.997H273.339C276.51 379.454 279.681 379.454 282.852 380.088H283.487H284.121C284.755 380.088 285.389 380.088 285.389 380.088H287.926C292.365 380.088 292.365 379.454 295.536 379.454C296.805 379.454 298.073 379.454 299.341 379.454C300.61 379.454 301.878 379.454 303.147 380.088C305.049 380.088 306.318 380.088 307.586 380.088C309.489 380.088 311.391 380.722 312.66 380.722C313.294 380.722 313.294 380.722 313.928 380.722C317.733 380.088 321.538 380.088 320.27 379.454C318.367 375.014 313.928 373.745 308.22 373.111Z" fill="#C9DF91"/>
<path d="M165.526 116.223C163.623 116.223 161.086 116.223 161.72 116.857C161.72 117.491 163.623 117.491 165.526 117.491C171.233 117.491 175.673 117.491 182.015 116.857C175.673 116.223 170.599 116.857 165.526 116.223Z" fill="#C9DF91"/>
<path d="M202.309 115.589H203.578C204.212 115.589 204.212 116.223 204.212 116.223V116.857C204.212 116.857 204.846 116.857 205.48 116.857C206.114 116.857 207.383 116.857 208.651 116.857C214.993 117.491 224.506 116.857 228.311 118.126C229.58 118.76 234.019 118.126 233.385 117.492C232.116 116.857 235.922 116.857 240.361 116.223C237.824 116.223 235.922 116.223 234.653 116.223C233.385 116.223 232.751 116.223 231.482 116.223C232.116 116.223 232.751 115.589 234.019 115.589C235.922 115.589 237.824 115.589 239.727 115.589C247.337 115.589 249.24 116.857 255.582 116.857C256.216 114.954 256.216 114.954 243.532 114.954H241.629H239.727C239.727 114.32 243.532 114.32 247.337 114.32C247.971 114.32 249.24 114.32 249.874 114.32C254.313 114.32 254.948 113.686 254.948 113.051C254.313 112.417 251.142 113.051 249.24 113.051C237.19 113.051 224.506 113.686 211.822 113.686C208.651 113.686 204.846 113.686 202.943 114.32C197.87 114.32 190.894 113.686 187.088 114.954C188.991 114.954 190.259 114.954 191.528 114.954C194.699 115.589 198.504 115.589 202.309 115.589Z" fill="#C9DF91"/>
<path d="M295.536 283.042C294.902 283.042 293.634 283.042 292.999 283.676C291.731 283.676 293.634 283.676 294.902 284.311C298.707 284.311 304.415 283.676 307.586 284.311C308.22 284.311 307.586 284.945 309.488 284.311C310.757 284.311 311.391 283.676 312.659 283.676C312.659 283.676 312.659 283.676 312.025 283.676C306.318 283.676 300.61 283.676 295.536 283.042Z" fill="#C9DF91"/>
<path d="M339.93 277.333C338.662 277.333 336.759 277.333 336.759 277.333C336.759 277.968 336.125 278.602 343.101 279.236C340.564 277.968 345.004 277.333 339.93 277.333Z" fill="#C9DF91"/>
<path d="M322.173 112.417C317.733 111.783 314.562 111.148 309.489 111.783C307.586 111.783 308.855 112.417 309.489 112.417C313.928 113.051 318.368 112.417 322.173 112.417Z" fill="#C9DF91"/>
<path d="M267.632 125.737C258.119 126.371 247.337 125.737 237.824 126.371L267.632 125.737Z" fill="#C9DF91"/>
<path d="M239.727 132.715C246.069 132.715 253.045 133.35 261.29 132.715C253.045 132.081 246.703 132.081 239.727 132.715Z" fill="#C9DF91"/>
<path d="M303.781 262.11C300.61 263.378 301.244 263.378 301.878 264.013C302.512 264.013 301.244 265.281 305.049 263.379C308.22 262.11 308.22 261.476 308.22 260.841C308.854 260.207 305.683 261.476 303.781 262.11Z" fill="#C9DF91"/>
<path d="M284.121 119.394C279.681 119.394 275.242 119.394 270.168 119.394C273.339 120.663 273.339 120.663 284.121 119.394Z" fill="#C9DF91"/>
<path d="M253.679 127.005C246.069 127.005 237.824 127.005 230.214 127.64C242.264 127.64 248.606 127.64 253.679 127.005Z" fill="#C9DF91"/>
<path d="M62.7856 388.334C65.3224 388.969 66.5908 388.969 67.8592 388.969C69.1276 388.969 71.0302 388.969 72.2986 388.969C74.8354 388.969 77.3722 388.969 81.1774 389.603C73.567 388.334 68.4934 388.969 62.7856 388.334Z" fill="#C9DF91"/>
<path d="M243.532 286.214C242.898 286.214 243.532 285.579 243.532 286.214V286.214Z" fill="#C9DF91"/>
<path d="M192.796 121.297C192.796 121.297 150.939 308.413 150.305 371.842C149.671 435.271 177.576 185.995 244.166 116.223C310.757 46.4509 221.969 67.3825 192.796 121.297Z" fill="#A09FA0"/>
<path d="M223.238 66.1142C222.604 68.6513 225.14 71.1885 227.677 70.5542C242.264 65.4799 278.413 50.2569 277.145 15.3709C274.608 -26.4923 233.385 26.1538 223.238 66.1142Z" fill="#A09FA0"/>
<path d="M190.894 306.51C190.894 306.51 240.995 241.812 265.095 215.806C289.194 189.8 280.316 240.543 270.803 279.235C261.29 317.927 300.61 260.841 322.173 242.446C343.736 224.052 337.394 276.064 336.759 306.51C335.491 336.956 358.956 300.167 364.03 299.533C369.103 298.898 345.638 343.933 327.881 337.59C310.123 331.247 332.954 282.407 325.978 270.355C319.636 258.304 315.197 260.841 275.876 310.315C236.556 359.79 239.727 331.881 249.24 298.264C258.753 264.647 279.047 201.852 198.504 310.95C199.138 311.584 188.991 318.561 190.894 306.51Z" fill="#A09FA0"/>
<path d="M1029.3 285.579C1029.3 285.579 1093.36 234.836 1123.16 215.173C1152.97 195.51 1132.04 243.082 1113.65 277.968C1095.26 312.854 1146.63 267.185 1172 253.865C1197.37 240.544 1178.97 290.019 1170.73 319.197C1162.48 349.008 1193.56 317.928 1199.27 319.197C1204.34 319.831 1170.73 357.888 1155.51 347.74C1140.29 337.591 1173.27 295.728 1169.46 282.408C1166.29 269.088 1161.22 270.356 1111.11 309.682C1061.01 349.008 1070.53 322.368 1087.65 291.288C1104.77 260.842 1139.65 205.024 1035.01 291.922C1035.65 291.922 1024.23 296.362 1029.3 285.579Z" fill="#A09FA0"/>
<path d="M552.387 243.716C552.387 243.716 497.211 300.168 528.287 316.659C559.363 333.151 593.609 288.116 593.609 261.476C592.975 234.836 624.051 257.67 624.051 262.745C624.685 267.819 608.196 364.231 547.947 487.284C487.698 610.336 554.923 433.369 565.705 398.483C575.852 363.597 591.073 306.511 591.073 306.511C591.073 306.511 550.484 352.18 497.846 340.762C445.207 329.979 522.579 246.253 552.387 243.716Z" fill="#A09FA0"/>
<path d="M638.637 251.961C638.637 251.961 660.2 246.253 653.858 273.527C647.516 300.802 630.393 355.985 643.711 351.545C657.029 347.105 671.616 271.624 722.351 254.498C773.087 237.373 718.546 239.91 701.423 244.35C684.299 248.79 674.152 265.916 674.152 265.916C674.152 265.916 675.421 245.618 669.079 244.35C662.737 243.081 641.808 241.813 638.637 251.961Z" fill="#A09FA0"/>
<path d="M809.237 240.544C809.237 240.544 750.256 259.573 738.841 302.705C727.425 345.837 802.895 314.757 811.139 296.362C819.384 277.968 822.555 263.379 822.555 263.379C822.555 263.379 857.436 257.67 856.168 274.162C854.899 290.653 850.46 326.808 873.925 335.054C897.39 343.3 849.826 349.643 833.336 335.054C816.847 320.465 823.823 307.779 823.823 307.779C823.823 307.779 767.38 355.351 719.815 343.934C672.25 332.517 740.109 242.447 809.237 240.544Z" fill="#A09FA0"/>
<path d="M1367.33 240.544C1367.33 240.544 1308.35 259.573 1296.94 302.705C1285.52 345.837 1360.99 314.757 1369.23 296.362C1377.48 277.968 1380.65 263.379 1380.65 263.379C1380.65 263.379 1415.53 257.67 1414.26 274.162C1412.99 290.653 1408.55 326.808 1432.02 335.054C1455.48 343.3 1407.92 349.643 1391.43 335.054C1374.94 320.465 1381.92 307.779 1381.92 307.779C1381.92 307.779 1325.47 355.351 1277.91 343.934C1230.34 332.517 1298.2 242.447 1367.33 240.544Z" fill="#A09FA0"/>
<path d="M962.078 244.985C962.078 244.985 910.074 251.962 883.438 308.414C856.801 364.866 947.492 344.569 972.86 321.734C998.227 298.9 991.251 331.883 991.251 331.883C991.251 331.883 1042.62 353.449 1043.89 348.374C1045.16 343.3 1025.5 336.957 1019.79 319.831C1014.08 302.705 1005.2 282.408 1066.09 171.407C1126.97 60.4063 1129.51 -29.0287 1060.38 12.8345C1060.38 12.8345 1040.08 26.1546 1076.23 19.1774C1112.38 12.2002 1097.16 36.9375 1097.16 36.9375C1097.16 36.9375 1064.82 114.321 1035.01 175.847C1005.2 237.373 987.446 310.317 952.565 316.026C917.684 321.734 899.927 291.923 963.981 249.425C963.981 248.791 968.42 246.254 962.078 244.985Z" fill="#A09FA0"/>
<path d="M1218.93 267.184C1218.93 267.184 1238.59 272.258 1224 308.413C1209.42 344.568 1166.29 440.345 1154.87 483.477C1143.46 526.609 1150.44 531.049 1154.87 524.706C1159.31 518.363 1195.46 448.591 1218.93 376.916C1242.39 305.241 1256.98 264.647 1237.32 260.841C1217.66 257.67 1218.93 267.184 1218.93 267.184Z" fill="#A09FA0"/>
<path d="M1250.64 212.635C1250.64 212.635 1262.05 156.817 1292.5 137.789C1322.94 119.394 1334.99 137.154 1307.08 158.72C1279.81 180.286 1270.93 202.486 1267.13 207.561C1263.32 212.635 1255.08 217.709 1250.64 212.635Z" fill="#A09FA0"/>
</svg>
