<svg width="830" height="579" viewBox="0 0 830 579" fill="none" xmlns="http://www.w3.org/2000/svg">
<path d="M572.185 94.5808C572.185 90.8097 572.656 89.8669 571.713 88.9241C568.414 85.6244 560.873 93.6381 549.562 93.1667C539.664 92.6953 538.25 86.5672 530.709 87.9814C523.168 89.3955 523.167 95.0522 515.155 96.4664C508.085 97.4092 506.2 92.6953 499.13 94.1095C492.06 95.5236 492.06 100.709 484.519 102.594C475.564 104.951 471.793 98.8234 464.724 102.123C458.596 104.48 460.01 108.723 453.412 111.551C446.813 114.379 443.985 109.665 436.916 112.494C430.317 114.851 431.26 119.565 424.661 122.864C416.649 126.635 412.407 121.45 406.28 125.693C400.624 129.464 402.98 134.178 397.324 137.477C390.726 141.72 385.541 136.535 379.414 140.777C374.23 144.548 376.586 148.791 370.93 153.505C364.332 159.161 358.676 154.919 352.549 160.104C346.893 164.818 350.192 169.061 344.537 174.246C337.938 179.903 331.811 176.132 326.155 181.788C321.913 186.502 324.741 189.802 320.028 194.987C314.372 200.644 308.716 197.815 304.474 203.472C300.704 208.657 304.474 212.429 300.703 217.614C296.461 223.742 289.863 220.914 285.15 227.042C280.437 232.698 284.679 237.412 279.965 243.54C275.252 250.14 269.596 247.312 264.883 253.44C260.17 260.039 265.826 265.696 260.641 272.767C256.399 278.895 251.215 277.009 248.387 282.666C245.087 289.265 250.272 293.979 246.973 300.107C244.145 305.293 239.432 303.878 236.604 309.064C232.833 315.663 238.96 320.377 236.132 327.448C233.305 334.519 226.706 333.105 224.349 339.704C221.522 347.246 228.591 351.018 226.235 358.56C223.878 366.102 215.394 365.631 214.452 371.759C213.509 378.358 222.464 381.658 221.521 388.729C220.579 394.857 212.095 395.328 210.681 401.928C209.267 408.527 216.337 410.884 215.865 417.955C215.394 425.969 205.968 427.854 205.497 435.397C205.025 438.225 205.968 442.467 212.095 448.124C212.566 448.596 213.509 449.067 214.452 449.067C224.821 449.067 235.19 449.067 246.03 449.067C247.915 449.067 249.801 447.181 249.801 445.296C249.329 416.541 252.629 363.745 280.437 305.764C289.863 286.437 317.2 233.641 375.644 189.802C452.94 131.349 535.422 125.221 569.357 125.221C571.242 125.221 573.128 123.807 573.128 121.45C571.714 114.379 571.242 109.665 572.185 94.5808Z" fill="#6AA554"/>
<path d="M566.529 8.31563C566.529 4.07311 567 2.18755 566.058 1.24476C562.287 -2.52636 552.86 6.90145 538.249 6.43006C525.995 5.95867 524.11 -1.58359 514.683 0.301978C505.257 2.18754 505.257 9.25841 495.359 10.6726C486.404 12.0868 484.047 5.95868 475.092 7.84424C466.137 9.25842 466.609 15.8579 457.182 18.6862C446.342 21.986 441.629 13.9723 432.202 18.2148C424.661 21.0432 426.075 26.6999 418.062 29.9996C409.579 33.2993 406.279 28.114 397.796 30.9424C389.783 33.7707 391.197 39.4274 382.242 43.67C372.344 48.3839 367.16 42.2558 359.147 46.9697C352.077 51.6836 354.905 57.3403 347.835 62.0542C339.352 67.2395 333.224 60.64 325.212 65.8253C318.613 70.0679 321.913 76.1959 314.843 81.8526C306.83 88.9235 299.761 83.2668 291.748 90.3377C284.678 96.4658 288.449 101.651 281.379 108.251C273.367 115.793 265.354 110.607 258.284 117.678C252.628 123.335 256.399 128.049 250.743 134.177C244.145 141.248 236.604 137.477 231.419 144.548C226.706 150.676 231.419 155.39 227.177 162.46C221.992 170.474 213.509 166.703 207.853 174.245C202.197 181.316 207.381 186.973 201.726 194.986C195.598 203 188.529 199.7 183.344 207.243C177.688 215.728 184.287 222.327 178.159 231.284C172.975 238.826 166.848 236.469 163.077 243.54C158.835 251.553 165.434 257.21 161.192 265.224C157.421 271.823 151.766 269.938 147.995 276.537C143.753 284.551 150.823 290.207 147.052 299.635C143.282 308.592 135.269 306.706 132.441 315.191C129.142 324.148 137.626 329.333 134.327 338.289C131.027 347.246 120.658 346.774 119.716 354.317C118.302 362.802 130.085 366.573 128.671 375.058C127.257 383.072 116.888 383.072 115.474 391.557C114.06 399.57 122.544 402.398 122.072 411.355C121.13 421.254 109.818 423.611 108.875 433.039C108.404 436.81 109.818 441.995 116.888 449.066C117.83 450.009 118.773 450.48 120.187 450.48C133.384 450.48 146.11 450.48 159.307 450.952C161.663 450.952 164.02 449.066 164.02 446.238C163.548 410.412 167.791 344.889 202.197 272.766C213.509 248.725 247.915 183.202 320.499 128.52C416.648 55.9261 519.397 48.3839 561.816 47.9125C564.172 47.9125 566.529 46.0269 566.529 43.1986C566.057 32.828 565.586 27.1713 566.529 8.31563Z" fill="#6AA554"/>
<path d="M591.508 288.794C602.349 288.794 613.189 288.794 624.03 288.794C626.386 288.794 627.8 285.966 626.386 284.08C616.96 271.352 602.349 264.753 588.209 266.638C569.828 269.467 560.872 285.965 559.93 287.38C559.459 288.322 558.987 289.737 558.516 290.679H374.7V286.437C374.7 285.023 374.229 284.08 373.286 283.137L350.663 259.568C349.72 258.625 348.307 258.153 346.893 258.153H345.007C343.593 258.153 342.179 257.682 341.237 256.739L320.498 235.998C320.498 235.998 320.027 235.998 320.027 235.527C341.708 214.785 363.389 202.058 370.93 197.815C431.259 163.404 489.703 161.047 518.925 161.518C518.925 154.447 518.925 147.377 518.454 140.306C496.773 141.248 466.137 144.077 431.731 153.505C415.706 157.747 387.898 165.761 358.676 182.259C296.461 216.671 264.883 269.938 254.042 288.794C217.279 352.903 213.98 413.713 213.98 443.41C220.107 443.41 226.234 442.939 231.89 442.939C233.775 410.413 242.259 319.906 304.945 249.668L324.74 267.11C325.683 268.053 326.154 268.995 326.626 269.938L328.04 277.009C328.04 277.952 328.511 278.895 329.454 279.366L349.249 301.05C350.192 301.993 351.134 302.464 352.077 302.464L355.376 302.936C357.262 303.407 358.676 304.35 359.147 306.235L360.09 308.121C360.561 309.064 361.032 309.535 361.503 310.006L372.815 320.848C373.758 321.791 375.172 322.263 376.586 322.263H558.045C561.815 333.576 569.356 343.004 580.668 346.775C595.279 351.489 612.718 345.361 624.501 331.219C625.915 329.333 624.501 326.505 622.144 326.505C611.775 326.505 601.406 326.034 591.037 326.034C589.623 326.034 588.209 324.62 588.209 323.205C588.209 312.363 588.209 301.521 588.209 290.208C588.68 290.208 589.623 288.794 591.508 288.794Z" fill="#98999D"/>
<path d="M427.018 323.677C420.89 323.677 415.706 318.492 415.706 312.364V285.495C415.706 279.366 420.89 274.181 427.018 274.181C433.145 274.181 438.329 279.366 438.329 285.495V312.364C438.329 318.492 433.145 323.677 427.018 323.677Z" fill="#707070"/>
<path d="M455.298 323.677C448.699 323.677 443.515 318.492 443.515 311.892V276.067C443.515 269.467 448.699 264.282 455.298 264.282C461.896 264.282 467.081 269.467 467.081 276.067V311.892C467.081 318.02 461.896 323.677 455.298 323.677Z" fill="#707070"/>
<path d="M482.634 323.676C476.036 323.676 470.851 318.491 470.851 311.892V279.837C470.851 273.238 476.036 268.052 482.634 268.052C489.233 268.052 494.417 273.238 494.417 279.837V311.892C494.417 318.491 489.233 323.676 482.634 323.676Z" fill="#707070"/>
<path d="M507.143 286.908C504.315 285.022 501.016 286.908 500.544 290.208L498.659 312.363C498.659 313.306 498.659 314.72 499.602 315.663C501.958 318.491 501.958 319.905 501.958 321.319C500.544 326.505 487.347 322.262 474.622 327.919C460.011 334.047 451.998 347.717 449.17 354.788C444.457 366.101 444.929 377.415 445.871 385.428C442.572 373.644 440.687 359.973 447.285 348.189C452.941 336.875 462.839 333.104 461.896 329.333C460.953 325.562 450.584 323.676 416.178 328.39C411.464 328.862 410.051 333.104 410.051 337.818C410.051 362.33 418.534 379.3 425.133 386.843V451.423H495.831V390.142V387.785C509.971 378.829 525.996 364.687 535.422 344.889C538.722 338.289 539.664 334.047 539.664 329.333C538.721 308.592 517.983 293.507 507.143 286.908Z" fill="#707070"/>
<path d="M40.0624 549.944H18.3817C8.48391 549.944 0 541.93 0 531.56V444.824C0 442.938 1.41391 441.053 3.77052 441.053H10.8403C12.7256 441.053 14.6112 442.467 14.6112 444.824V528.26C14.6112 532.503 17.9103 535.802 22.1522 535.802H40.5339C41.9478 535.802 42.8905 536.745 42.8905 538.159V547.587C42.4191 549.001 41.4763 549.944 40.0624 549.944Z" fill="#707070"/>
<path d="M100.863 550.887H66.4564C56.5586 550.887 48.0747 542.873 48.0747 532.503V498.091C48.0747 488.192 56.0873 479.707 66.4564 479.707H100.863C110.761 479.707 119.244 487.721 119.244 498.091V532.503C118.773 542.873 110.761 550.887 100.863 550.887ZM66.4564 494.32C64.0998 494.32 62.2144 496.206 62.2144 498.563V532.974C62.2144 535.331 64.0998 537.217 66.4564 537.217H100.863C103.219 537.217 105.105 535.331 105.105 532.974V498.563C105.105 496.206 103.219 494.32 100.863 494.32H66.4564Z" fill="#707070"/>
<path d="M152.709 549.943H144.225C142.811 549.943 141.397 548.529 141.397 547.115V458.493C141.397 457.079 142.811 455.665 144.225 455.665H152.709C154.123 455.665 155.536 457.079 155.536 458.493V547.115C155.536 548.529 154.123 549.943 152.709 549.943Z" fill="#707070"/>
<path d="M199.84 549.944L164.962 523.074C162.134 520.717 160.72 517.418 160.72 514.118C160.72 510.818 162.134 507.518 164.962 505.161L198.426 479.235H212.566C214.451 479.235 215.394 481.592 213.98 482.535L180.045 510.818C178.159 512.704 178.159 515.532 180.045 517.418L216.336 546.172C217.75 547.587 216.808 549.472 214.922 549.472L199.84 549.944Z" fill="#707070"/>
<path d="M241.788 549.945H234.247C232.362 549.945 230.948 548.53 230.948 546.645V498.563C230.948 488.664 238.96 480.179 249.329 480.179H292.22C294.105 480.179 295.519 481.593 295.519 483.478V491.021C295.519 492.906 294.105 494.32 292.22 494.32H249.329C246.973 494.32 245.087 496.206 245.087 498.563V546.645C245.087 548.53 243.673 549.945 241.788 549.945Z" fill="#707070"/>
<path d="M317.2 549.944H309.187C307.302 549.944 306.359 548.53 306.359 547.116V477.35C306.359 475.464 307.774 474.521 309.187 474.521H317.2C319.085 474.521 320.028 475.936 320.028 477.35V546.644C320.499 548.53 319.085 549.944 317.2 549.944Z" fill="#707070"/>
<path d="M410.993 549.944H404.866C402.509 549.944 401.095 548.058 401.095 546.172V497.619C401.095 495.262 399.21 493.377 396.853 493.377H362.447C360.09 493.377 358.205 495.262 358.205 497.619V546.172C358.205 548.529 356.319 549.944 354.434 549.944H348.307C345.95 549.944 344.536 548.058 344.536 546.172V497.619C344.536 487.72 352.549 479.235 362.918 479.235H397.324C407.222 479.235 415.706 487.249 415.706 497.619V546.172C414.763 548.058 412.878 549.944 410.993 549.944Z" fill="#707070"/>
<path d="M495.359 578.228H471.793C468.965 578.228 466.137 575.871 466.137 572.571V569.271C466.137 566.443 468.493 563.615 471.793 563.615H495.359C497.715 563.615 499.601 561.729 499.601 559.372V496.677C499.601 494.32 497.715 492.434 495.359 492.434H451.526C449.169 492.434 447.284 494.32 447.284 496.677V531.089C447.284 533.445 449.169 535.331 451.526 535.331H477.448C480.276 535.331 483.104 537.688 483.104 540.988V544.287C483.104 547.116 480.748 549.944 477.448 549.944H451.526C441.628 549.944 433.144 541.931 433.144 531.56V497.148C433.144 487.249 441.157 478.764 451.526 478.764H495.359C505.257 478.764 513.74 486.778 513.74 497.148V559.843C513.74 569.743 505.728 578.228 495.359 578.228Z" fill="#707070"/>
<path d="M617.902 549.943H578.783C568.885 549.943 560.401 541.93 560.401 531.559V497.148C560.401 487.248 568.413 478.763 578.783 478.763H609.89V492.905H578.783C576.426 492.905 574.541 494.791 574.541 497.148V531.559C574.541 533.916 576.426 535.802 578.783 535.802H617.902C620.259 535.802 622.144 533.916 622.144 531.559V446.237C622.144 443.409 624.501 441.523 626.857 441.523H631.099C633.927 441.523 635.813 443.88 635.813 446.237V531.559C636.284 541.458 628.272 549.943 617.902 549.943Z" fill="#707070"/>
<path d="M712.167 549.944H677.76C667.862 549.944 659.379 541.931 659.379 531.56V497.148C659.379 487.249 667.391 478.764 677.76 478.764H712.167C722.065 478.764 730.548 486.778 730.548 497.148V531.56C730.548 541.459 722.536 549.944 712.167 549.944ZM678.232 493.377C675.875 493.377 673.99 495.263 673.99 497.62V532.031C673.99 534.388 675.875 536.274 678.232 536.274H712.638C714.995 536.274 716.88 534.388 716.88 532.031V497.62C716.88 495.263 714.995 493.377 712.638 493.377H678.232Z" fill="#707070"/>
<path d="M811.145 549.944H776.738C766.84 549.944 758.356 541.931 758.356 531.56V497.148C758.356 487.249 766.369 478.764 776.738 478.764H811.145C821.042 478.764 829.526 486.778 829.526 497.148V531.56C829.526 541.459 821.514 549.944 811.145 549.944ZM777.209 493.377C774.853 493.377 772.967 495.263 772.967 497.62V532.031C772.967 534.388 774.853 536.274 777.209 536.274H811.616C813.972 536.274 815.858 534.388 815.858 532.031V497.62C815.858 495.263 813.972 493.377 811.616 493.377H777.209Z" fill="#707070"/>
<path d="M313.429 467.452C319.416 467.452 324.269 462.597 324.269 456.61C324.269 450.622 319.416 445.768 313.429 445.768C307.442 445.768 302.588 450.622 302.588 456.61C302.588 462.597 307.442 467.452 313.429 467.452Z" fill="#707070"/>
<path d="M534.95 547.587C540.937 547.587 545.791 542.733 545.791 536.745C545.791 530.757 540.937 525.903 534.95 525.903C528.963 525.903 524.11 530.757 524.11 536.745C524.11 542.733 528.963 547.587 534.95 547.587Z" fill="#707070"/>
</svg>
