<svg width="1965" height="306" viewBox="0 0 1965 306" fill="none" xmlns="http://www.w3.org/2000/svg">
<path d="M329.373 249.966V304.423H275.816C275.816 304.423 274.924 254.43 274.924 249.966C274.031 204.437 274.924 158.907 274.924 106.235C248.145 149.979 225.83 187.475 201.73 229.433C192.804 245.503 185.663 261.572 162.455 260.679C141.032 259.786 133.891 243.717 124.965 227.648C104.435 189.26 83.0127 150.872 56.2344 102.664C54.4492 165.156 55.3418 216.935 53.5566 266.928C53.5566 277.641 53.5566 299.96 53.5566 299.96C53.5566 299.96 38.3822 299.96 26.7783 299.96C16.9596 299.96 0 299.96 0 299.96C0 299.96 0 277.641 0 266.036C1.78522 200.866 0 135.696 0 69.6328C0 60.7054 0 50.8852 3.57044 43.7433C11.6039 27.674 21.4226 9.81916 38.3822 6.2482C57.127 2.67724 64.2679 22.3175 72.3014 36.6014C95.5092 79.4529 118.717 122.304 141.925 165.156C146.388 174.083 148.173 187.475 160.67 187.475C173.166 187.475 174.951 174.083 180.307 166.049C204.408 120.519 230.293 74.9892 252.609 28.5667C265.105 2.67724 284.742 0.89175 307.95 3.56997C330.266 6.24819 325.802 31.2449 325.802 46.4215C329.373 114.27 329.373 182.118 329.373 249.966Z" fill="#B8AE8B"/>
<path d="M989.904 249.966V295.496C989.904 300.853 986.334 304.423 980.978 304.423H945.274C940.811 304.423 936.347 300.853 936.347 295.496C936.347 281.212 936.347 253.537 936.347 249.966C935.455 204.437 936.347 158.907 936.347 106.235C909.569 149.979 887.254 187.475 863.153 229.433C854.227 245.503 847.086 261.572 823.879 260.679C802.456 259.786 795.315 243.717 786.389 227.648C765.859 189.26 744.436 150.872 717.658 102.664C715.873 165.156 716.765 216.935 714.98 266.928C714.98 273.178 714.98 283.89 714.98 291.032C714.98 296.389 711.41 299.96 706.054 299.96C700.699 299.96 694.45 299.96 688.202 299.96C682.846 299.96 675.705 299.96 670.35 299.96C664.994 299.96 661.424 296.389 661.424 291.032C661.424 283.89 661.424 273.178 661.424 266.036C664.102 200.866 661.424 135.696 661.424 69.6328C661.424 60.7054 661.424 50.8852 664.994 43.7433C673.028 27.674 682.846 9.81916 699.806 6.2482C718.551 2.67724 725.692 22.3175 733.725 36.6014C756.933 79.4529 780.141 122.304 803.349 165.156C807.812 174.083 809.597 187.475 822.093 187.475C834.59 187.475 836.375 174.083 841.731 166.049C865.831 120.519 891.717 74.9892 914.032 28.5667C926.529 2.67724 946.166 0.89175 969.374 3.56997C991.689 6.24819 987.226 31.2449 987.226 46.4215C989.904 114.27 989.904 182.118 989.904 249.966Z" fill="#B8AE8B"/>
<path d="M401.674 304.426C405.245 304.426 408.815 304.426 413.278 304.426C415.063 304.426 415.956 304.426 417.741 304.426H401.674ZM413.278 0.893799C414.171 0.893799 417.741 0.893799 418.634 0.893799C419.526 0.893799 419.526 0.893799 419.526 0.893799H413.278ZM420.419 1.78654H413.278C414.171 1.78654 415.956 1.78654 416.849 1.78654C419.526 1.78654 421.312 1.78654 423.097 1.78654C422.204 1.78654 421.312 1.78654 420.419 1.78654ZM417.741 304.426H428.452C423.989 304.426 421.312 304.426 417.741 304.426Z" fill="#B8AE8B"/>
<path d="M413.279 1.78654C414.171 1.78654 415.957 1.78654 416.849 1.78654C419.527 1.78654 421.312 1.78654 423.097 1.78654C420.42 1.78654 419.527 1.78654 419.527 1.78654H413.279ZM420.42 0.893799H413.279C414.171 0.893799 417.742 0.893799 418.634 0.893799C420.42 0.893799 420.42 0.893799 420.42 0.893799Z" fill="#B8AE8B"/>
<path d="M427.56 0.893799C425.774 0.893799 427.56 1.78654 427.56 0.893799V0.893799Z" fill="#B8AE8B"/>
<path d="M572.163 156.231C554.31 143.732 564.129 134.805 573.948 124.985C595.37 103.559 601.619 78.5622 589.122 51.78C575.733 23.2123 553.418 4.46475 522.176 2.67927C490.043 0.893789 457.016 0.893799 430.238 0.893799C428.452 0.893799 428.452 0.893799 428.452 0.893799C419.526 0.893799 422.204 0.893799 420.419 0.893799C418.634 0.893799 415.956 0.893799 415.063 0.893799H396.319C390.07 0.893799 384.715 6.25024 384.715 12.4994V36.6034C384.715 36.6034 384.715 39.2816 384.715 41.0671C386.5 78.5622 384.715 116.95 384.715 152.66C384.715 187.477 384.715 233.006 384.715 268.716V291.034C384.715 299.069 390.963 304.426 398.104 304.426H418.634C422.204 304.426 425.775 304.426 429.345 304.426C464.157 303.533 499.861 306.211 534.673 299.962C545.384 298.176 556.096 293.713 565.022 287.464C587.337 272.287 606.082 253.539 606.082 212.473C605.189 189.262 590.907 169.622 572.163 156.231ZM543.599 213.366C543.599 239.256 522.176 260.681 496.291 260.681H445.412C440.056 260.681 435.593 256.218 435.593 250.861V179.442C435.593 174.978 439.164 171.407 443.627 171.407H500.754C524.854 170.515 543.599 189.262 543.599 213.366ZM543.599 79.455C543.599 105.344 522.176 126.77 496.291 126.77H444.519C440.056 126.77 435.593 123.199 435.593 117.843V48.2091C435.593 41.9599 440.949 36.6034 447.197 36.6034H500.754C524.854 36.6034 543.599 55.351 543.599 79.455Z" fill="#B8AE8B"/>
<path d="M1316.6 261.574C1305.89 243.719 1291.61 228.542 1280.89 210.687C1269.29 191.94 1261.26 182.12 1261.26 182.12C1277.32 172.3 1309.46 149.981 1314.81 112.486C1314.81 112.486 1314.81 111.593 1314.81 110.701C1316.6 104.451 1316.6 98.2021 1316.6 91.0602C1316.6 78.5619 1313.92 66.9562 1309.46 56.2433V55.3506C1300.53 37.4958 1284.47 21.4265 1262.15 10.7136C1253.22 7.14262 1244.3 4.46439 1235.37 3.57165C1232.69 3.57165 1229.12 2.67891 1226.45 2.67891C1212.16 0.893426 1197.88 1.78618 1182.71 1.78618C1167.53 1.78618 1153.25 2.67892 1138.08 1.78618C1137.18 1.78618 1134.51 1.78618 1134.51 1.78618C1125.58 1.78618 1117.55 4.46439 1113.08 8.9281C1112.19 9.82084 1112.19 9.82084 1111.3 10.7136C1110.41 11.6063 1109.51 13.3918 1108.62 15.1773C1107.73 16.9628 1106.84 18.7482 1106.84 20.5337C1105.94 23.2119 1105.94 26.7829 1105.94 30.3539V181.227C1105.94 197.296 1105.94 213.366 1105.94 230.328V296.391C1105.94 300.854 1109.51 304.425 1113.98 304.425H1160.39C1164.86 304.425 1168.43 300.854 1168.43 296.391V231.22C1168.43 227.65 1168.43 223.186 1168.43 219.615C1169.32 208.009 1163.96 191.047 1180.92 190.154C1195.2 189.262 1205.02 189.262 1214.84 204.438C1222.88 216.937 1230.91 229.435 1238.94 241.933C1250.55 258.895 1260.36 277.643 1274.65 292.82C1280.89 299.961 1282.68 301.747 1290.71 301.747C1303.21 302.64 1319.28 302.64 1331.77 301.747C1351.41 299.069 1323.74 273.179 1316.6 261.574ZM1266.61 100.88C1266.61 122.306 1246.98 143.732 1224.66 143.732H1179.14C1172 143.732 1169.32 137.483 1169.32 130.341V58.9215C1169.32 50.8869 1172 45.5304 1179.14 45.5304H1225.55C1246.98 45.5304 1267.51 58.9216 1267.51 80.3473V100.88H1266.61Z" fill="#B8AE8B"/>
<path d="M1619.19 241.933L1618.3 240.147C1591.52 169.621 1563.85 99.0942 1537.07 28.5677C1529.93 9.82015 1517.44 0 1496.91 0C1479.05 0 1465.66 5.35644 1458.52 22.3185C1426.39 96.416 1387.11 199.974 1354.98 280.321L1348.73 295.497C1346.95 299.961 1349.63 304.424 1354.09 304.424H1396.93C1401.4 304.424 1404.97 301.746 1406.75 298.175L1427.28 242.825L1430.85 233.898H1557.6L1562.07 244.611L1583.49 299.961C1584.38 303.532 1587.95 305.317 1591.52 305.317H1642.4L1619.19 241.933ZM1532.61 179.441H1458.52C1455.85 179.441 1449.6 177.655 1453.17 169.621L1471.91 117.842L1489.76 67.8483V66.9555C1490.66 66.0628 1491.55 65.1701 1492.44 64.2773C1493.34 64.2773 1493.34 64.2773 1493.34 64.2773C1496.01 63.3846 1498.69 65.17 1499.58 67.8483L1535.29 169.621C1540.64 179.441 1534.4 179.441 1532.61 179.441Z" fill="#B8AE8B"/>
<path d="M1814.68 0H1703.1C1695.07 0 1688.82 6.24919 1688.82 14.2839L1686.14 291.033C1686.14 299.068 1692.39 305.317 1700.42 305.317H1817.35C1898.58 305.317 1964.63 249.967 1964.63 168.728V144.624C1964.63 59.8136 1898.58 0 1814.68 0ZM1901.26 152.659C1901.26 212.472 1860.2 259.787 1799.5 259.787H1765.58C1757.55 259.787 1751.3 253.538 1751.3 245.504V60.7063C1751.3 52.6717 1757.55 46.4225 1765.58 46.4225H1799.5C1859.31 46.4225 1901.26 93.7378 1901.26 153.551V152.659Z" fill="#B8AE8B"/>
</svg>
