<svg width="1476" height="396" viewBox="0 0 1476 396" fill="none" xmlns="http://www.w3.org/2000/svg">
<path d="M0 102.711V382.954C0 389.756 5.44094 395.198 12.242 395.198H70.0506C76.8517 395.198 82.2924 389.756 82.2924 382.954V238.751L155.744 351.665C157.784 355.066 161.864 357.106 165.945 357.106H189.068C193.149 357.106 197.23 355.066 199.27 350.985L265.92 235.35V382.954C265.92 389.756 271.361 395.198 278.162 395.198H342.772C349.573 395.198 355.013 389.756 355.013 383.634L357.054 103.391C357.054 95.909 350.933 89.7871 343.452 89.7871H291.764C287.003 89.7871 282.242 92.5079 280.202 96.5892L176.827 265.279L82.9725 96.5892C80.2521 92.5079 76.1716 89.1069 70.7308 89.1069H14.2822C6.12096 89.1069 0 95.2287 0 102.711Z" fill="#98999D"/>
<path d="M1210.58 157.127H1360.2L1203.78 334.66V395.198H1475.82V327.178L1319.4 327.858L1469.02 142.163V89.1069H1210.58V157.127Z" fill="#98999D"/>
<path d="M1254.11 7.48222L1306.48 64.6192C1308.52 67.34 1311.92 68.7004 1315.32 68.7004H1375.17C1378.57 68.7004 1381.97 67.34 1384.69 64.6192L1435.02 8.16242C1437.74 5.44161 1435.7 0.680201 1431.62 0.680201H1384.01C1381.97 0.680201 1380.61 1.3604 1379.25 2.72081L1353.4 31.9695C1352.04 34.0101 1349.32 34.6903 1347.28 34.6903H1345.92C1343.88 34.6903 1341.16 34.0101 1339.8 31.9695L1312.6 2.04061C1311.24 0.680203 1309.88 0 1307.84 0H1257.51C1253.43 0 1251.39 4.76141 1254.11 7.48222Z" fill="#98999D"/>
<path d="M486.273 395.198H423.704C416.223 395.198 410.782 389.076 410.782 382.274V102.031C410.782 94.5485 416.903 89.1069 423.704 89.1069H486.273C493.754 89.1069 499.195 95.2287 499.195 102.031V382.274C499.195 389.076 493.074 395.198 486.273 395.198Z" fill="#98999D"/>
<path d="M550.883 105.431V387.034C550.883 391.796 554.963 395.877 559.724 395.877H624.334C629.094 395.877 633.175 391.796 633.175 387.034V238.75L706.626 351.664C708.666 355.065 712.747 357.105 716.828 357.105L739.271 357.786C743.352 357.786 747.432 355.745 750.153 351.664L817.483 235.349V387.034C817.483 391.796 821.563 395.877 826.324 395.877H897.735C902.495 395.877 905.896 391.796 905.896 387.715L907.936 106.111C907.936 97.2684 900.455 89.7861 891.614 89.7861H840.606C834.485 89.7861 829.724 93.1871 826.324 97.9485L733.83 260.517L634.535 97.9485C631.815 93.1871 626.374 90.4663 620.933 90.4663H567.205C558.364 89.1059 550.883 96.5881 550.883 105.431Z" fill="#98999D"/>
<path d="M1037.84 395.197H973.226C966.425 395.197 960.985 389.756 960.985 382.954V100.67C960.985 93.8679 966.425 88.4263 973.226 88.4263H1037.84C1044.64 88.4263 1050.08 93.8679 1050.08 100.67V382.954C1050.08 389.756 1044.64 395.197 1037.84 395.197Z" fill="#98999D"/>
</svg>
