<svg width="1133" height="339" viewBox="0 0 1133 339" fill="none" xmlns="http://www.w3.org/2000/svg">
<path d="M1068.98 39.8774H1069.82H1071.08H1074.43H1078.63H1089.12H1100.46H1111.79H1122.7H1126.48H1129H1131.51H1132.35V41.5565V42.8158V46.1739V49.532V54.5691V64.2237V76.3968V89.4094V118.793V148.176V162.028V173.362V183.856V188.054V191.832V194.35V196.869V197.708V198.548H1131.51H1129H1126.48H1122.7H1111.79H1100.46H1089.12H1078.63H1074.43H1071.08H1069.82H1068.98V197.708V196.869V194.35V191.832V188.054V183.856V173.362V162.028V148.176V118.793V89.4094V76.3968V64.2237V54.5691V49.532V46.1739V42.8158V41.5565V39.8774Z" fill="#98999D"/>
<path d="M1076.95 248.079V247.24H1077.79H1079.47H1082.83H1086.61H1096.68H1107.17H1117.66H1121.86H1124.8H1128.16H1129V248.079V248.919V254.795V259.413V261.092H1128.16V259.413V256.475L1126.48 254.795L1124.8 253.116L1122.7 251.437L1119.34 250.598H1115.99L1114.31 249.758H1113.47H1111.79H1108.85H1101.3H1097.94H1096.68L1095.84 250.598V251.437V253.956V256.475V259.413V267.808V275.784V283.339V286.278V287.957V289.636H1097.1H1099.62H1105.49H1108.85H1110.95H1113.47L1115.15 288.796L1120.18 287.957L1121.86 286.278L1123.54 285.018L1124.38 282.5V280.821H1124.8V281.66V284.179V292.154V295.512V298.871V300.13H1124.38L1123.54 298.031L1122.7 295.512L1121.02 293.833L1117.66 292.994L1115.15 292.154H1112.63H1111.79H1110.95H1108.85H1105.49H1098.78H1096.68H1095.84V292.994V293.833V298.031V303.488V310.204V316.501V320.698V322.377V323.217V324.056L1096.68 326.995L1097.94 330.353L1099.62 331.192H1101.3H1102.97H1103.81H1104.65H1107.17H1112.63H1114.31H1115.99H1121.02L1124.38 330.353L1127.32 327.834L1129 325.735L1130.68 322.377L1131.51 320.698H1132.35V321.538L1131.51 324.056V326.575L1129.84 331.192V333.711L1129 334.55H1128.16H1126.48H1123.54H1119.34H1109.69H1097.94H1088.29H1084.09H1081.15H1078.63H1077.79H1076.95V333.711H1077.79H1078.63H1079.47L1080.31 332.871L1083.67 331.192L1084.93 329.513L1085.77 327.834L1086.61 325.735V323.217V320.698V316.501V311.883V306.007V279.142V272.845V266.969V262.771V259.413V258.154V256.475L1085.77 253.116L1083.67 249.758L1081.99 248.919L1079.47 248.079H1078.63H1077.79H1076.95Z" fill="#98999D"/>
<path d="M253.919 0H27.7007H22.6645L18.4675 1.67906L13.4313 3.3581L10.0734 6.7162L6.71563 10.0743L3.35781 13.4324L0.840222 17.63L0 22.6672V27.7043V313.563L0.840222 317.76L2.51862 321.958L5.03723 326.156L8.39402 330.353L11.7518 333.711L15.9488 336.23L20.9851 337.909L26.0223 338.749H228.737L233.774 337.909L237.971 336.23L242.168 333.711L245.525 330.353L248.883 326.995L251.402 322.798L253.08 318.6L253.919 313.563V311.044V136.843H130.948V85.2118H254.759V70.5201H92.7544L91.9152 68.0016L91.076 65.483L90.2357 62.1249L87.7181 54.9889L83.5211 46.1739L80.1633 37.3589L76.8055 30.2229L75.9663 26.8648L75.1271 24.3462V22.6672H254.339V0H253.919ZM76.3864 164.547L80.5834 151.534L83.9402 144.818L87.298 138.102L91.495 131.386L96.5312 124.67L99.0499 121.311L99.8891 119.632V116.274V109.558V95.7059V82.6933V81.8537H100.728H104.086L114.579 82.6933H118.776H120.455V83.5328V87.7304V93.6071V100.743V117.114V125.089V132.225V138.941V143.979V147.337H119.615L118.776 148.176L111.641 154.053L104.925 161.189L99.8891 169.164L96.5312 178.819L94.0137 189.313V198.128V202.326L96.5312 218.696L99.8891 235.067L104.086 251.438L109.963 266.969L116.677 283.34L118.357 287.537L119.196 290.056L120.035 290.896V314.402H92.3342V296.352H110.382H111.221V292.155L109.542 285.019L107.024 277.043L99.8891 259.833L91.9152 242.623L83.9402 224.573L80.5834 215.758L78.0648 206.943L76.3864 196.449L75.5462 189.733V176.72L76.3864 164.547Z" fill="#E4171A"/>
<path d="M277.423 0H279.101H280.781H284.138H291.273H299.247H310.16H321.491H343.316H353.808H363.041H366.399H369.337H371.856H373.534H374.374L375.213 0.839529L376.053 2.09881L376.892 5.45691L377.731 8.81501L379.41 13.0126L380.67 17.63L384.867 28.9636L389.903 41.5565L399.556 69.2609L404.593 82.2735L408.369 93.6071L410.049 99.064L412.566 104.101L413.406 108.299L415.085 111.237L415.924 113.756L416.763 115.435V116.274V114.595V112.077V109.978V105.78V100.743V96.1257V84.3723V71.3597V57.5075V44.4948V31.4822V20.1486V15.5312V10.4941V6.29644V2.93834V1.67906V0H419.282H423.059H428.935H435.231H442.785H457.474H464.61H471.325H475.942H479.3H480.978V2.09881V5.45691V10.4941V16.7905V24.3462V32.3217V41.5565V52.0506V62.5447V85.2118V108.299V130.966V151.954V162.028V170.843V178.819V185.535V190.572V195.19V197.708V198.548H480.139H479.3H476.781H474.682H467.128H458.314H448.241H436.909H415.085H405.432H396.198H393.261H390.742H388.224H385.706H384.867V197.708V196.869L384.027 195.19L382.348 192.671L381.509 188.893L380.25 184.696L378.571 179.658L374.374 168.325L369.337 155.312L359.685 126.768L354.647 113.756L350.031 101.583L348.352 96.1257L346.674 91.928L344.995 86.8909L343.316 83.5328L342.477 81.434L341.637 79.7549V78.9154V80.5945V83.113V85.2118V89.4095V94.4466V99.064V111.237V124.25V138.102V151.954V165.806V177.56V183.017V187.214V191.412V194.35V196.869V197.708L340.798 198.548H339.539H335.342H329.465H323.17H315.616H300.927H293.791H287.076H282.459H279.101H277.423V197.708V196.029V192.671V187.214V181.337V174.202V164.967V156.152V145.658V135.164V112.916V89.4095V66.7423V45.3344V36.5194V27.7043V19.3091V13.0126V7.13597V2.93834V0.839529V0Z" fill="#98999D"/>
<path d="M664.387 104.941L662.708 94.4465L660.19 84.7919L655.993 76.8164L651.796 68.8409L645.92 61.705L639.205 54.9888L632.49 49.9516L625.774 45.754L619.059 41.5564L611.085 39.0378L602.271 37.3587L592.618 35.6797H582.126L568.276 36.5192L556.104 39.0378L544.772 42.3959L535.119 46.5935L527.145 52.4702L520.01 59.6062L513.294 67.5816L511.616 68.4212L510.777 69.2607L509.937 70.1002L507.419 76.8164L504.9 83.5326L502.383 90.6686L500.703 97.8046L499.025 112.496V115.854V119.212V125.089L499.864 135.583L501.542 145.238L504.9 154.892L508.258 162.868L513.294 170.004L519.171 177.14L525.885 183.016L533.02 188.054L540.156 192.251L548.13 195.609L556.104 198.128L565.757 199.807L575.41 200.646H585.903L596.395 199.807L606.049 197.288L615.702 193.93L624.515 189.733L632.49 184.695L639.625 177.979L642.983 174.621L646.339 171.263L651.377 164.547L655.574 157.411L658.93 150.275L661.449 142.299L663.127 133.484L663.968 123.83V113.336L664.387 104.941ZM598.914 128.447L598.074 137.262L597.235 144.398L595.556 150.275L593.038 154.473L589.68 157.831L585.483 159.51L581.286 160.349L576.249 159.51L571.213 157.831L567.855 153.633L565.338 147.756L564.498 142.719L563.658 136.003V128.867V120.892V109.558L564.498 99.9034L565.338 91.9279L567.016 86.0512L569.535 81.8536L572.892 78.4955L577.089 76.8164L582.126 75.9769L586.323 76.8164L590.52 78.4955L593.877 81.0141L596.395 85.2117L597.235 91.0884L598.074 98.2243L598.914 107.879V119.212V128.447Z" fill="#98999D"/>
<path d="M830.169 143.139L828.491 137.262L825.972 131.386L822.614 126.349L820.097 123.83L818.417 122.151L814.22 119.632L809.184 117.114L803.309 116.274L796.593 114.595H794.915H794.075H795.754L801.629 112.916L807.506 110.398L812.542 107.879L816.739 104.521L820.097 101.163L822.614 96.9652L825.133 92.7675L826.811 87.7304L827.651 82.6932V79.3351V79.7549L826.811 71.7794L825.133 66.7423L822.614 61.7051L820.097 57.5075L815.06 52.4703L810.023 48.2727L804.148 44.9146L797.013 42.396L789.038 40.717L779.386 39.8774H773.509H766.375H680.336V197.708H762.598H765.955H770.152L780.644 196.869L789.458 196.029L797.432 194.35L804.148 191.832L810.023 189.313L815.06 185.955L819.257 181.757L823.454 177.56L826.811 172.522L827.651 170.004L828.491 167.485L829.33 164.127L831.008 156.991V155.312V149.436V143.139H830.169ZM739.933 73.0387H744.13H748.327H751.685H754.204H756.721H757.561L760.079 73.8782L763.437 75.5573L765.955 78.0758L767.634 81.434L768.473 84.7921V88.9897V91.5083L766.795 96.5454L763.437 99.9035L760.079 100.743L757.561 101.583L754.204 102.422H750.846H746.649H739.933V73.0387ZM770.152 152.794L769.312 156.152L766.795 158.67L764.276 161.189L760.918 162.868H759.24H758.401H755.882H752.524H748.327H739.514V133.485H750.007H753.364H756.721H759.24H760.079H761.758L765.115 135.164L767.634 137.682L769.312 140.201L770.152 143.559L770.992 147.756L770.152 152.794Z" fill="#98999D"/>
<path d="M847.377 39.8774H848.216H850.735H853.252H857.03H867.523H879.274H890.606H901.099H905.296H908.234H909.912H910.751V41.5565V42.8158V46.1739V49.532V54.5691V64.2237V76.3968V89.4094V118.793V148.176V162.028V173.362V183.856V188.054V191.832V194.35V196.869V197.708V198.548H909.912H908.234H905.296H901.099H890.606H879.274H867.523H857.03H853.252H850.735H848.216H847.377V197.708V196.869V194.35V191.832V188.054V183.856V173.362V162.028V148.176V118.793V89.4094V76.3968V64.2237V54.5691V49.532V46.1739V42.8158V41.5565V39.8774Z" fill="#98999D"/>
<path d="M930.478 39.8774H931.317H932.156H934.675H935.933H942.649H950.623H968.67H976.645H984.199H989.655H992.174H993.013H993.852V41.5565V44.4948V48.6925V53.7296V59.1865V66.7423V81.434V98.2245V113.756V129.287V136.003V142.3V147.337V151.115V154.473V156.152H994.691H996.371H998.049H1003.51H1010.22H1018.2H1034.56H1042.12H1047.57H1051.77H1052.61V157.831V160.349V164.547V169.164V181.337V187.214V191.832V195.19V197.708V198.548H1050.93H1047.57H1043.38H1037.92H1031.21H1024.91H1008.54H992.174H975.386H959.017H951.463H946.007H940.13H935.933H932.996H931.317L930.478 197.708V196.869V192.671V188.054V181.337V173.362V164.547V154.473V133.485V111.237V89.4094V79.7549V69.6806V61.7051V54.5691V47.8529V42.8158V40.717V39.8774Z" fill="#98999D"/>
<path d="M277.423 248.079V247.24H278.262H280.781H283.298H291.273H299.247H309.321H318.134H322.331H325.688H326.948H328.626H329.465V248.079V252.277V257.314V258.993V260.252H328.626V259.413L327.787 258.154L326.109 254.795L324.01 251.437L321.491 250.598H318.973L317.294 249.758H316.455H314.776H312.258H305.124H300.927H298.828H296.309L295.47 250.598V252.277V257.314V262.771V270.327V276.623V283.339V287.117V288.796V289.636H296.309H298.828H305.124H311.838H313.937H314.776L317.294 288.796L321.491 287.957L324.01 286.278L324.849 283.339L325.688 281.66V280.821H326.109V281.66V283.339V286.278V293.833V296.352V299.71V300.13H325.688L324.849 297.192L323.17 294.673L319.813 292.994L315.616 292.154H314.776H312.258H306.802H299.247H297.149H296.309L295.47 292.994V295.512V299.71V305.167V315.661V320.698V323.217L296.309 326.995L297.988 330.353L300.086 332.032L303.444 333.711H304.283H305.124V334.55H303.444H300.086H290.434H285.397H281.62H278.262H277.423V333.711H278.262H279.941L282.459 332.032L284.978 329.513L286.237 326.575L287.076 324.896V324.056V323.217V320.698V317.34V313.142V303.488V279.981V269.487V265.29V261.931V259.413V258.154V257.314L285.397 252.277L284.138 250.598L281.62 248.919L278.262 248.079H277.423Z" fill="#98999D"/>
<path d="M446.981 334.55H446.142H443.625H436.07H432.292H429.774H428.935V333.711V331.192V327.834V322.377V320.698V319.859H428.095L427.256 323.217L423.898 326.995L420.541 330.353L416.763 332.871L411.727 334.55L407.53 336.229L402.913 337.069L397.877 336.229L393.26 335.39L388.223 333.711L384.026 331.192L380.249 328.674L376.892 325.735L374.374 321.538L371.855 316.501L370.177 311.044V304.327V300.969V300.13V298.031V294.673V286.278V276.623V268.648V264.45V261.092V258.993V258.154V257.314V254.795L368.498 251.437L366.819 250.598L365.56 248.919L363.041 248.079H361.363V247.24H363.041H366.819H378.571H383.187H387.384H388.223V248.079L384.866 248.919L382.348 249.758L380.669 251.437L380.249 253.116L379.41 256.475V258.993V259.413V261.931V265.29V269.487V287.117V295.512V298.031V299.71V300.13V301.809V306.007V311.883L380.669 316.501L382.348 320.698L384.026 324.056L386.545 326.995L389.903 329.513L393.26 331.192L396.198 332.871L400.395 333.711H402.913H403.753H405.431L410.049 332.871L415.085 331.192L416.763 329.513L418.443 328.674L420.541 326.995L423.059 324.896L425.577 321.538L426.416 318.18L428.095 313.982L428.935 310.204V306.007V305.167V302.648V300.13V296.352V287.117V276.623V266.969V263.61V260.252V258.993V258.154V257.314V254.795L427.256 251.437L425.577 250.598L423.898 248.919L420.541 248.079H419.282V247.24H420.121H422.219H426.416H437.748H443.625H445.303H446.981H447.822V248.079H446.981L443.625 248.919L441.106 249.758L439.428 251.437L438.587 253.116L437.748 256.475V258.154V259.413V261.931V266.969V272.845V279.142V306.846V312.723V317.34V321.538V323.217V326.995L439.428 329.513L441.106 331.192L443.625 332.032L446.142 332.871L446.981 333.711V334.55Z" fill="#98999D"/>
<path d="M548.55 332.032L544.353 329.514L541.835 326.995L539.316 323.637L535.959 318.6V317.76L535.119 316.081L531.762 310.205L530.083 307.686L529.244 306.007L528.404 305.167L526.725 301.809L522.528 295.933L518.331 291.735L513.295 290.056L514.974 289.217L521.689 286.698L526.725 283.34L530.083 278.303L531.762 273.266L532.601 267.389L531.762 263.191L530.083 258.994L527.565 254.796L524.207 250.598L519.171 247.24L512.456 245.561L509.098 244.722H476.361V245.561H477.201L480.558 246.401L483.916 248.919L484.755 250.598L485.595 253.117V322.378V324.057L484.755 326.575L483.076 329.094L480.558 329.933L478.04 330.773H477.201V331.613H504.901V330.773H504.062H502.383L499.865 329.933L496.507 328.254L494.828 324.057V321.538V288.797H498.186H500.704L504.062 289.636L507.419 291.315L510.777 294.673L514.974 298.871L518.331 304.748L519.171 305.587L520.85 308.945L525.047 316.081L527.565 319.439L528.404 321.958V322.798L529.244 323.637L530.922 326.156L532.601 328.674L535.119 332.032V332.872H551.488V332.032H548.55ZM510.357 288.797H506.16H501.963H500.285H495.247V249.759H496.088H499.444H501.124H505.321L509.518 250.598L512.876 251.438L517.912 255.636L521.27 260.673L522.948 266.549V272.426L522.109 279.142L519.59 284.179L515.393 288.377L512.876 289.217L510.357 288.797Z" fill="#98999D"/>
<path d="M669.004 247.24V248.079L664.387 248.919L662.709 250.598L661.029 252.277L660.19 254.795L659.351 258.154V259.413V260.252V261.931V265.29V269.487V274.105V279.981V292.994V306.007V318.18V324.056V328.674V332.032V335.39V336.229H658.512L657.672 334.55L655.154 332.032L650.957 327.834L647.18 323.217L642.143 317.34L630.811 305.167L619.479 292.154L608.987 279.981L603.111 274.944L598.914 270.327L595.975 266.129L593.458 263.61L592.619 261.931V262.771V265.29V267.808V271.166V279.142V288.796V298.031V306.007V309.365V311.883V313.982V314.822V320.698V324.896L593.458 326.995L594.297 329.513L595.136 330.353L595.975 331.192L599.753 332.871L602.271 333.711V334.55H601.432H599.753H596.816H593.458H585.903H582.965H581.286H580.447V333.711L583.384 332.871L585.903 331.192L587.581 329.513L588.422 326.995L589.261 323.217V317.34V315.661V314.822V313.142V311.044V307.686V300.13V280.821V272.006V266.969V264.45V261.092V259.413V258.993V258.154L586.742 256.475V255.635L585.064 253.956L582.126 251.437L579.607 249.758L577.089 248.919L575.41 248.079H574.571V247.24H575.41H577.929H582.965H588.422H590.1H590.939H591.778L592.619 248.919L595.136 251.437L598.074 255.635L602.271 259.413L607.308 265.29L617.801 277.463L629.132 289.636L640.464 302.648L645.5 307.686L649.697 312.723L652.635 316.501L655.154 319.019L656.832 320.698V319.859V318.18V314.822V311.883V303.488V284.179V274.944V272.006V268.648V266.129V265.29V263.61V261.092V257.314L655.993 253.956L655.154 251.437L652.635 249.758L650.537 248.919L648.019 248.079H647.18V247.24H648.858H651.796H659.351H665.646H668.165H669.004Z" fill="#98999D"/>
<path d="M726.923 247.24V248.079L723.565 248.919L720.207 250.598L718.109 253.116L717.27 258.154V258.993V260.252V263.611V267.808V272.845V278.302V290.475V302.648V308.525V313.142V317.34V320.698V323.217V324.056L718.109 327.834L720.207 331.192L723.565 332.871L726.923 333.711V334.55H726.083H722.726H718.109H713.073H708.036H703.419H700.061H699.222V333.711L702.58 332.871L705.518 331.192L707.196 327.834L708.876 324.056V323.217V320.698V317.34V313.142V308.525V302.648V290.475V278.302V272.845V267.808V263.611V260.252V258.993V258.154L707.196 253.116L705.518 250.598L702.58 248.919L699.222 248.079V247.24H700.061H703.419H708.036H713.073H718.109H722.726H726.083H726.923Z" fill="#98999D"/>
<path d="M831.848 264.451H831.008L830.169 261.093L829.33 258.154L828.49 255.636L826.811 254.796L825.553 253.117L821.356 251.438L817.159 250.599H815.479H814.64H813.801H812.542H802.469H798.691H797.852V251.438V253.117V255.636V259.414V263.611V272.846V284.18V295.513V305.168V313.983V317.341V320.699V323.217V324.057V324.897L798.691 327.835L799.95 330.353L802.469 332.032L805.826 332.872L807.505 333.712V334.551H806.666H804.147H800.79H784.841H782.323H779.805V333.712H780.644L782.323 332.872L784.841 332.032L786.939 330.353L788.619 327.835V324.057V323.217V320.699V318.18V313.983V310.205V300.131V279.142V268.648V259.414V256.475V253.117V251.438V250.599H786.939H783.162H778.126H773.09H771.831L766.795 251.438L762.597 252.278L759.24 254.796L757.98 256.475L757.141 258.994L756.302 264.451H755.462H754.623V262.772V261.093V255.636V248.919V245.561V244.302V243.463V242.623H755.462L758.82 245.561L760.079 246.401L762.597 247.24H765.115H765.954H766.795H768.473H773.929H781.484H797.852H805.826H812.962H818.837H820.515H821.356H823.873L827.651 245.561L830.169 243.463L831.008 242.623H831.848V243.463V245.142V250.599V256.475V261.932V263.611V264.451Z" fill="#98999D"/>
<path d="M946.007 334.55H945.167H942.649H934.675H931.317H928.799H927.959V333.711V331.192V327.834V322.377V320.698V319.859H927.12L925.441 323.217L922.923 326.995L919.985 330.353L914.948 332.871L910.751 334.55L906.974 336.229L901.938 337.069L896.062 336.229L891.446 335.39L887.249 333.711L882.212 331.192L879.274 328.674L875.917 325.735L873.398 321.538L870.04 316.501L869.201 311.044L868.362 304.327V300.969V300.13V298.031V294.673V286.278V276.623V268.648V264.45V261.092V258.993V258.154V257.314V254.795L867.103 251.437L866.263 250.598L864.584 248.919L861.227 248.079H859.548V247.24H860.387H861.227H865.424H876.756H882.212H886.409H887.249V248.079H886.409L883.891 248.919L881.372 249.758L880.114 251.437L879.274 253.116L878.434 256.475V258.993V259.413V261.931V265.29V269.487V287.117V295.512V298.031V299.71V300.13V301.809V306.007V311.883L879.274 316.501L880.953 320.698L883.052 324.056L885.569 326.995L888.927 329.513L892.285 331.192L895.222 332.871L899.419 333.711H901.099H902.777H904.456L908.234 332.871L913.27 331.192L915.788 329.513L916.628 328.674L919.985 326.995L921.244 324.896L923.762 321.538L925.441 318.18L927.12 313.982V310.204L927.959 306.007V305.167V302.648V300.13V296.352V287.117V276.623V266.969V263.61V260.252V258.993V258.154V257.314L927.12 254.795L925.441 251.437L924.602 250.598L922.084 248.919L919.985 248.079H918.306V247.24H919.145H920.825H925.441H936.773H941.81H944.327H945.167H946.007V248.079H945.167L942.649 248.919L940.13 249.758L938.452 251.437L937.613 253.116L936.773 256.475L935.933 258.154V259.413V261.931V266.969V272.845V279.142V306.846V312.723V317.34V321.538V323.217L936.773 326.995L937.613 329.513L939.291 331.192L941.81 332.032L945.167 332.871L946.007 333.711V334.55Z" fill="#98999D"/>
<path d="M1047.57 332.032L1043.38 329.514L1040.86 326.995L1038.34 323.637L1034.98 318.6L1034.14 317.76L1033.3 316.081L1029.95 310.205L1028.27 307.686L1027.43 306.007L1026.59 305.167L1024.07 301.809L1019.87 295.933L1015.68 291.735L1011.48 289.217L1013.16 288.377L1019.03 285.858L1024.07 282.5L1027.43 278.303L1029.95 273.266V267.389V263.191L1028.27 258.994L1025.75 254.796L1022.39 250.598L1017.36 247.24L1010.64 245.561L1006.44 244.722H973.707V245.561H974.547L977.904 246.401L981.261 248.919L982.101 250.598L982.941 253.117V255.636V322.378V324.057L982.101 326.575L980.422 329.094L977.904 329.933L975.386 330.773H974.547V331.613H1002.25V330.773H1001.41H999.729L997.21 329.933L993.852 327.415L992.174 323.217V290.476H995.532H998.889L1002.25 291.315L1005.6 292.994L1008.96 296.352L1013.16 300.55L1016.52 306.427L1017.36 307.266L1019.03 310.624L1023.23 317.76L1025.75 321.118L1026.59 323.637V324.477L1027.43 325.316L1028.27 327.835L1030.79 330.353L1033.3 333.711L1034.14 334.551H1050.51V333.711L1047.57 332.032ZM1008.54 288.797L1005.18 289.636H1000.99H998.47H993.433V250.598H994.273H997.63H999.309H1003.51L1007.7 251.438L1011.06 252.277L1016.1 256.475L1019.45 261.512L1021.13 267.389L1021.97 273.266L1021.13 279.982L1018.62 285.019L1014.42 289.217L1011.9 290.056L1008.54 288.797Z" fill="#98999D"/>
<path d="M277.423 227.931H1132.35V215.758H277.423V227.931Z" fill="#E4171A"/>
</svg>
