<svg width="1286" height="525" viewBox="0 0 1286 525" fill="none" xmlns="http://www.w3.org/2000/svg">
<path d="M1117 0C1150.18 13.7323 1173.06 30.8976 1183.36 58.3622C1217.69 145.333 1249.72 232.304 1282.91 319.848C1284.05 323.281 1284.62 326.714 1285.77 333.008C1242.86 330.719 1230.85 298.677 1217.69 268.924C1211.39 255.192 1207.96 240.315 1202.81 226.01C1189.08 188.247 1183.93 184.814 1144.46 191.68C1114.71 196.257 1098.69 215.711 1097.55 246.609C1096.4 280.94 1108.99 311.837 1115.85 344.451C1131.87 417.118 1115.85 432.567 1059.22 467.47C1009.44 497.795 951.663 506.95 895.598 514.961C757.723 534.415 621.564 524.688 489.983 478.341C430.485 457.171 374.992 426.845 329.796 381.643C321.787 373.632 309.201 355.323 310.345 351.89C310.345 351.89 352.108 352.462 354.396 354.751C413.322 411.396 486.55 440.005 564.355 453.737C700.514 477.197 835.528 470.331 967.682 428.562C1003.72 417.118 1039.19 402.814 1068.94 377.638C1092.4 357.611 1099.26 333.58 1090.68 303.255C1083.24 277.507 1071.23 253.475 1061.51 228.871C1042.63 181.953 1056.93 159.638 1107.27 158.493C1117 158.493 1126.15 158.493 1135.88 158.493C1171.35 158.493 1170.78 159.066 1158.19 124.163C1144.46 84.1102 1131.87 44.6299 1117 0Z" fill="#98999D"/>
<path d="M817.221 284.372C818.365 260.341 818.365 236.882 817.793 212.85C817.221 156.777 794.909 139.611 739.988 152.199C726.83 155.06 714.816 159.637 702.802 165.931C694.793 170.509 687.927 174.514 689.072 184.813C689.644 191.679 693.076 195.113 699.369 196.257C709.095 197.973 715.96 194.54 719.965 185.386C727.402 168.22 742.276 165.359 758.295 168.22C783.467 172.225 783.467 192.252 785.184 211.706C786.9 233.448 771.453 229.443 758.867 231.16C739.988 232.876 721.109 236.882 704.518 247.181C683.351 259.769 677.058 278.651 682.779 300.966C688.5 322.708 706.234 330.147 726.258 331.291C742.848 331.863 758.295 326.141 771.453 315.842C776.03 312.409 786.328 302.11 788.044 313.553C790.905 329.574 780.607 327.858 808.639 327.858C818.365 327.858 828.663 328.43 834.956 327.858V320.42C820.081 316.414 816.649 300.966 817.221 284.372ZM786.328 262.63C786.9 289.522 769.737 308.404 745.137 309.548C727.402 310.12 715.388 303.254 714.816 283.8C714.244 261.485 736.556 247.181 769.737 245.464C785.756 243.748 786.9 251.758 786.328 262.63Z" fill="#EF393D"/>
<path d="M94.0934 75.5273C123.27 75.5273 135.856 81.8213 142.15 83.5378C143.294 84.11 142.721 112.147 142.721 125.307C142.721 125.879 121.554 125.879 120.982 125.307C115.261 118.441 110.684 108.142 106.68 104.136C92.3772 90.404 68.3493 88.1153 52.3306 98.9867C36.312 109.858 30.0189 133.89 39.7445 151.055C44.8933 160.21 53.4747 167.076 62.6282 172.225C88.9446 188.819 120.41 199.69 137.573 226.01C155.88 254.619 150.159 292.383 124.415 314.126C108.396 327.858 87.2284 331.863 66.633 331.863C49.4701 331.863 32.8796 328.43 15.7168 326.141C10.5679 325.569 3.13056 323.853 1.98637 322.708C1.98637 322.708 -0.874028 274.073 0.270161 274.073C6.5632 274.073 19.1491 273.501 19.7212 274.073C22.5816 285.517 27.7307 295.244 37.4563 303.254C46.0377 309.548 56.9074 312.409 67.7772 312.409C79.7912 312.409 92.3772 310.693 100.959 302.11C107.824 295.244 110.112 285.517 111.829 275.79C112.973 267.207 112.973 257.48 109.54 249.47C104.963 239.17 94.6658 232.304 84.3681 226.01C44.3215 202.551 -14.0321 176.803 4.27489 120.157C12.8563 92.6927 37.4561 77.2439 74.0701 76.0995C79.219 76.0995 86.6562 75.5273 94.0934 75.5273Z" fill="#98999D"/>
<path d="M358.974 324.997C330.369 329.575 308.057 328.43 281.169 326.142C305.769 304.971 300.62 279.223 300.62 254.619C300.62 208.273 300.62 161.354 300.62 115.008C300.62 97.2702 300.048 78.9605 276.592 74.9552C276.592 72.0944 276.02 70.95 278.308 70.95C329.225 69.2335 337.234 64.656 337.234 104.136C337.234 159.065 337.234 214.567 337.234 269.496C336.662 289.522 333.801 309.548 358.974 324.997Z" fill="#98999D"/>
<path d="M182.196 320.992C201.647 314.698 198.787 294.099 198.215 276.362C197.643 248.897 198.215 221.433 198.215 193.396C198.215 185.958 198.787 174.514 194.782 167.648C188.489 156.776 183.341 151.627 183.341 151.627C198.215 151.055 234.257 151.055 234.257 151.055C234.257 153.343 234.257 160.21 234.257 165.359C234.257 201.406 234.257 237.454 234.257 274.073C234.257 288.95 230.824 322.136 248.559 318.703V327.858C246.271 327.858 241.694 327.858 238.834 328.43C219.955 329.002 200.503 328.43 182.196 328.43C182.196 324.997 182.196 323.28 182.196 320.992Z" fill="#98999D"/>
<path d="M198.215 97.8418C197.071 84.6817 202.22 78.9599 215.95 78.3877C230.824 78.3877 235.401 85.826 235.401 99.5583C235.401 114.435 227.964 116.151 215.378 116.724C200.503 117.296 196.499 110.43 198.215 97.8418Z" fill="#98999D"/>
<path d="M384.718 162.498C384.718 164.787 386.434 166.503 388.722 165.931C390.438 165.931 392.155 165.931 394.443 166.503C398.448 168.22 399.592 171.653 400.164 172.225C400.736 214.566 401.308 256.907 401.308 299.821C401.308 302.109 400.736 304.97 399.02 306.687C397.876 307.831 396.732 308.403 395.587 309.548C391.011 312.409 385.862 311.836 384.718 311.264C384.718 315.842 384.718 323.28 384.146 327.857C409.89 327.857 435.062 327.857 460.806 327.857C460.806 323.28 460.806 315.842 460.806 311.836C459.09 311.836 451.653 312.981 445.932 308.403C443.643 306.687 441.355 303.826 440.783 302.682C440.211 271.784 440.211 240.886 439.639 209.416C439.639 201.978 441.927 194.54 446.504 188.818C451.653 181.952 460.234 174.514 472.248 172.225C476.253 171.653 484.262 169.364 492.271 173.369C502.569 177.947 506.002 187.674 506.574 190.535C506.574 226.01 506.574 262.057 506.574 297.532C506.574 303.254 503.141 308.976 497.992 311.836H497.42C494.56 312.981 491.127 313.553 488.839 313.553C487.122 313.553 485.406 314.697 485.406 316.986V329.002C514.011 329.002 539.755 329.002 564.928 329.002C564.928 324.424 564.928 320.419 564.928 315.842C564.928 314.697 563.783 313.553 562.639 313.553C559.779 313.553 554.63 312.981 551.197 310.692C546.62 307.831 545.476 303.254 545.476 302.109C544.904 270.64 544.904 239.17 544.332 207.7C544.332 202.55 546.048 197.401 548.909 192.823C553.485 185.385 562.067 175.658 575.225 172.797C579.23 171.653 587.811 169.936 595.82 175.086C606.118 181.38 606.69 193.968 606.69 195.684C607.262 230.587 607.834 266.062 608.407 300.965C608.407 302.109 606.69 306.687 602.114 310.12C597.537 312.981 592.96 312.409 591.816 312.409C591.816 317.558 591.816 322.708 591.816 327.857H667.905C667.905 322.136 667.332 316.414 667.332 310.692C665.616 310.692 659.323 311.264 654.174 308.403C649.025 305.542 645.593 300.965 645.593 299.821C645.593 263.201 645.593 192.251 645.593 192.251C645.593 188.246 640.444 163.07 616.988 152.199C604.402 146.477 594.104 147.049 589.528 147.621C559.207 150.482 542.616 178.519 540.327 182.524C539.183 178.519 531.746 158.493 511.722 149.338C510.006 148.766 501.997 145.333 491.699 145.333C460.806 145.905 440.211 177.947 437.35 181.952C437.35 170.508 436.778 159.065 436.778 147.621C419.615 147.621 401.881 147.049 384.718 147.049C384.146 151.054 384.718 156.776 384.718 162.498Z" fill="#EF393D"/>
<path d="M853.835 153.343C865.849 152.199 917.337 152.771 927.635 152.771C928.207 152.771 927.635 159.637 927.635 164.215C923.63 164.215 919.626 165.359 917.337 168.792C914.477 173.37 915.621 179.091 919.626 183.097C927.063 193.968 934.5 204.84 941.937 215.711C952.235 203.695 963.105 192.252 973.403 180.236C976.263 175.658 975.691 170.509 972.831 166.504C968.826 161.354 962.533 161.926 961.961 161.926C961.961 157.349 961.961 153.343 961.389 148.766C982.556 148.766 1003.15 148.766 1024.32 148.194C1024.32 152.771 1023.75 157.349 1023.75 161.926C1021.46 161.926 1016.88 161.926 1013.45 163.643C1010.02 165.359 1004.87 169.364 1003.15 171.653C987.133 191.107 971.686 211.706 955.668 231.16C972.831 255.763 989.993 279.795 1006.58 303.826C1007.73 305.543 1010.59 308.404 1015.17 310.692C1018.6 312.409 1022.03 312.409 1024.32 312.409C1024.32 316.414 1024.32 320.992 1024.32 324.997C1000.86 324.997 976.835 324.425 952.807 324.997C952.807 320.42 953.379 316.986 953.379 312.409C955.668 312.409 964.821 311.265 966.537 305.543C967.682 301.538 964.821 297.532 963.677 295.816C956.812 286.089 947.086 272.929 935.645 256.336C924.775 270.068 914.477 284.372 903.607 298.105C903.607 298.677 901.319 304.399 904.179 308.404C906.468 311.837 909.9 312.981 915.621 313.553C915.621 318.131 915.621 321.564 915.049 326.141C893.881 325.569 872.142 326.141 850.975 325.569C850.975 322.136 850.974 318.131 851.547 315.27C856.695 312.409 863.561 308.404 869.854 302.682C874.43 298.677 878.435 294.099 881.296 290.094C895.026 272.929 908.184 255.763 921.914 239.17C907.04 218.572 892.165 197.401 877.291 176.803C875.575 174.514 872.714 171.081 866.993 168.792C861.844 165.931 856.696 165.359 853.835 165.359C853.835 162.498 853.835 157.349 853.835 153.343Z" fill="#EF393D"/>
</svg>
