<svg width="1053" height="317" viewBox="0 0 1053 317" fill="none" xmlns="http://www.w3.org/2000/svg">
<path d="M131.422 158.869L37.2533 171.288L24.3181 74.777L310.447 36.7417V3.36377H0V313.856H152.118L131.422 158.869Z" fill="#98999D"/>
<path d="M243.441 143.861L265.949 313.856H310.447V135.064L243.441 143.861Z" fill="#FF6C0E"/>
<path d="M486.883 35.9654H450.923V135.582H414.187V35.9654H378.485V3.36377H486.883V35.9654Z" fill="#FF6C0E"/>
<path d="M587.261 104.015V135.582H501.112V3.36377H585.709V34.6717H537.331V54.3362H580.794V84.0917H537.331V104.015H587.261Z" fill="#FF6C0E"/>
<path d="M656.077 94.959H642.883V135.582H606.405V3.36377H663.579C692.037 3.36377 712.733 22.5108 712.733 50.1963C712.733 66.4972 704.713 79.6931 691.778 87.4554L718.166 135.582H677.549L656.077 94.959ZM642.883 64.4272H659.44C669.529 64.4272 675.48 58.2174 675.48 49.9376C675.48 41.6578 669.529 35.7067 659.44 35.7067H642.883V64.4272Z" fill="#FF6C0E"/>
<path d="M862.783 135.582L852.435 59.2523L817.509 135.84H806.643L771.718 59.5111L761.37 135.582H724.634L744.554 3.36377H781.032L812.076 75.2944L843.38 3.36377H879.857L899.519 135.582H862.783Z" fill="#FF6C0E"/>
<path d="M980.235 138.945C937.807 138.945 907.538 109.966 907.538 69.602C907.538 29.238 937.807 0 980.235 0C1022.66 0 1052.93 28.9793 1052.93 69.3433C1052.93 109.707 1022.66 138.945 980.235 138.945ZM980.235 105.05C1000.41 105.05 1014.9 90.3015 1014.9 69.602C1014.9 48.9025 1000.41 34.1541 980.235 34.1541C960.056 34.1541 945.309 49.1613 945.309 69.602C945.309 90.0427 960.056 105.05 980.235 105.05Z" fill="#FF6C0E"/>
<path d="M486.883 214.24H450.923V313.597H414.187V214.24H378.485V181.379H486.883V214.24Z" fill="#98999D"/>
<path d="M541.988 181.379H504.993V313.597H541.988V181.379Z" fill="#98999D"/>
<path d="M703.937 313.597L693.589 237.527L658.405 313.856H647.798L612.614 237.527L602.524 313.597H565.529L585.449 181.379H621.927L652.972 253.31L684.276 181.379H720.753L740.673 313.597H703.937Z" fill="#98999D"/>
<path d="M832.255 261.848C826.305 253.31 816.474 248.394 805.349 248.394C786.464 248.394 771.977 262.883 771.977 282.289C771.977 301.695 786.205 316.185 805.349 316.185C816.732 316.185 826.563 311.01 832.513 302.471L833.031 315.15H838.723V227.436H832.255V261.848ZM805.349 309.716C789.827 309.716 778.444 297.814 778.444 282.03C778.444 266.247 790.086 254.345 805.349 254.345C820.872 254.345 832.255 265.988 832.255 282.03C832.514 298.331 821.13 309.716 805.349 309.716ZM855.28 314.891H863.558V305.059H855.28V314.891ZM1052.93 305.059H1044.65V314.891H1052.93V305.059ZM949.966 314.891H958.245V305.059H949.966V314.891ZM906.762 248.394C887.359 248.394 872.872 262.883 872.872 282.289C872.872 301.695 887.359 316.185 906.762 316.185C926.165 316.185 940.652 301.695 940.652 282.289C940.652 262.883 926.165 248.394 906.762 248.394ZM906.762 309.716C890.981 309.716 879.339 297.814 879.339 282.03C879.339 265.988 890.981 254.345 906.762 254.345C922.543 254.345 934.185 266.247 934.185 282.03C934.185 298.073 922.285 309.716 906.762 309.716ZM1001.45 248.394C982.045 248.394 967.558 262.883 967.558 282.289C967.558 301.695 982.045 316.185 1001.45 316.185C1020.85 316.185 1035.34 301.695 1035.34 282.289C1035.34 262.883 1020.85 248.394 1001.45 248.394ZM1001.45 309.716C985.667 309.716 974.026 297.814 974.026 282.03C974.026 265.988 985.667 254.345 1001.45 254.345C1017.23 254.345 1028.87 266.247 1028.87 282.03C1028.87 298.073 1016.97 309.716 1001.45 309.716Z" fill="#98999D"/>
</svg>
