<svg width="1216" height="386" viewBox="0 0 1216 386" fill="none" xmlns="http://www.w3.org/2000/svg">
<path d="M1165.99 110.483C1165.99 104.015 1165.99 99.8748 1165.99 94.9586C1182.54 94.9586 1198.58 94.9586 1214.88 94.9586C1215.14 96.2524 1215.4 97.5461 1215.4 98.8398C1215.14 159.903 1215.4 220.708 1214.62 281.771C1214.36 298.848 1209.97 315.408 1202.72 330.674C1186.16 365.346 1157.71 382.94 1119.68 385.269C1094.07 386.821 1068.45 385.01 1044.39 374.66C1037.93 371.814 1031.98 368.45 1025.25 364.828C1031.46 350.597 1037.15 337.66 1042.58 325.24C1057.33 329.38 1071.3 334.814 1086.05 336.884C1098.72 338.695 1112.43 338.695 1125.11 335.849C1150.98 330.156 1169.35 300.142 1164.43 273.233C1154.6 283.065 1142.96 289.534 1129.51 292.38C1064.31 305.576 1007.14 256.673 1008.69 189.141C1009.99 139.463 1041.81 98.8398 1087.86 90.0425C1116.31 84.8676 1142.96 87.9726 1165.99 110.483ZM1059.66 190.694C1059.14 220.19 1082.17 243.995 1111.92 244.512C1141.41 245.03 1165.21 222.002 1165.99 192.246C1166.76 163.267 1143.22 138.945 1113.73 138.169C1084.23 137.651 1060.18 161.197 1059.66 190.694Z" fill="#98999D"/>
<path d="M993.947 191.729C993.947 248.911 947.897 294.968 890.723 294.968C833.549 294.968 787.5 248.911 787.241 191.988C786.982 134.805 833.808 87.9728 890.982 88.2315C948.156 88.2315 994.206 134.547 993.947 191.729ZM890.982 244.513C920.474 244.254 944.016 220.708 943.758 191.211C943.499 161.715 919.698 138.169 890.465 138.428C861.231 138.687 837.43 162.75 837.688 191.988C837.688 221.226 861.49 244.771 890.982 244.513Z" fill="#98999D"/>
<path d="M527.242 294.709C470.068 294.967 423.76 249.17 423.76 191.988C423.501 134.546 469.551 87.9727 526.983 87.9727C583.64 87.9727 629.948 134.029 630.466 190.435C630.466 248.135 584.675 294.45 527.242 294.709ZM526.983 244.512C556.217 244.254 580.018 220.449 580.018 191.211C579.759 161.973 555.7 138.169 526.466 138.169C496.974 138.428 473.431 162.232 473.69 191.47C473.949 221.226 497.491 244.771 526.983 244.512Z" fill="#98999D"/>
<path d="M367.879 138.169C367.879 168.183 367.103 197.421 368.138 226.401C368.655 242.184 375.899 247.617 391.939 247.1C396.078 247.1 399.959 247.1 405.133 247.1C405.133 261.072 405.133 275.044 404.874 289.016C404.874 290.051 402.287 292.121 400.735 292.38C385.73 292.38 370.208 294.45 355.72 291.604C332.954 286.946 322.864 268.834 318.984 247.1C317.69 240.114 317.432 233.128 317.432 225.883C317.173 197.163 317.432 168.183 317.432 138.428C307.342 138.428 297.511 138.428 287.422 138.428C287.422 123.421 287.422 109.448 287.422 94.4414C297.253 94.4414 306.825 94.4414 317.173 94.4414C317.173 62.3572 317.173 31.308 317.173 0C333.989 0 350.287 0 367.362 0C367.362 31.0492 367.362 62.0984 367.362 94.1826C381.073 94.1826 394.009 94.1826 407.461 94.1826C407.461 109.19 407.461 123.162 407.461 138.169C394.267 138.169 381.073 138.169 367.879 138.169Z" fill="#98999D"/>
<path d="M0 94.4416C11.383 94.4416 22.5074 94.4416 33.6317 94.4416C40.8755 94.4416 49.93 92.6303 55.1041 95.994C60.0195 99.0989 60.7958 108.414 63.3828 114.882C74.2485 144.379 85.114 174.135 96.2383 203.631C97.2731 206.219 98.308 208.806 99.8603 212.687C109.174 187.589 117.711 164.044 126.507 140.498C131.681 126.784 136.596 113.071 141.77 99.3577C142.547 97.2877 145.134 94.4416 147.203 94.4416C164.278 94.1828 181.611 94.1828 199.462 94.1828C198.686 96.7702 198.168 98.8402 197.392 100.393C172.039 160.939 146.427 221.485 121.333 282.031C119.263 286.947 116.935 288.499 111.761 288.24C103.223 287.723 94.4274 288.499 85.8901 287.982C83.5618 287.723 79.9399 285.912 79.1638 283.842C53.0346 222.002 26.9054 160.162 1.03489 98.064C0.517474 97.5465 0.517411 96.5115 0 94.4416Z" fill="#98999D"/>
<path d="M702.127 287.981C684.794 287.981 668.754 287.981 652.197 287.981C652.197 223.554 652.197 159.386 652.197 94.7C668.495 94.7 684.794 94.7 701.61 94.7C701.61 104.015 701.61 113.071 701.61 124.455C719.978 95.4762 746.624 92.3713 775.599 93.4063C775.599 111.001 775.599 128.078 775.599 145.672C767.321 145.672 759.042 144.896 751.022 145.931C729.032 148.777 714.028 161.197 708.077 182.414C704.456 195.351 702.903 209.065 702.385 222.778C701.351 244.254 702.127 265.729 702.127 287.981Z" fill="#98999D"/>
<path d="M264.138 94.7002C264.138 159.386 264.138 223.296 264.138 287.723C247.581 287.723 231.283 287.723 214.726 287.723C214.726 223.296 214.726 159.127 214.726 94.7002C231.283 94.7002 247.322 94.7002 264.138 94.7002Z" fill="#98999D"/>
<path d="M264.138 38.5527L239.561 21.7344L214.726 38.5527V71.6719H264.138V38.5527Z" fill="#98999D"/>
</svg>
